<?xml version="1.0" encoding="utf-8"?><svg viewBox="0 0 556 438" xmlns="http://www.w3.org/2000/svg" xmlns:xlink="http://www.w3.org/1999/xlink"><style>:root>svg{display:none}:root>svg:target{display:block}</style><svg fill="none" viewBox="0 0 392 114" id="app-store" xmlns="http://www.w3.org/2000/svg"><path d="M389.822 100.853c0 6.075-4.99 10.996-11.163 10.996H13.355c-6.17 0-11.177-4.921-11.177-10.996V13.162c0-6.073 5.008-11.011 11.177-11.011h365.302c6.175 0 11.162 4.938 11.162 11.01l.003 87.692z" fill="#fff"/><path d="M377.481 2.284c6.723 0 12.192 5.368 12.192 11.966v85.5c0 6.598-5.469 11.966-12.192 11.966H14.519c-6.723 0-12.192-5.368-12.192-11.966v-85.5c0-6.598 5.47-11.966 12.191-11.966h362.963zm0-2.284H14.519C6.537 0 0 6.416 0 14.25v85.5C0 107.584 6.537 114 14.518 114h362.963c7.982 0 14.519-6.416 14.519-14.25v-85.5C392 6.416 385.463 0 377.481 0z" fill="#53A6EA"/><path d="M87.483 56.384C87.399 47.2 95.146 42.73 95.5 42.522c-4.387-6.279-11.188-7.136-13.578-7.205-5.711-.59-11.251 3.355-14.161 3.355-2.968 0-7.448-3.298-12.277-3.2-6.214.093-12.027 3.624-15.215 9.108-6.58 11.18-1.673 27.61 4.631 36.648 3.154 4.426 6.838 9.368 11.661 9.194 4.719-.191 6.481-2.953 12.176-2.953 5.642 0 7.297 2.953 12.216 2.842 5.064-.08 8.252-4.446 11.295-8.912 3.644-5.073 5.108-10.07 5.166-10.326-.12-.04-9.835-3.679-9.931-14.689zM78.191 29.372c2.538-3.115 4.274-7.353 3.792-11.654-3.673.16-8.267 2.494-10.912 5.54-2.34 2.686-4.43 7.086-3.89 11.224 4.125.302 8.362-2.043 11.01-5.11zM142.427 28.526c0 3.354-1.025 5.88-3.072 7.575-1.896 1.565-4.591 2.348-8.081 2.348-1.731 0-3.212-.074-4.452-.222V19.899a33.464 33.464 0 015.241-.388c3.325 0 5.831.71 7.521 2.129 1.893 1.604 2.843 3.899 2.843 6.886zm-3.209.082c0-2.174-.586-3.842-1.759-5.004-1.174-1.16-2.887-1.742-5.143-1.742-.958 0-1.774.063-2.451.194V35.99c.375.057 1.06.082 2.056.082 2.329 0 4.126-.635 5.392-1.906s1.905-3.124 1.905-5.558zM159.44 31.455c0 2.067-.601 3.76-1.804 5.088-1.26 1.365-2.929 2.046-5.014 2.046-2.01 0-3.61-.653-4.803-1.964-1.191-1.308-1.786-2.958-1.786-4.947 0-2.08.613-3.788 1.844-5.113 1.231-1.326 2.886-1.99 4.971-1.99 2.01 0 3.624.653 4.846 1.961 1.162 1.271 1.746 2.913 1.746 4.92zm-3.157.097c0-1.24-.273-2.303-.816-3.189-.638-1.072-1.547-1.607-2.729-1.607-1.223 0-2.152.535-2.791 1.607-.545.886-.816 1.967-.816 3.243 0 1.24.273 2.303.816 3.19.66 1.071 1.577 1.607 2.762 1.607 1.161 0 2.073-.544 2.729-1.636.564-.903.845-1.975.845-3.215zM182.251 24.85l-4.283 13.434h-2.787l-1.774-5.834a42.877 42.877 0 01-1.101-4.34h-.055a31.18 31.18 0 01-1.101 4.34l-1.884 5.834h-2.82l-4.027-13.435h3.127l1.548 6.387c.374 1.51.682 2.95.929 4.312h.055c.227-1.123.601-2.554 1.13-4.284l1.942-6.412h2.48l1.861 6.276c.45 1.53.816 3.004 1.098 4.423h.084c.206-1.382.517-2.856.929-4.423l1.661-6.276h2.988v-.003zM198.027 38.284h-3.043v-7.695c0-2.371-.918-3.557-2.759-3.557-.903 0-1.632.325-2.198.978a3.432 3.432 0 00-.845 2.302v7.97h-3.043v-9.594c0-1.18-.038-2.46-.11-3.845h2.674l.142 2.1h.085c.354-.652.882-1.19 1.576-1.62a5.217 5.217 0 012.759-.756c1.277 0 2.34.405 3.185 1.217 1.051.995 1.577 2.48 1.577 4.451v8.049zM206.419 38.284h-3.041v-19.6h3.041v19.6zM224.335 31.455c0 2.067-.601 3.76-1.804 5.088-1.26 1.365-2.932 2.046-5.014 2.046-2.013 0-3.612-.653-4.803-1.964-1.191-1.308-1.786-2.958-1.786-4.947 0-2.08.613-3.788 1.844-5.113 1.231-1.326 2.886-1.99 4.968-1.99 2.013 0 3.624.653 4.849 1.961 1.162 1.271 1.746 2.913 1.746 4.92zm-3.16.097c0-1.24-.273-2.303-.816-3.189-.635-1.072-1.547-1.607-2.726-1.607-1.225 0-2.155.535-2.791 1.607-.545.886-.816 1.967-.816 3.243 0 1.24.273 2.303.816 3.19.66 1.071 1.577 1.607 2.762 1.607 1.161 0 2.07-.544 2.726-1.636.567-.903.845-1.975.845-3.215zM239.062 38.284h-2.732l-.227-1.548h-.084c-.935 1.234-2.268 1.853-3.998 1.853-1.293 0-2.338-.408-3.125-1.217-.714-.735-1.071-1.65-1.071-2.736 0-1.642.697-2.893 2.099-3.76 1.4-.866 3.368-1.29 5.903-1.27v-.251c0-1.77-.946-2.654-2.842-2.654-1.351 0-2.541.334-3.569.995l-.619-1.96c1.272-.773 2.843-1.16 4.696-1.16 3.577 0 5.372 1.852 5.372 5.557v4.948c0 1.342.066 2.41.197 3.203zm-3.159-4.617v-2.072c-3.357-.057-5.035.846-5.035 2.708 0 .7.191 1.225.583 1.576.392.35.892.524 1.487.524a3.11 3.11 0 001.861-.621c.572-.416.924-.944 1.054-1.59.032-.146.05-.323.05-.525zM256.354 38.284h-2.701l-.142-2.157h-.084c-.863 1.641-2.332 2.462-4.396 2.462-1.65 0-3.023-.636-4.112-1.907-1.089-1.27-1.632-2.92-1.632-4.947 0-2.175.59-3.936 1.774-5.281 1.147-1.254 2.553-1.881 4.225-1.881 1.838 0 3.125.607 3.856 1.824h.058v-7.712h3.046v15.98c0 1.308.035 2.513.108 3.619zm-3.154-5.666v-2.24a4.33 4.33 0 00-.084-.94 3.39 3.39 0 00-1.1-1.81c-.567-.488-1.249-.733-2.036-.733-1.135 0-2.024.442-2.677 1.329-.648.886-.976 2.017-.976 3.4 0 1.328.311 2.405.935 3.234.659.884 1.548 1.326 2.66 1.326.999 0 1.797-.368 2.404-1.106.587-.681.874-1.502.874-2.46zM282.38 31.455c0 2.067-.602 3.76-1.804 5.088-1.26 1.365-2.927 2.046-5.014 2.046-2.007 0-3.607-.653-4.803-1.964-1.191-1.308-1.786-2.958-1.786-4.947 0-2.08.613-3.788 1.844-5.113 1.231-1.326 2.886-1.99 4.974-1.99 2.006 0 3.624.653 4.843 1.961 1.162 1.271 1.746 2.913 1.746 4.92zm-3.154.097c0-1.24-.273-2.303-.816-3.189-.642-1.072-1.547-1.607-2.732-1.607-1.22 0-2.149.535-2.791 1.607-.546.886-.816 1.967-.816 3.243 0 1.24.273 2.303.816 3.19.659 1.071 1.577 1.607 2.762 1.607 1.161 0 2.076-.544 2.732-1.636.561-.903.845-1.975.845-3.215zM298.742 38.284h-3.04v-7.695c0-2.371-.918-3.557-2.762-3.557-.903 0-1.632.325-2.195.978a3.417 3.417 0 00-.845 2.302v7.97h-3.046v-9.594c0-1.18-.035-2.46-.107-3.845h2.671l.142 2.1h.084c.358-.652.886-1.19 1.577-1.62a5.228 5.228 0 012.762-.756c1.274 0 2.337.405 3.182 1.217 1.054.995 1.577 2.48 1.577 4.451v8.049zM319.222 27.086h-3.351v6.527c0 1.659.595 2.488 1.774 2.488.546 0 .999-.046 1.356-.14l.078 2.266c-.601.222-1.39.333-2.363.333-1.202 0-2.137-.359-2.814-1.077-.679-.718-1.016-1.926-1.016-3.622v-6.775h-2.001V24.85h2.001v-2.462l2.982-.884v3.343h3.351v2.24h.003zM335.332 38.284h-3.046v-7.638c0-2.408-.918-3.614-2.756-3.614-1.411 0-2.375.698-2.904 2.095-.09.294-.142.653-.142 1.074v8.08h-3.04V18.685h3.04v8.096h.058c.958-1.473 2.332-2.208 4.112-2.208 1.26 0 2.302.404 3.13 1.217 1.031 1.011 1.548 2.516 1.548 4.506v7.988zM351.949 30.931c0 .536-.04.986-.113 1.354h-9.126c.04 1.328.476 2.34 1.321 3.04.772.628 1.768.941 2.988.941 1.35 0 2.581-.21 3.69-.635l.477 2.074c-1.298.553-2.826.83-4.594.83-2.12 0-3.789-.613-4.997-1.838-1.214-1.226-1.815-2.87-1.815-4.934 0-2.026.56-3.713 1.69-5.059 1.179-1.436 2.773-2.154 4.785-2.154 1.969 0 3.464.718 4.475 2.154.816 1.14 1.219 2.551 1.219 4.227zm-2.903-.772c.023-.887-.178-1.65-.59-2.295-.528-.829-1.333-1.245-2.422-1.245-.993 0-1.803.405-2.421 1.217-.506.647-.805 1.42-.903 2.323h6.336zM155.769 89.786h-6.594l-3.612-11.14h-12.556l-3.441 11.14h-6.42l12.439-37.928h7.684l12.5 37.928zm-11.295-15.814l-3.267-9.904c-.346-1.012-.993-3.395-1.948-7.145h-.117c-.38 1.613-.993 3.995-1.835 7.145l-3.208 9.904h10.375zM187.759 75.776c0 4.65-1.28 8.327-3.841 11.026-2.294 2.403-5.143 3.603-8.543 3.603-3.67 0-6.307-1.294-7.912-3.882h-.117v14.407h-6.19V71.44c0-2.923-.079-5.924-.23-9.002h5.445l.345 4.334h.116c2.065-3.266 5.198-4.896 9.403-4.896 3.287 0 6.031 1.274 8.226 3.825 2.201 2.553 3.298 5.91 3.298 10.075zm-6.306.222c0-2.662-.61-4.856-1.836-6.584-1.338-1.8-3.136-2.701-5.389-2.701-1.527 0-2.915.501-4.155 1.49-1.243.998-2.056 2.3-2.436 3.913-.192.753-.288 1.368-.288 1.853v4.56c0 1.99.622 3.668 1.864 5.039 1.243 1.37 2.858 2.054 4.844 2.054 2.331 0 4.146-.883 5.444-2.644 1.301-1.764 1.952-4.09 1.952-6.98zM219.807 75.776c0 4.65-1.28 8.327-3.844 11.026-2.291 2.403-5.14 3.603-8.54 3.603-3.67 0-6.307-1.294-7.91-3.882h-.116v14.407h-6.191V71.44c0-2.923-.078-5.924-.229-9.002h5.444l.346 4.334h.116c2.062-3.266 5.195-4.896 9.402-4.896 3.284 0 6.028 1.274 8.229 3.825 2.193 2.553 3.293 5.91 3.293 10.075zm-6.307.222c0-2.662-.612-4.856-1.838-6.584-1.338-1.8-3.13-2.701-5.386-2.701-1.53 0-2.915.501-4.158 1.49-1.243.998-2.053 2.3-2.433 3.913-.189.753-.288 1.368-.288 1.853v4.56c0 1.99.622 3.668 1.859 5.039 1.242 1.368 2.857 2.054 4.849 2.054 2.331 0 4.146-.883 5.444-2.644 1.301-1.764 1.951-4.09 1.951-6.98zM255.639 79.15c0 3.226-1.141 5.851-3.432 7.877-2.518 2.215-6.022 3.32-10.526 3.32-4.158 0-7.492-.786-10.015-2.362l1.434-5.064c2.718 1.613 5.7 2.422 8.95 2.422 2.331 0 4.146-.519 5.45-1.55 1.298-1.032 1.945-2.417 1.945-4.144 0-1.54-.534-2.836-1.605-3.888-1.066-1.051-2.846-2.029-5.332-2.932-6.765-2.477-10.145-6.105-10.145-10.876 0-3.118 1.185-5.674 3.557-7.664 2.364-1.992 5.517-2.986 9.46-2.986 3.517 0 6.438.601 8.769 1.8l-1.547 4.954c-2.178-1.163-4.64-1.744-7.396-1.744-2.178 0-3.879.527-5.099 1.576-1.031.938-1.548 2.08-1.548 3.434 0 1.5.59 2.74 1.775 3.714 1.03.9 2.903 1.875 5.621 2.927 3.325 1.314 5.767 2.85 7.338 4.611 1.565 1.756 2.346 3.953 2.346 6.575zM276.107 66.998h-6.823v13.278c0 3.377 1.202 5.064 3.612 5.064 1.106 0 2.024-.094 2.75-.282l.171 4.614c-1.22.448-2.825.673-4.814.673-2.445 0-4.356-.733-5.735-2.195-1.374-1.465-2.065-3.921-2.065-7.373V66.992h-4.065v-4.56h4.065v-5.008l6.081-1.8v6.808h6.823v4.566zM306.895 75.887c0 4.204-1.225 7.655-3.67 10.354-2.564 2.779-5.967 4.164-10.209 4.164-4.089 0-7.344-1.331-9.771-3.993-2.428-2.662-3.641-6.022-3.641-10.072 0-4.238 1.248-7.71 3.754-10.408 2.5-2.702 5.874-4.053 10.117-4.053 4.088 0 7.378 1.331 9.86 3.996 2.376 2.585 3.56 5.922 3.56 10.012zm-6.423.197c0-2.523-.548-4.686-1.661-6.49-1.297-2.183-3.153-3.272-5.557-3.272-2.489 0-4.379 1.092-5.677 3.272-1.112 1.807-1.661 4.004-1.661 6.604 0 2.522.549 4.685 1.661 6.486 1.339 2.183 3.209 3.272 5.622 3.272 2.363 0 4.219-1.112 5.557-3.329 1.141-1.838 1.716-4.024 1.716-6.543zM327.018 67.781a10.953 10.953 0 00-1.951-.168c-2.178 0-3.862.807-5.047 2.423-1.031 1.425-1.548 3.226-1.548 5.4v14.35h-6.187l.058-18.736c0-3.152-.079-6.022-.233-8.61h5.393l.226 5.233h.171c.654-1.798 1.685-3.246 3.096-4.332 1.379-.977 2.869-1.465 4.474-1.465.572 0 1.089.04 1.548.111v5.794zM354.705 74.818c0 1.089-.073 2.007-.227 2.756h-18.572c.073 2.702.97 4.768 2.695 6.193 1.565 1.274 3.589 1.912 6.074 1.912 2.75 0 5.259-.43 7.515-1.294l.97 4.218c-2.637 1.13-5.749 1.69-9.341 1.69-4.321 0-7.713-1.248-10.181-3.742-2.462-2.493-3.696-5.842-3.696-10.043 0-4.124 1.147-7.558 3.444-10.297 2.404-2.924 5.653-4.386 9.742-4.386 4.015 0 7.056 1.462 9.12 4.386 1.635 2.323 2.457 5.196 2.457 8.607zm-5.904-1.576c.041-1.801-.363-3.357-1.202-4.671-1.071-1.69-2.718-2.534-4.933-2.534-2.024 0-3.67.824-4.928 2.477-1.03 1.314-1.643 2.89-1.832 4.725h12.895v.003z" fill="#3698F3"/></svg><svg viewBox="0 0 15 9" id="arrow" xmlns="http://www.w3.org/2000/svg"><path d="M7.5 8.775c.269 0 .538-.102.743-.307l6.45-6.45A1.05 1.05 0 1013.206.532L7.5 6.24 1.793.533A1.05 1.05 0 00.308 2.018l6.45 6.45c.205.205.473.307.742.307z"/></svg><svg fill="none" viewBox="0 0 22 22" id="download" xmlns="http://www.w3.org/2000/svg"><g clip-path="url(#cclip0_4028_339)" stroke="#39B7FF" stroke-width="2" stroke-linecap="round"><path d="M7 21h8c2.828 0 4.243 0 5.121-.878C21 19.242 21 17.829 21 15v-1c0-2.828 0-4.242-.879-5.121-.768-.768-1.946-.865-4.121-.877m-10 0c-2.175.012-3.353.109-4.121.877C1 9.758 1 11.172 1 14v1c0 2.829 0 4.243.879 5.122.3.3.662.497 1.121.627"/><path d="M11 1v13m0 0l-3-3.5m3 3.5l3-3.5" stroke-linejoin="round"/></g><defs><clipPath id="cclip0_4028_339"><path fill="#fff" d="M0 0h22v22H0z"/></clipPath></defs></svg><svg fill="none" viewBox="0 0 35 37" id="hand" xmlns="http://www.w3.org/2000/svg"><path opacity=".15" d="M9.428 35.483c0 .349 1.152.682 3.203.928 2.051.247 4.833.385 7.734.385s5.683-.138 7.734-.385c2.051-.246 3.204-.58 3.204-.928 0-.348-1.153-.681-3.204-.928-2.051-.246-4.833-.384-7.734-.384-2.9 0-5.683.138-7.734.384-2.05.246-3.203.58-3.203.928z" fill="#DEF0FF"/><path d="M28.642 12.523l-.114 2.853-9.817-9.827a2.267 2.267 0 00-3.01-.253 2.178 2.178 0 00-.167 3.237l-1.39-1.391a2.424 2.424 0 00-3.3-.184 2.336 2.336 0 00-.087 3.386l-.018-.043a2.214 2.214 0 00-2.625-.403 2.187 2.187 0 00-.463 3.448l2.625 2.625a1.917 1.917 0 00-2.835.14 1.995 1.995 0 00.21 2.625l10.963 11.06a8.215 8.215 0 0011.7-.053 12.661 12.661 0 003.5-9.459l-.325-10.613a.945.945 0 00-.945-.875 3.894 3.894 0 00-3.902 3.727z" fill="#fff"/><path d="M28.53 15.376l-9.818-9.827a2.266 2.266 0 00-3.01-.253 2.17 2.17 0 00-.315 3.053c.089-.122.195-.231.315-.323a2.266 2.266 0 013.01.236l8.453 8.461 1.365-1.347zm5.04-2.975l-.08-2.73a.945.945 0 00-.944-.875 3.894 3.894 0 00-3.894 3.753l-.114 2.853.114-.123a3.902 3.902 0 013.894-3.753 1.024 1.024 0 011.024.875z" fill="#DEF0FF"/><path d="M10.162 15.953l5.302 5.294m-4.707-10.894l7.796 7.796m-3.019-9.598l6.31 6.317m6.798-2.345l-.114 2.853-9.817-9.827a2.267 2.267 0 00-3.01-.253 2.178 2.178 0 00-.167 3.237l-1.39-1.391a2.424 2.424 0 00-3.3-.184 2.336 2.336 0 00-.087 3.386l-.018-.043a2.214 2.214 0 00-2.625-.403 2.187 2.187 0 00-.463 3.448l2.625 2.625a1.917 1.917 0 00-2.835.14 1.995 1.995 0 00.21 2.625l10.963 11.06a8.215 8.215 0 0011.7-.053 12.662 12.662 0 003.5-9.459l-.325-10.613a.945.945 0 00-.945-.875 3.894 3.894 0 00-3.902 3.727z" stroke="#0A8ED9" stroke-linecap="round" stroke-linejoin="round"/><path d="M28.528 15.376L25.405 18.5a5.25 5.25 0 000 7.429M20.46 3.336a7.928 7.928 0 013.771 1.75 8.506 8.506 0 012.363 3.5M20.96 1a9.678 9.678 0 014.655 2.118 10.36 10.36 0 012.913 4.313m-25.095 9.45c-.138 1.4.1 2.81.692 4.087a8.444 8.444 0 002.773 3.176m-5.853-7.385a9.686 9.686 0 00.875 5.049 10.5 10.5 0 003.42 3.928" stroke="#0A8ED9" stroke-linecap="round" stroke-linejoin="round"/></svg><svg fill="none" viewBox="0 0 556 438" id="logo" xmlns="http://www.w3.org/2000/svg"><g opacity=".3" clip-path="url(#eclip0_4020_1076)"><g opacity=".8" filter="url(#efilter0_b_4020_1076)" stroke-width="2" stroke-linecap="round" stroke-linejoin="round"><path d="M356.747 19.212L232.719 91.401c-10.386 6.048-15.579 9.072-19.667 13.135a44.943 44.943 0 00-8.853 12.437c-2.498 5.196-3.647 11.111-5.935 22.898L175.35 257.913c-4.799 24.721-7.198 37.082-4.222 47.484 2.629 9.122 8.053 17.182 15.561 23.012 8.495 6.64 20.862 9.038 45.552 13.826l212.135 41.135c24.69 4.788 37.034 7.181 47.398 4.198a44.99 44.99 0 0023.064-15.522c6.648-8.513 9.043-20.852 13.833-45.529l22.932-118.131c2.288-11.786 3.432-17.679 3.063-23.454a44.876 44.876 0 00-3.54-14.817c-2.289-5.323-5.948-10.086-13.343-19.559L449.777 37.297C436.1 19.69 429.242 10.872 420.498 6.335a44.857 44.857 0 00-25.065-4.86c-9.771.935-19.349 6.5-38.48 17.617m-.206.12l.206-.12m-.206.12l.206-.12" stroke="url(#epaint0_linear_4020_1076)"/><path d="M356.747 19.212L232.719 91.401c-10.386 6.048-15.579 9.072-19.667 13.135a44.943 44.943 0 00-8.853 12.437c-2.498 5.196-3.647 11.111-5.935 22.898L175.35 257.913c-4.799 24.721-7.198 37.082-4.222 47.484 2.629 9.122 8.053 17.182 15.561 23.012 8.495 6.64 20.862 9.038 45.552 13.826l212.135 41.135c24.69 4.788 37.034 7.181 47.398 4.198a44.99 44.99 0 0023.064-15.522c6.648-8.513 9.043-20.852 13.833-45.529l22.932-118.131c2.288-11.786 3.432-17.679 3.063-23.454a44.876 44.876 0 00-3.54-14.817c-2.289-5.323-5.948-10.086-13.343-19.559L449.777 37.297C436.1 19.69 429.242 10.872 420.498 6.335a44.857 44.857 0 00-25.065-4.86c-9.771.935-19.349 6.5-38.48 17.617m-.206.12l.206-.12m-.206.12l.206-.12" stroke="#3698F3" style="mix-blend-mode:luminosity"/><path d="M356.747 19.212L232.719 91.401c-10.386 6.048-15.579 9.072-19.667 13.135a44.943 44.943 0 00-8.853 12.437c-2.498 5.196-3.647 11.111-5.935 22.898L175.35 257.913c-4.799 24.721-7.198 37.082-4.222 47.484 2.629 9.122 8.053 17.182 15.561 23.012 8.495 6.64 20.862 9.038 45.552 13.826l212.135 41.135c24.69 4.788 37.034 7.181 47.398 4.198a44.99 44.99 0 0023.064-15.522c6.648-8.513 9.043-20.852 13.833-45.529l22.932-118.131c2.288-11.786 3.432-17.679 3.063-23.454a44.876 44.876 0 00-3.54-14.817c-2.289-5.323-5.948-10.086-13.343-19.559L449.777 37.297C436.1 19.69 429.242 10.872 420.498 6.335a44.857 44.857 0 00-25.065-4.86c-9.771.935-19.349 6.5-38.48 17.617m-.206.12l.206-.12m-.206.12l.206-.12" stroke="#3698F3" style="mix-blend-mode:darken"/></g><g opacity=".8" filter="url(#efilter1_b_4020_1076)"><path d="M198.264 139.871L175.35 257.913c-4.799 24.721-7.198 37.082-4.222 47.484 2.629 9.122 8.053 17.182 15.561 23.012 8.495 6.64 20.862 9.038 45.552 13.826l212.135 41.135c24.69 4.788 37.034 7.181 47.398 4.198a44.99 44.99 0 0023.064-15.522c6.648-8.513 9.043-20.852 13.833-45.529l22.932-118.131c2.288-11.786 3.432-17.679 3.063-23.454a44.876 44.876 0 00-3.54-14.817c-2.289-5.323-5.948-10.086-13.343-19.559L449.777 37.297C436.1 19.69 429.242 10.872 420.498 6.335a44.857 44.857 0 00-25.065-4.86c-9.771.935-19.349 6.5-38.48 17.617l-.206.12-124.028 72.189c-10.386 6.048-15.579 9.072-19.667 13.135a44.943 44.943 0 00-8.853 12.437c-2.498 5.196-3.647 11.111-5.935 22.898z" fill="url(#epaint1_linear_4020_1076)"/><path d="M198.264 139.871L175.35 257.913c-4.799 24.721-7.198 37.082-4.222 47.484 2.629 9.122 8.053 17.182 15.561 23.012 8.495 6.64 20.862 9.038 45.552 13.826l212.135 41.135c24.69 4.788 37.034 7.181 47.398 4.198a44.99 44.99 0 0023.064-15.522c6.648-8.513 9.043-20.852 13.833-45.529l22.932-118.131c2.288-11.786 3.432-17.679 3.063-23.454a44.876 44.876 0 00-3.54-14.817c-2.289-5.323-5.948-10.086-13.343-19.559L449.777 37.297C436.1 19.69 429.242 10.872 420.498 6.335a44.857 44.857 0 00-25.065-4.86c-9.771.935-19.349 6.5-38.48 17.617l-.206.12-124.028 72.189c-10.386 6.048-15.579 9.072-19.667 13.135a44.943 44.943 0 00-8.853 12.437c-2.498 5.196-3.647 11.111-5.935 22.898z" fill="#3698F3" style="mix-blend-mode:luminosity"/><path d="M198.264 139.871L175.35 257.913c-4.799 24.721-7.198 37.082-4.222 47.484 2.629 9.122 8.053 17.182 15.561 23.012 8.495 6.64 20.862 9.038 45.552 13.826l212.135 41.135c24.69 4.788 37.034 7.181 47.398 4.198a44.99 44.99 0 0023.064-15.522c6.648-8.513 9.043-20.852 13.833-45.529l22.932-118.131c2.288-11.786 3.432-17.679 3.063-23.454a44.876 44.876 0 00-3.54-14.817c-2.289-5.323-5.948-10.086-13.343-19.559L449.777 37.297C436.1 19.69 429.242 10.872 420.498 6.335a44.857 44.857 0 00-25.065-4.86c-9.771.935-19.349 6.5-38.48 17.617l-.206.12-124.028 72.189c-10.386 6.048-15.579 9.072-19.667 13.135a44.943 44.943 0 00-8.853 12.437c-2.498 5.196-3.647 11.111-5.935 22.898z" fill="#3698F3" style="mix-blend-mode:darken"/></g><g opacity=".8" filter="url(#efilter2_bif_4020_1076)"><path d="M235.344 156.521l-17.698 91.17c-3.706 19.093-5.56 28.64-3.261 36.674a34.616 34.616 0 0012.018 17.773c6.562 5.129 16.113 6.981 35.182 10.679l163.842 31.77c19.069 3.698 28.604 5.547 36.608 3.243a34.748 34.748 0 0017.813-11.989c5.135-6.575 6.985-16.105 10.684-35.164l17.711-91.238c1.767-9.103 2.651-13.655 2.366-18.114a34.655 34.655 0 00-2.734-11.445c-1.768-4.11-4.593-7.789-10.306-15.106l-67.971-87.475c-10.563-13.599-15.86-20.41-22.613-23.913a34.645 34.645 0 00-19.359-3.754c-7.547.722-14.944 5.02-29.72 13.607l-.159.092-95.792 55.755c-8.022 4.671-12.032 7.007-15.19 10.145a34.734 34.734 0 00-6.838 9.605c-1.929 4.013-2.816 8.582-4.583 17.685z" fill="url(#epaint2_linear_4020_1076)"/><path d="M235.344 156.521l-17.698 91.17c-3.706 19.093-5.56 28.64-3.261 36.674a34.616 34.616 0 0012.018 17.773c6.562 5.129 16.113 6.981 35.182 10.679l163.842 31.77c19.069 3.698 28.604 5.547 36.608 3.243a34.748 34.748 0 0017.813-11.989c5.135-6.575 6.985-16.105 10.684-35.164l17.711-91.238c1.767-9.103 2.651-13.655 2.366-18.114a34.655 34.655 0 00-2.734-11.445c-1.768-4.11-4.593-7.789-10.306-15.106l-67.971-87.475c-10.563-13.599-15.86-20.41-22.613-23.913a34.645 34.645 0 00-19.359-3.754c-7.547.722-14.944 5.02-29.72 13.607l-.159.092-95.792 55.755c-8.022 4.671-12.032 7.007-15.19 10.145a34.734 34.734 0 00-6.838 9.605c-1.929 4.013-2.816 8.582-4.583 17.685z" fill="#3698F3" style="mix-blend-mode:luminosity"/><path d="M235.344 156.521l-17.698 91.17c-3.706 19.093-5.56 28.64-3.261 36.674a34.616 34.616 0 0012.018 17.773c6.562 5.129 16.113 6.981 35.182 10.679l163.842 31.77c19.069 3.698 28.604 5.547 36.608 3.243a34.748 34.748 0 0017.813-11.989c5.135-6.575 6.985-16.105 10.684-35.164l17.711-91.238c1.767-9.103 2.651-13.655 2.366-18.114a34.655 34.655 0 00-2.734-11.445c-1.768-4.11-4.593-7.789-10.306-15.106l-67.971-87.475c-10.563-13.599-15.86-20.41-22.613-23.913a34.645 34.645 0 00-19.359-3.754c-7.547.722-14.944 5.02-29.72 13.607l-.159.092-95.792 55.755c-8.022 4.671-12.032 7.007-15.19 10.145a34.734 34.734 0 00-6.838 9.605c-1.929 4.013-2.816 8.582-4.583 17.685z" fill="#3698F3" style="mix-blend-mode:darken"/></g><g opacity=".8" filter="url(#efilter3_b_4020_1076)"><path d="M.106 227.723V359.41c0 27.578 0 41.367 5.371 51.931 4.73 9.258 12.244 16.793 21.532 21.496 10.52 5.368 24.316 5.368 51.86 5.368h236.655c27.543 0 41.315 0 51.835-5.368a49.25 49.25 0 0021.556-21.496c5.371-10.539 5.371-24.303 5.371-51.833V227.723c0-13.149 0-19.723-1.601-25.855a49.188 49.188 0 00-6.898-15.192c-3.573-5.245-8.5-9.603-18.428-18.246L249.105 65.01c-18.379-16.078-27.593-24.13-37.94-27.184a49.126 49.126 0 00-27.962 0c-10.31 3.043-19.446 11.024-37.694 26.964l-.197.171L27.034 168.43c-9.904 8.667-14.856 13.001-18.403 18.221a49.24 49.24 0 00-6.923 15.217C.106 207.975.106 214.574.106 227.723z" fill="#8DBBED" fill-opacity=".4" style="mix-blend-mode:darken"/></g></g><defs><filter id="efilter0_b_4020_1076" x="-21.18" y="-189.735" width="766.914" height="769.617" filterUnits="userSpaceOnUse" color-interpolation-filters="sRGB"><feFlood flood-opacity="0" result="BackgroundImageFix"/><feGaussianBlur in="BackgroundImageFix" stdDeviation="95"/><feComposite in2="SourceAlpha" operator="in" result="effect1_backgroundBlur_4020_1076"/><feBlend in="SourceGraphic" in2="effect1_backgroundBlur_4020_1076" result="shape"/></filter><filter id="efilter1_b_4020_1076" x="-20.179" y="-188.735" width="764.914" height="767.617" filterUnits="userSpaceOnUse" color-interpolation-filters="sRGB"><feFlood flood-opacity="0" result="BackgroundImageFix"/><feGaussianBlur in="BackgroundImageFix" stdDeviation="95"/><feComposite in2="SourceAlpha" operator="in" result="effect1_backgroundBlur_4020_1076"/><feBlend in="SourceGraphic" in2="effect1_backgroundBlur_4020_1076" result="shape"/></filter><filter id="efilter2_bif_4020_1076" x="23.375" y="-140.53" width="677.287" height="679.375" filterUnits="userSpaceOnUse" color-interpolation-filters="sRGB"><feFlood flood-opacity="0" result="BackgroundImageFix"/><feGaussianBlur in="BackgroundImageFix" stdDeviation="95"/><feComposite in2="SourceAlpha" operator="in" result="effect1_backgroundBlur_4020_1076"/><feBlend in="SourceGraphic" in2="effect1_backgroundBlur_4020_1076" result="shape"/><feColorMatrix in="SourceAlpha" values="0 0 0 0 0 0 0 0 0 0 0 0 0 0 0 0 0 0 127 0" result="hardAlpha"/><feOffset dx="6" dy="4"/><feGaussianBlur stdDeviation="12"/><feComposite in2="hardAlpha" operator="arithmetic" k2="-1" k3="1"/><feColorMatrix values="0 0 0 0 0 0 0 0 0 0 0 0 0 0 0 0 0 0 0.06 0"/><feBlend in2="shape" result="effect2_innerShadow_4020_1076"/><feGaussianBlur stdDeviation=".5" result="effect3_foregroundBlur_4020_1076"/></filter><filter id="efilter3_b_4020_1076" x="-291.962" y="-254.205" width="976.248" height="982.41" filterUnits="userSpaceOnUse" color-interpolation-filters="sRGB"><feFlood flood-opacity="0" result="BackgroundImageFix"/><feGaussianBlur in="BackgroundImageFix" stdDeviation="145"/><feComposite in2="SourceAlpha" operator="in" result="effect1_backgroundBlur_4020_1076"/><feBlend in="SourceGraphic" in2="effect1_backgroundBlur_4020_1076" result="shape"/></filter><linearGradient id="epaint0_linear_4020_1076" x1="408.33" y1="2.086" x2="338.381" y2="362.816" gradientUnits="userSpaceOnUse"><stop stop-color="#64A7FE"/><stop offset="1" stop-color="#0A8ED9"/></linearGradient><linearGradient id="epaint1_linear_4020_1076" x1="408.33" y1="2.086" x2="338.381" y2="362.816" gradientUnits="userSpaceOnUse"><stop stop-color="#64A7FE"/><stop offset="1" stop-color="#0A8ED9"/></linearGradient><linearGradient id="epaint2_linear_4020_1076" x1="397.587" y1="50.104" x2="343.562" y2="328.713" gradientUnits="userSpaceOnUse"><stop stop-color="#64A7FE"/><stop offset="1" stop-color="#0A8ED9"/></linearGradient><clipPath id="eclip0_4020_1076"><path fill="#fff" d="M0 0h556v438H0z"/></clipPath></defs></svg></svg>