<svg width="40" height="41" viewBox="0 0 40 41" fill="none" xmlns="http://www.w3.org/2000/svg">
<g opacity="0.8">
<path d="M0.541014 19.3052V32.4012C0.541014 35.1439 0.541014 36.5152 1.07483 37.5657C1.54499 38.4864 2.29185 39.2357 3.21501 39.7035C4.26062 40.2373 5.6319 40.2373 8.36956 40.2373H31.8919C34.6296 40.2373 35.9984 40.2373 37.044 39.7035C37.9661 39.235 38.7161 38.4866 39.1867 37.5657C39.7205 36.5176 39.7205 35.1488 39.7205 32.411V19.3052C39.7205 17.9976 39.7205 17.3437 39.5613 16.734C39.4205 16.195 39.1886 15.684 38.8757 15.2231C38.5206 14.7015 38.0309 14.2681 37.044 13.4086L25.2902 3.12373C23.4635 1.52468 22.5476 0.723933 21.5192 0.420285C20.6132 0.150921 19.6484 0.150921 18.7399 0.420285C17.7151 0.722847 16.807 1.51653 14.9933 3.10173L14.9738 3.11883L3.21746 13.4086C2.23308 14.2705 1.74089 14.7015 1.38827 15.2207C1.07434 15.6822 0.841629 16.194 0.700181 16.734C0.541014 17.3413 0.541014 17.9976 0.541014 19.3052Z" fill="#53A6EA" style="mix-blend-mode:darken"/>
</g>
</svg>
