<svg width="392" height="114" viewBox="0 0 392 114" fill="none" xmlns="http://www.w3.org/2000/svg">
<path d="M389.822 100.853C389.822 106.928 384.832 111.849 378.659 111.849H13.355C7.18554 111.849 2.17773 106.928 2.17773 100.853V13.1615C2.17773 7.08913 7.18554 2.15088 13.355 2.15088H378.657C384.832 2.15088 389.819 7.08913 389.819 13.1615L389.822 100.853Z" fill="white"/>
<path d="M377.481 2.28357C384.204 2.28357 389.673 7.65226 389.673 14.25V99.75C389.673 106.348 384.204 111.716 377.481 111.716H14.5185C7.79644 111.716 2.32659 106.348 2.32659 99.75V14.25C2.32659 7.65226 7.79644 2.28357 14.5185 2.28357H377.481ZM377.481 7.62939e-06H14.5185C6.53696 7.62939e-06 0 6.41607 0 14.25V99.75C0 107.584 6.53696 114 14.5185 114H377.481C385.463 114 392 107.584 392 99.75V14.25C392 6.41607 385.463 7.62939e-06 377.481 7.62939e-06Z" fill="#53A6EA"/>
<path d="M87.4829 56.3844C87.3987 47.1989 95.1458 42.7301 95.5001 42.5221C91.1126 36.2435 84.3121 35.3857 81.9223 35.3173C76.2107 34.7273 70.6705 38.6717 67.761 38.6717C64.7934 38.6717 60.313 35.3743 55.4841 35.4712C49.2702 35.5652 43.457 39.0964 40.2687 44.5798C33.6889 55.7603 38.5962 72.1905 44.9001 81.2279C48.0535 85.6539 51.7383 90.5958 56.5614 90.422C61.2799 90.231 63.0425 87.4694 68.7366 87.4694C74.3785 87.4694 76.0336 90.422 80.9525 90.3108C86.0166 90.231 89.2048 85.8648 92.2479 81.3989C95.892 76.3259 97.3555 71.3299 97.4136 71.0734C97.2945 71.0335 87.5788 67.394 87.4829 56.3844Z" fill="#3698F3"/>
<path d="M78.1911 29.3722C80.7289 26.2571 82.4653 22.0192 81.9833 17.7185C78.3101 17.8781 73.7165 20.2123 71.0712 23.2589C68.7308 25.9436 66.6401 30.344 67.1802 34.4822C71.3064 34.7843 75.5429 32.4388 78.1911 29.3722Z" fill="#3698F3"/>
<path d="M142.427 28.5255C142.427 31.88 141.402 34.4051 139.355 36.1008C137.459 37.6655 134.764 38.4492 131.274 38.4492C129.543 38.4492 128.062 38.3751 126.822 38.2269V19.8986C128.44 19.6421 130.182 19.511 132.063 19.511C135.388 19.511 137.894 20.2206 139.584 21.6399C141.477 23.2445 142.427 25.5387 142.427 28.5255ZM139.218 28.6082C139.218 26.4336 138.632 24.7664 137.459 23.6036C136.285 22.4436 134.572 21.8622 132.316 21.8622C131.358 21.8622 130.542 21.9249 129.865 22.056V35.9897C130.24 36.0467 130.925 36.0723 131.921 36.0723C134.25 36.0723 136.047 35.4368 137.313 34.1657C138.579 32.8946 139.218 31.0421 139.218 28.6082Z" fill="#3698F3"/>
<path d="M159.44 31.4553C159.44 33.5216 158.839 35.2145 157.636 36.5426C156.376 37.9077 154.707 38.5889 152.622 38.5889C150.612 38.5889 149.012 37.9362 147.819 36.6252C146.628 35.3171 146.033 33.6669 146.033 31.6776C146.033 29.5971 146.646 27.89 147.877 26.5647C149.108 25.2395 150.763 24.5754 152.848 24.5754C154.858 24.5754 156.472 25.2281 157.694 26.5362C158.856 27.8073 159.44 29.4489 159.44 31.4553ZM156.283 31.5522C156.283 30.3125 156.01 29.2494 155.467 28.3631C154.829 27.2915 153.92 26.7557 152.738 26.7557C151.515 26.7557 150.586 27.2915 149.947 28.3631C149.402 29.2494 149.131 30.3296 149.131 31.6064C149.131 32.8461 149.404 33.9092 149.947 34.7955C150.607 35.8671 151.524 36.4029 152.709 36.4029C153.87 36.4029 154.782 35.8586 155.438 34.767C156.002 33.8636 156.283 32.792 156.283 31.5522Z" fill="#3698F3"/>
<path d="M182.251 24.8491L177.968 38.284H175.181L173.407 32.4501C172.956 30.9937 172.591 29.5459 172.306 28.1095H172.251C171.987 29.5858 171.621 31.0308 171.15 32.4501L169.266 38.284H166.446L162.419 24.8491H165.546L167.094 31.236C167.468 32.7465 167.776 34.1857 168.023 35.548H168.078C168.305 34.4251 168.679 32.9944 169.208 31.2645L171.15 24.852H173.63L175.491 31.1277C175.941 32.6581 176.307 34.1316 176.589 35.5509H176.673C176.879 34.1686 177.19 32.6952 177.602 31.1277L179.263 24.852H182.251V24.8491Z" fill="#3698F3"/>
<path d="M198.027 38.2839H194.984V30.5889C194.984 28.2177 194.066 27.0321 192.225 27.0321C191.322 27.0321 190.593 27.357 190.027 28.0097C189.467 28.6623 189.182 29.4318 189.182 30.3125V38.2811H186.139V28.688C186.139 27.5081 186.101 26.2284 186.029 24.8433H188.703L188.845 26.9438H188.93C189.284 26.2911 189.812 25.7525 190.506 25.3221C191.331 24.8205 192.254 24.5669 193.265 24.5669C194.542 24.5669 195.605 24.9716 196.45 25.7838C197.501 26.7785 198.027 28.2633 198.027 30.2355V38.2839Z" fill="#3698F3"/>
<path d="M206.419 38.284H203.378V18.6846H206.419V38.284Z" fill="#3698F3"/>
<path d="M224.335 31.4553C224.335 33.5216 223.734 35.2145 222.531 36.5426C221.271 37.9077 219.599 38.5889 217.517 38.5889C215.504 38.5889 213.905 37.9362 212.714 36.6252C211.523 35.3171 210.928 33.6669 210.928 31.6776C210.928 29.5971 211.541 27.89 212.772 26.5647C214.003 25.2395 215.658 24.5754 217.74 24.5754C219.753 24.5754 221.364 25.2281 222.589 26.5362C223.751 27.8073 224.335 29.4489 224.335 31.4553ZM221.175 31.5522C221.175 30.3125 220.902 29.2494 220.359 28.3631C219.724 27.2915 218.812 26.7557 217.633 26.7557C216.408 26.7557 215.478 27.2915 214.842 28.3631C214.297 29.2494 214.026 30.3296 214.026 31.6064C214.026 32.8461 214.299 33.9092 214.842 34.7955C215.502 35.8671 216.419 36.4029 217.604 36.4029C218.765 36.4029 219.674 35.8586 220.33 34.767C220.897 33.8636 221.175 32.792 221.175 31.5522Z" fill="#3698F3"/>
<path d="M239.062 38.2839H236.33L236.103 36.7364H236.019C235.084 37.9704 233.751 38.5889 232.021 38.5889C230.728 38.5889 229.683 38.1813 228.896 37.3719C228.182 36.6366 227.825 35.7218 227.825 34.6359C227.825 32.9943 228.522 31.7432 229.924 30.8768C231.324 30.0104 233.292 29.5857 235.827 29.6057V29.3549C235.827 27.585 234.881 26.7015 232.985 26.7015C231.634 26.7015 230.444 27.035 229.416 27.6962L228.797 25.7354C230.069 24.963 231.64 24.5754 233.493 24.5754C237.07 24.5754 238.865 26.4279 238.865 30.1329V35.0805C238.865 36.4229 238.931 37.4916 239.062 38.2839ZM235.903 33.6669V31.595C232.546 31.538 230.868 32.4414 230.868 34.3025C230.868 35.0036 231.059 35.528 231.451 35.8785C231.843 36.2291 232.343 36.4029 232.938 36.4029C233.606 36.4029 234.23 36.1949 234.799 35.7816C235.371 35.3655 235.723 34.8383 235.853 34.1913C235.885 34.046 235.903 33.8693 235.903 33.6669Z" fill="#3698F3"/>
<path d="M256.354 38.284H253.653L253.511 36.1266H253.427C252.564 37.7682 251.095 38.589 249.031 38.589C247.381 38.589 246.008 37.9534 244.919 36.6823C243.83 35.4112 243.287 33.7611 243.287 31.7347C243.287 29.5602 243.877 27.7989 245.061 26.4537C246.208 25.1997 247.614 24.5727 249.286 24.5727C251.124 24.5727 252.411 25.1797 253.142 26.3967H253.2V18.6846H256.246V34.6645C256.246 35.9727 256.281 37.1782 256.354 38.284ZM253.2 32.6182V30.3781C253.2 29.9905 253.171 29.677 253.116 29.4376C252.945 28.7194 252.576 28.1152 252.016 27.6279C251.449 27.1405 250.767 26.8954 249.98 26.8954C248.845 26.8954 247.956 27.3372 247.303 28.2235C246.655 29.1099 246.327 30.2413 246.327 31.6236C246.327 32.9517 246.638 34.029 247.262 34.8583C247.921 35.7418 248.81 36.1836 249.922 36.1836C250.921 36.1836 251.719 35.8159 252.326 35.0778C252.913 34.3966 253.2 33.5758 253.2 32.6182Z" fill="#3698F3"/>
<path d="M282.38 31.4553C282.38 33.5216 281.778 35.2145 280.576 36.5426C279.316 37.9077 277.649 38.5889 275.562 38.5889C273.555 38.5889 271.955 37.9362 270.759 36.6252C269.568 35.3171 268.973 33.6669 268.973 31.6776C268.973 29.5971 269.586 27.89 270.817 26.5647C272.048 25.2395 273.703 24.5754 275.791 24.5754C277.797 24.5754 279.415 25.2281 280.634 26.5362C281.796 27.8073 282.38 29.4489 282.38 31.4553ZM279.226 31.5522C279.226 30.3125 278.953 29.2494 278.41 28.3631C277.768 27.2915 276.863 26.7557 275.678 26.7557C274.458 26.7557 273.529 27.2915 272.887 28.3631C272.341 29.2494 272.071 30.3296 272.071 31.6064C272.071 32.8461 272.344 33.9092 272.887 34.7955C273.546 35.8671 274.464 36.4029 275.649 36.4029C276.81 36.4029 277.725 35.8586 278.381 34.767C278.942 33.8636 279.226 32.792 279.226 31.5522Z" fill="#3698F3"/>
<path d="M298.742 38.2839H295.702V30.5889C295.702 28.2177 294.784 27.0321 292.94 27.0321C292.037 27.0321 291.308 27.357 290.745 28.0097C290.182 28.6623 289.9 29.4318 289.9 30.3125V38.2811H286.854V28.688C286.854 27.5081 286.819 26.2284 286.747 24.8433H289.418L289.56 26.9438H289.644C290.002 26.2911 290.53 25.7525 291.221 25.3221C292.049 24.8205 292.969 24.5669 293.983 24.5669C295.257 24.5669 296.32 24.9716 297.165 25.7838C298.219 26.7785 298.742 28.2633 298.742 30.2355V38.2839Z" fill="#3698F3"/>
<path d="M319.222 27.0863H315.871V33.6128C315.871 35.2715 316.466 36.1009 317.645 36.1009C318.191 36.1009 318.644 36.0553 319.001 35.9612L319.079 38.227C318.478 38.4493 317.689 38.5604 316.716 38.5604C315.514 38.5604 314.579 38.2013 313.902 37.4831C313.223 36.7649 312.886 35.5565 312.886 33.8608V27.0863H310.885V24.8491H312.886V22.3867L315.868 21.5032V24.8462H319.219V27.0863H319.222Z" fill="#3698F3"/>
<path d="M335.332 38.284H332.286V30.646C332.286 28.2378 331.368 27.0322 329.53 27.0322C328.119 27.0322 327.155 27.7305 326.626 29.127C326.536 29.4205 326.484 29.7796 326.484 30.2014V38.2812H323.444V18.6846H326.484V26.7814H326.542C327.5 25.308 328.874 24.5727 330.654 24.5727C331.914 24.5727 332.956 24.9774 333.784 25.7896C334.815 26.8014 335.332 28.3062 335.332 30.2955V38.284Z" fill="#3698F3"/>
<path d="M351.949 30.931C351.949 31.4668 351.909 31.9171 351.836 32.2847H342.71C342.75 33.6128 343.186 34.6246 344.031 35.3257C344.803 35.9527 345.799 36.2662 347.019 36.2662C348.369 36.2662 349.6 36.0553 350.709 35.6306L351.186 37.7054C349.888 38.2583 348.36 38.5348 346.592 38.5348C344.472 38.5348 342.803 37.922 341.595 36.6965C340.381 35.471 339.78 33.8266 339.78 31.7632C339.78 29.7368 340.34 28.0496 341.47 26.7044C342.649 25.268 344.243 24.5498 346.255 24.5498C348.224 24.5498 349.719 25.268 350.73 26.7044C351.546 27.8444 351.949 29.2552 351.949 30.931ZM349.046 30.1586C349.069 29.2723 348.868 28.5085 348.456 27.8644C347.928 27.035 347.123 26.6189 346.034 26.6189C345.041 26.6189 344.231 27.0236 343.613 27.8359C343.107 28.4828 342.808 29.2552 342.71 30.1586H349.046Z" fill="#3698F3"/>
<path d="M155.769 89.7862H149.175L145.563 78.6455H133.007L129.566 89.7862H123.146L135.585 51.8584H143.269L155.769 89.7862ZM144.474 73.9716L141.207 64.0678C140.861 63.0561 140.214 60.6735 139.259 56.9229H139.142C138.762 58.536 138.149 60.9185 137.307 64.0678L134.099 73.9716H144.474Z" fill="#3698F3"/>
<path d="M187.759 75.7757C187.759 80.4269 186.479 84.1034 183.918 86.8023C181.624 89.2049 178.775 90.4047 175.375 90.4047C171.705 90.4047 169.068 89.1108 167.463 86.523H167.346V100.93H161.156V71.4408C161.156 68.5167 161.077 65.5157 160.926 62.4377H166.371L166.716 66.7725H166.832C168.897 63.5064 172.03 61.8762 176.235 61.8762C179.522 61.8762 182.266 63.1502 184.461 65.7009C186.662 68.2545 187.759 71.6118 187.759 75.7757ZM181.453 75.998C181.453 73.3361 180.843 71.1416 179.617 69.4145C178.279 67.6133 176.481 66.7127 174.228 66.7127C172.701 66.7127 171.313 67.2143 170.073 68.2032C168.83 69.2007 168.017 70.5032 167.637 72.1163C167.445 72.8687 167.349 73.4843 167.349 73.9688V78.5288C167.349 80.5181 167.971 82.1967 169.213 83.5676C170.456 84.9384 172.071 85.6224 174.057 85.6224C176.388 85.6224 178.203 84.7389 179.501 82.9776C180.802 81.2135 181.453 78.8879 181.453 75.998Z" fill="#3698F3"/>
<path d="M219.807 75.7757C219.807 80.4269 218.527 84.1034 215.963 86.8023C213.672 89.2049 210.823 90.4047 207.423 90.4047C203.753 90.4047 201.116 89.1108 199.513 86.523H199.397V100.93H193.206V71.4408C193.206 68.5167 193.128 65.5157 192.977 62.4377H198.421L198.767 66.7725H198.883C200.945 63.5064 204.078 61.8762 208.285 61.8762C211.569 61.8762 214.313 63.1502 216.514 65.7009C218.707 68.2545 219.807 71.6118 219.807 75.7757ZM213.5 75.998C213.5 73.3361 212.888 71.1416 211.662 69.4145C210.324 67.6133 208.532 66.7127 206.276 66.7127C204.746 66.7127 203.361 67.2143 202.118 68.2032C200.875 69.2007 200.065 70.5032 199.685 72.1163C199.496 72.8687 199.397 73.4843 199.397 73.9688V78.5288C199.397 80.5181 200.019 82.1967 201.256 83.5676C202.498 84.9356 204.113 85.6224 206.105 85.6224C208.436 85.6224 210.251 84.7389 211.549 82.9776C212.85 81.2135 213.5 78.8879 213.5 75.998Z" fill="#3698F3"/>
<path d="M255.639 79.1501C255.639 82.3763 254.498 85.0011 252.207 87.0275C249.689 89.2419 246.185 90.3477 241.681 90.3477C237.523 90.3477 234.189 89.5611 231.666 87.9851L233.1 82.9206C235.818 84.5337 238.8 85.3431 242.05 85.3431C244.381 85.3431 246.196 84.8244 247.5 83.7927C248.798 82.761 249.445 81.3759 249.445 79.6488C249.445 78.1098 248.911 76.8131 247.84 75.7614C246.774 74.7098 244.994 73.7322 242.508 72.8288C235.743 70.3521 232.363 66.7241 232.363 61.9532C232.363 58.8353 233.548 56.2788 235.92 54.2895C238.284 52.2974 241.437 51.3027 245.38 51.3027C248.897 51.3027 251.818 51.9041 254.149 53.1039L252.602 58.0572C250.424 56.8944 247.962 56.313 245.206 56.313C243.028 56.313 241.327 56.8403 240.107 57.8891C239.076 58.8267 238.559 59.9696 238.559 61.3233C238.559 62.8224 239.149 64.0622 240.334 65.0369C241.364 65.9375 243.237 66.9122 245.955 67.9638C249.28 69.2777 251.722 70.8138 253.293 72.5751C254.858 74.3307 255.639 76.5281 255.639 79.1501Z" fill="#3698F3"/>
<path d="M276.107 66.9976H269.284V80.2758C269.284 83.653 270.486 85.3402 272.896 85.3402C274.002 85.3402 274.92 85.2462 275.646 85.0581L275.817 89.6722C274.597 90.1197 272.992 90.3448 271.003 90.3448C268.558 90.3448 266.647 89.6124 265.268 88.1503C263.894 86.6854 263.203 84.2287 263.203 80.7774V66.9919H259.138V62.4319H263.203V57.4245L269.284 55.6233V62.4319H276.107V66.9976Z" fill="#3698F3"/>
<path d="M306.895 75.8869C306.895 80.0906 305.67 83.542 303.225 86.2409C300.661 89.0197 297.258 90.4048 293.016 90.4048C288.927 90.4048 285.672 89.0738 283.245 86.4119C280.817 83.75 279.604 80.3899 279.604 76.34C279.604 72.1021 280.852 68.6308 283.358 65.9319C285.858 63.2301 289.232 61.8792 293.475 61.8792C297.563 61.8792 300.853 63.2101 303.335 65.8749C305.711 68.4598 306.895 71.7972 306.895 75.8869ZM300.472 76.0835C300.472 73.5613 299.924 71.3982 298.811 69.5941C297.514 67.411 295.658 66.3223 293.254 66.3223C290.765 66.3223 288.875 67.4139 287.577 69.5941C286.465 71.401 285.916 73.5983 285.916 76.1975C285.916 78.7198 286.465 80.8829 287.577 82.6841C288.916 84.8672 290.786 85.9559 293.199 85.9559C295.562 85.9559 297.418 84.8444 298.756 82.6271C299.897 80.7889 300.472 78.6029 300.472 76.0835Z" fill="#3698F3"/>
<path d="M327.018 67.7814C326.405 67.6703 325.752 67.6133 325.067 67.6133C322.889 67.6133 321.205 68.4198 320.02 70.0358C318.989 71.4608 318.472 73.262 318.472 75.4365V89.7863H312.285L312.343 71.0504C312.343 67.8983 312.264 65.0283 312.11 62.4405H317.503L317.729 67.6731H317.9C318.554 65.8748 319.585 64.427 320.996 63.3411C322.375 62.3636 323.865 61.8762 325.47 61.8762C326.042 61.8762 326.559 61.9161 327.018 61.9874V67.7814Z" fill="#3698F3"/>
<path d="M354.705 74.8181C354.705 75.9068 354.632 76.8245 354.478 77.574H335.906C335.979 80.2758 336.876 82.3421 338.601 83.7671C340.166 85.041 342.19 85.6794 344.675 85.6794C347.425 85.6794 349.934 85.2491 352.19 84.3855L353.16 88.6035C350.523 89.7321 347.411 90.2936 343.819 90.2936C339.498 90.2936 336.106 89.0453 333.638 86.5515C331.176 84.0578 329.942 80.709 329.942 76.5081C329.942 72.3842 331.089 68.9499 333.386 66.2111C335.79 63.287 339.039 61.825 343.128 61.825C347.143 61.825 350.184 63.287 352.248 66.2111C353.883 68.5338 354.705 71.4066 354.705 74.8181ZM348.801 73.242C348.842 71.4408 348.438 69.8847 347.599 68.5709C346.528 66.8808 344.881 66.0372 342.666 66.0372C340.642 66.0372 338.996 66.8609 337.738 68.5139C336.708 69.8278 336.095 71.4038 335.906 73.2392H348.801V73.242Z" fill="#3698F3"/>
</svg>
