<svg width="22" height="22" viewBox="0 0 22 22" fill="none" xmlns="http://www.w3.org/2000/svg">
<g clip-path="url(#clip0_4028_339)">
<path d="M7 21H15C17.828 21 19.243 21 20.121 20.122C21 19.242 21 17.829 21 15V14C21 11.172 21 9.758 20.121 8.87895C19.353 8.11095 18.175 8.01395 16 8.00195M6 8.00195C3.825 8.01395 2.647 8.11095 1.879 8.87895C1 9.758 1 11.172 1 14V15C1 17.829 1 19.243 1.879 20.122C2.179 20.422 2.541 20.619 3 20.749" stroke="#39B7FF" stroke-width="2" stroke-linecap="round"/>
<path d="M11 1V14M11 14L8 10.5M11 14L14 10.5" stroke="#39B7FF" stroke-width="2" stroke-linecap="round" stroke-linejoin="round"/>
</g>
<defs>
<clipPath id="clip0_4028_339">
<rect width="22" height="22" fill="white"/>
</clipPath>
</defs>
</svg>
