<svg width="35" height="37" viewBox="0 0 35 37" fill="none" xmlns="http://www.w3.org/2000/svg">
<path opacity="0.15" d="M9.42773 35.4834C9.42773 35.8315 10.5801 36.1653 12.6313 36.4115C14.6824 36.6576 17.4644 36.7959 20.3652 36.7959C23.266 36.7959 26.048 36.6576 28.0992 36.4115C30.1504 36.1653 31.3027 35.8315 31.3027 35.4834C31.3027 35.1353 30.1504 34.8015 28.0992 34.5553C26.048 34.3092 23.266 34.1709 20.3652 34.1709C17.4644 34.1709 14.6824 34.3092 12.6313 34.5553C10.5801 34.8015 9.42773 35.1353 9.42773 35.4834Z" fill="#DEF0FF"/>
<path d="M28.6418 12.5231L28.5281 15.3756L18.7106 5.54934C18.3278 5.1444 17.8092 4.89467 17.254 4.84786C16.6987 4.80105 16.1457 4.96044 15.7006 5.29559C15.4629 5.48798 15.2684 5.72824 15.1297 6.00075C14.991 6.27325 14.9112 6.5719 14.8955 6.87727C14.8799 7.18264 14.9286 7.48789 15.0387 7.77317C15.1487 8.05845 15.3176 8.31737 15.5343 8.53309L14.1431 7.14184C13.7184 6.69971 13.1419 6.43492 12.5298 6.40083C11.9177 6.36673 11.3155 6.56586 10.8443 6.95809C10.609 7.17033 10.4194 7.42822 10.2869 7.71606C10.1545 8.0039 10.0819 8.31568 10.0737 8.63243C10.0655 8.94919 10.1219 9.2643 10.2393 9.5586C10.3567 9.85289 10.5328 10.1202 10.7568 10.3443L10.7393 10.3006C10.4041 9.95864 9.96715 9.73458 9.49386 9.66201C9.02058 9.58944 8.53653 9.67227 8.1143 9.89809C7.82185 10.0647 7.5718 10.2966 7.38361 10.5757C7.19542 10.8547 7.07417 11.1735 7.02929 11.5071C6.98442 11.8407 7.01713 12.1801 7.12489 12.499C7.23264 12.8179 7.41253 13.1076 7.65056 13.3456L10.2756 15.9706C10.0864 15.7817 9.85979 15.6345 9.61032 15.5384C9.36086 15.4423 9.09405 15.3995 8.82705 15.4127C8.56004 15.4258 8.29875 15.4948 8.05997 15.615C7.82119 15.7352 7.61019 15.904 7.44055 16.1106C7.15077 16.499 7.01227 16.9796 7.05092 17.4627C7.08956 17.9457 7.30271 18.3982 7.65056 18.7356L18.6143 29.7956C19.3821 30.5671 20.2956 31.1783 21.3016 31.5937C22.3077 32.0092 23.3862 32.2206 24.4747 32.2157C25.5631 32.2109 26.6397 31.9898 27.642 31.5653C28.6442 31.1408 29.5522 30.5214 30.3131 29.7431C31.5134 28.4904 32.4434 27.0044 33.0455 25.3772C33.6476 23.7501 33.9088 22.0166 33.8131 20.2843L33.4893 9.67059C33.4716 9.43228 33.3643 9.20953 33.1889 9.04718C33.0136 8.88483 32.7833 8.79493 32.5443 8.79559C31.5383 8.79241 30.5701 9.17874 29.8426 9.87361C29.1151 10.5685 28.6848 11.518 28.6418 12.5231Z" fill="white"/>
<path d="M28.5296 15.3756L18.7121 5.54934C18.3294 5.1444 17.8108 4.89467 17.2556 4.84786C16.7003 4.80105 16.1473 4.96044 15.7021 5.29559C15.4808 5.47536 15.2971 5.69697 15.1615 5.94776C15.0259 6.19854 14.9411 6.4736 14.9118 6.75719C14.8826 7.04079 14.9095 7.32737 14.9911 7.60056C15.0726 7.87375 15.2072 8.12819 15.3871 8.34934C15.476 8.22685 15.5821 8.11781 15.7021 8.02559C16.1452 7.68826 16.697 7.52589 17.2522 7.56947C17.8074 7.61305 18.3271 7.85951 18.7121 8.26184L27.1646 16.7231L28.5296 15.3756ZM33.5696 12.4006L33.4909 9.67059C33.4732 9.43228 33.3658 9.20953 33.1905 9.04718C33.0152 8.88483 32.7848 8.79493 32.5459 8.79559C31.537 8.79494 30.5672 9.1859 29.8409 9.88611C29.1146 10.5863 28.6884 11.5411 28.6521 12.5493L28.5384 15.4018L28.6521 15.2793C28.6906 14.2718 29.1174 13.3183 29.8433 12.6186C30.5691 11.9188 31.5376 11.5271 32.5459 11.5256C32.7935 11.523 33.0336 11.6102 33.2219 11.7711C33.4101 11.9319 33.5337 12.1556 33.5696 12.4006Z" fill="#DEF0FF"/>
<path d="M10.1618 15.9531L15.4643 21.2468M10.7568 10.3531L18.5531 18.1493M15.5343 8.55059L21.8431 14.8681M28.6418 12.5231L28.5281 15.3756L18.7106 5.54934C18.3278 5.1444 17.8092 4.89467 17.254 4.84786C16.6987 4.80105 16.1457 4.96044 15.7006 5.29559C15.4629 5.48798 15.2684 5.72824 15.1297 6.00075C14.991 6.27325 14.9112 6.5719 14.8955 6.87727C14.8799 7.18264 14.9286 7.48789 15.0387 7.77317C15.1487 8.05845 15.3176 8.31737 15.5343 8.53309L14.1431 7.14184C13.7184 6.69971 13.1419 6.43492 12.5298 6.40083C11.9177 6.36673 11.3155 6.56586 10.8443 6.95809C10.609 7.17033 10.4194 7.42822 10.2869 7.71606C10.1545 8.0039 10.0819 8.31568 10.0737 8.63243C10.0655 8.94919 10.1219 9.2643 10.2393 9.5586C10.3567 9.85289 10.5328 10.1202 10.7568 10.3443L10.7393 10.3006C10.4041 9.95864 9.96715 9.73458 9.49386 9.66201C9.02058 9.58944 8.53653 9.67227 8.1143 9.89809C7.82185 10.0647 7.5718 10.2966 7.38361 10.5757C7.19542 10.8548 7.07417 11.1735 7.02929 11.5071C6.98442 11.8407 7.01713 12.1801 7.12489 12.499C7.23264 12.8179 7.41253 13.1076 7.65056 13.3456L10.2756 15.9706C10.0864 15.7817 9.85979 15.6345 9.61032 15.5384C9.36086 15.4423 9.09405 15.3995 8.82705 15.4127C8.56004 15.4258 8.29875 15.4948 8.05997 15.615C7.82119 15.7352 7.61019 15.904 7.44055 16.1106C7.15077 16.499 7.01227 16.9796 7.05092 17.4627C7.08956 17.9457 7.30271 18.3982 7.65056 18.7356L18.6143 29.7956C19.3821 30.5671 20.2956 31.1783 21.3016 31.5937C22.3077 32.0092 23.3862 32.2206 24.4747 32.2157C25.5631 32.2109 26.6397 31.9898 27.642 31.5653C28.6442 31.1408 29.5522 30.5214 30.3131 29.7431C31.5134 28.4904 32.4434 27.0044 33.0455 25.3773C33.6476 23.7501 33.9088 22.0166 33.8131 20.2843L33.4893 9.67059C33.4716 9.43228 33.3643 9.20953 33.1889 9.04718C33.0136 8.88483 32.7833 8.79493 32.5443 8.79559C31.5383 8.79241 30.5701 9.17874 29.8426 9.87361C29.1151 10.5685 28.6848 11.518 28.6418 12.5231Z" stroke="#0A8ED9" stroke-linecap="round" stroke-linejoin="round"/>
<path d="M28.5284 15.3763L25.4047 18.5C24.9166 18.9876 24.5293 19.5666 24.2651 20.2039C24.0009 20.8413 23.8649 21.5244 23.8649 22.2144C23.8649 22.9043 24.0009 23.5875 24.2651 24.2248C24.5293 24.8622 24.9166 25.4412 25.4047 25.9288M20.4609 3.33625C21.8513 3.57369 23.1532 4.1778 24.2322 5.08625C25.3014 6.03576 26.1139 7.23953 26.5947 8.58625M20.9597 1C22.6731 1.27567 24.2809 2.00704 25.6147 3.1175C26.9372 4.28399 27.9402 5.76878 28.5284 7.43125M3.43343 16.8812C3.29488 18.2806 3.53356 19.6916 4.12468 20.9675C4.76575 22.2438 5.72009 23.3366 6.89843 24.1438M1.04468 16.7588C0.877856 18.4897 1.1801 20.2336 1.91968 21.8075C2.71195 23.3837 3.88858 24.7349 5.34093 25.7363" stroke="#0A8ED9" stroke-linecap="round" stroke-linejoin="round"/>
</svg>
