<svg width="556" height="438" viewBox="0 0 556 438" fill="none" xmlns="http://www.w3.org/2000/svg">
<g clip-path="url(#clip0_4020_1076)">
<g opacity="0.3">
<g opacity="0.8" filter="url(#filter0_b_4020_1076)">
<path d="M356.747 19.2123L232.719 91.401C222.333 97.449 217.14 100.473 213.052 104.536C209.413 108.147 206.419 112.353 204.199 116.973C201.701 122.169 200.552 128.084 198.264 139.871L175.35 257.913C170.551 282.634 168.152 294.995 171.128 305.397C173.757 314.519 179.181 322.579 186.689 328.409C195.184 335.049 207.551 337.447 232.241 342.235L444.376 383.37C469.066 388.158 481.41 390.551 491.774 387.568C500.909 384.958 508.983 379.524 514.838 372.046C521.486 363.533 523.881 351.194 528.671 326.517L551.603 208.386C553.891 196.6 555.035 190.707 554.666 184.932C554.339 179.828 553.142 174.816 551.126 170.115C548.837 164.792 545.178 160.029 537.783 150.556L449.777 37.2975C436.1 19.6898 429.242 10.8706 420.498 6.33508C412.798 2.3227 404.097 0.635496 395.433 1.47474C385.662 2.4098 376.084 7.97571 356.953 19.0924M356.747 19.2123L356.953 19.0924M356.747 19.2123C356.816 19.1723 356.884 19.1323 356.953 19.0924" stroke="url(#paint0_linear_4020_1076)" stroke-width="2" stroke-linecap="round" stroke-linejoin="round"/>
<path d="M356.747 19.2123L232.719 91.401C222.333 97.449 217.14 100.473 213.052 104.536C209.413 108.147 206.419 112.353 204.199 116.973C201.701 122.169 200.552 128.084 198.264 139.871L175.35 257.913C170.551 282.634 168.152 294.995 171.128 305.397C173.757 314.519 179.181 322.579 186.689 328.409C195.184 335.049 207.551 337.447 232.241 342.235L444.376 383.37C469.066 388.158 481.41 390.551 491.774 387.568C500.909 384.958 508.983 379.524 514.838 372.046C521.486 363.533 523.881 351.194 528.671 326.517L551.603 208.386C553.891 196.6 555.035 190.707 554.666 184.932C554.339 179.828 553.142 174.816 551.126 170.115C548.837 164.792 545.178 160.029 537.783 150.556L449.777 37.2975C436.1 19.6898 429.242 10.8706 420.498 6.33508C412.798 2.3227 404.097 0.635496 395.433 1.47474C385.662 2.4098 376.084 7.97571 356.953 19.0924M356.747 19.2123L356.953 19.0924M356.747 19.2123C356.816 19.1723 356.884 19.1323 356.953 19.0924" stroke="#3698F3" stroke-width="2" stroke-linecap="round" stroke-linejoin="round" style="mix-blend-mode:luminosity"/>
<path d="M356.747 19.2123L232.719 91.401C222.333 97.449 217.14 100.473 213.052 104.536C209.413 108.147 206.419 112.353 204.199 116.973C201.701 122.169 200.552 128.084 198.264 139.871L175.35 257.913C170.551 282.634 168.152 294.995 171.128 305.397C173.757 314.519 179.181 322.579 186.689 328.409C195.184 335.049 207.551 337.447 232.241 342.235L444.376 383.37C469.066 388.158 481.41 390.551 491.774 387.568C500.909 384.958 508.983 379.524 514.838 372.046C521.486 363.533 523.881 351.194 528.671 326.517L551.603 208.386C553.891 196.6 555.035 190.707 554.666 184.932C554.339 179.828 553.142 174.816 551.126 170.115C548.837 164.792 545.178 160.029 537.783 150.556L449.777 37.2975C436.1 19.6898 429.242 10.8706 420.498 6.33508C412.798 2.3227 404.097 0.635496 395.433 1.47474C385.662 2.4098 376.084 7.97571 356.953 19.0924M356.747 19.2123L356.953 19.0924M356.747 19.2123C356.816 19.1723 356.884 19.1323 356.953 19.0924" stroke="#3698F3" stroke-width="2" stroke-linecap="round" stroke-linejoin="round" style="mix-blend-mode:darken"/>
</g>
<g opacity="0.8" filter="url(#filter1_b_4020_1076)">
<path d="M198.264 139.871L175.35 257.913C170.551 282.634 168.152 294.995 171.128 305.397C173.757 314.519 179.181 322.579 186.689 328.409C195.184 335.049 207.551 337.447 232.241 342.235L444.376 383.37C469.066 388.158 481.41 390.551 491.774 387.568C500.909 384.958 508.983 379.524 514.838 372.046C521.486 363.533 523.881 351.194 528.671 326.517L551.603 208.386C553.891 196.6 555.035 190.707 554.666 184.932C554.339 179.828 553.142 174.816 551.126 170.115C548.837 164.792 545.178 160.029 537.783 150.556L449.777 37.2975C436.1 19.6898 429.242 10.8706 420.498 6.33508C412.798 2.3227 404.097 0.635496 395.433 1.47474C385.662 2.4098 376.084 7.97571 356.953 19.0924L356.747 19.2123L232.719 91.401C222.333 97.449 217.14 100.473 213.052 104.536C209.413 108.147 206.419 112.353 204.199 116.973C201.701 122.169 200.552 128.084 198.264 139.871Z" fill="url(#paint1_linear_4020_1076)"/>
<path d="M198.264 139.871L175.35 257.913C170.551 282.634 168.152 294.995 171.128 305.397C173.757 314.519 179.181 322.579 186.689 328.409C195.184 335.049 207.551 337.447 232.241 342.235L444.376 383.37C469.066 388.158 481.41 390.551 491.774 387.568C500.909 384.958 508.983 379.524 514.838 372.046C521.486 363.533 523.881 351.194 528.671 326.517L551.603 208.386C553.891 196.6 555.035 190.707 554.666 184.932C554.339 179.828 553.142 174.816 551.126 170.115C548.837 164.792 545.178 160.029 537.783 150.556L449.777 37.2975C436.1 19.6898 429.242 10.8706 420.498 6.33508C412.798 2.3227 404.097 0.635496 395.433 1.47474C385.662 2.4098 376.084 7.97571 356.953 19.0924L356.747 19.2123L232.719 91.401C222.333 97.449 217.14 100.473 213.052 104.536C209.413 108.147 206.419 112.353 204.199 116.973C201.701 122.169 200.552 128.084 198.264 139.871Z" fill="#3698F3" style="mix-blend-mode:luminosity"/>
<path d="M198.264 139.871L175.35 257.913C170.551 282.634 168.152 294.995 171.128 305.397C173.757 314.519 179.181 322.579 186.689 328.409C195.184 335.049 207.551 337.447 232.241 342.235L444.376 383.37C469.066 388.158 481.41 390.551 491.774 387.568C500.909 384.958 508.983 379.524 514.838 372.046C521.486 363.533 523.881 351.194 528.671 326.517L551.603 208.386C553.891 196.6 555.035 190.707 554.666 184.932C554.339 179.828 553.142 174.816 551.126 170.115C548.837 164.792 545.178 160.029 537.783 150.556L449.777 37.2975C436.1 19.6898 429.242 10.8706 420.498 6.33508C412.798 2.3227 404.097 0.635496 395.433 1.47474C385.662 2.4098 376.084 7.97571 356.953 19.0924L356.747 19.2123L232.719 91.401C222.333 97.449 217.14 100.473 213.052 104.536C209.413 108.147 206.419 112.353 204.199 116.973C201.701 122.169 200.552 128.084 198.264 139.871Z" fill="#3698F3" style="mix-blend-mode:darken"/>
</g>
<g opacity="0.8" filter="url(#filter2_bif_4020_1076)">
<path d="M235.344 156.521L217.646 247.691C213.94 266.784 212.086 276.331 214.385 284.365C216.416 291.41 220.605 297.635 226.403 302.138C232.965 307.267 242.516 309.119 261.585 312.817L425.427 344.587C444.496 348.285 454.031 350.134 462.035 347.83C469.09 345.814 475.326 341.617 479.848 335.841C484.983 329.266 486.833 319.736 490.532 300.677L508.243 209.439C510.01 200.336 510.894 195.784 510.609 191.325C510.357 187.382 509.432 183.512 507.875 179.88C506.107 175.77 503.282 172.091 497.569 164.774L429.598 77.2995C419.035 63.7002 413.738 56.8887 406.985 53.3857C401.038 50.2868 394.318 48.9837 387.626 49.6319C380.079 50.354 372.682 54.6529 357.906 63.2388L357.747 63.3314L261.955 119.086C253.933 123.757 249.923 126.093 246.765 129.231C243.955 132.02 241.642 135.268 239.927 138.836C237.998 142.849 237.111 147.418 235.344 156.521Z" fill="url(#paint2_linear_4020_1076)"/>
<path d="M235.344 156.521L217.646 247.691C213.94 266.784 212.086 276.331 214.385 284.365C216.416 291.41 220.605 297.635 226.403 302.138C232.965 307.267 242.516 309.119 261.585 312.817L425.427 344.587C444.496 348.285 454.031 350.134 462.035 347.83C469.09 345.814 475.326 341.617 479.848 335.841C484.983 329.266 486.833 319.736 490.532 300.677L508.243 209.439C510.01 200.336 510.894 195.784 510.609 191.325C510.357 187.382 509.432 183.512 507.875 179.88C506.107 175.77 503.282 172.091 497.569 164.774L429.598 77.2995C419.035 63.7002 413.738 56.8887 406.985 53.3857C401.038 50.2868 394.318 48.9837 387.626 49.6319C380.079 50.354 372.682 54.6529 357.906 63.2388L357.747 63.3314L261.955 119.086C253.933 123.757 249.923 126.093 246.765 129.231C243.955 132.02 241.642 135.268 239.927 138.836C237.998 142.849 237.111 147.418 235.344 156.521Z" fill="#3698F3" style="mix-blend-mode:luminosity"/>
<path d="M235.344 156.521L217.646 247.691C213.94 266.784 212.086 276.331 214.385 284.365C216.416 291.41 220.605 297.635 226.403 302.138C232.965 307.267 242.516 309.119 261.585 312.817L425.427 344.587C444.496 348.285 454.031 350.134 462.035 347.83C469.09 345.814 475.326 341.617 479.848 335.841C484.983 329.266 486.833 319.736 490.532 300.677L508.243 209.439C510.01 200.336 510.894 195.784 510.609 191.325C510.357 187.382 509.432 183.512 507.875 179.88C506.107 175.77 503.282 172.091 497.569 164.774L429.598 77.2995C419.035 63.7002 413.738 56.8887 406.985 53.3857C401.038 50.2868 394.318 48.9837 387.626 49.6319C380.079 50.354 372.682 54.6529 357.906 63.2388L357.747 63.3314L261.955 119.086C253.933 123.757 249.923 126.093 246.765 129.231C243.955 132.02 241.642 135.268 239.927 138.836C237.998 142.849 237.111 147.418 235.344 156.521Z" fill="#3698F3" style="mix-blend-mode:darken"/>
</g>
<g opacity="0.8">
<g opacity="0.8" filter="url(#filter3_b_4020_1076)">
<path d="M0.106491 227.723L0.106491 359.41C0.106491 386.988 0.10649 400.777 5.47719 411.341C10.2073 420.599 17.7214 428.134 27.0093 432.837C37.5289 438.205 51.3252 438.205 78.8685 438.205L315.524 438.205C343.067 438.205 356.839 438.205 367.359 432.837C376.635 428.127 384.181 420.602 388.915 411.341C394.286 400.802 394.286 387.038 394.286 359.508L394.286 227.723C394.286 214.574 394.286 208 392.685 201.868C391.268 196.449 388.935 191.311 385.787 186.676C382.214 181.431 377.287 177.073 367.359 168.43L249.105 65.0108C230.726 48.9316 221.512 40.8797 211.165 37.8264C202.05 35.1178 192.343 35.1178 183.203 37.8264C172.893 40.8688 163.757 48.8496 145.509 64.7896L145.312 64.9615L27.0339 168.43C17.1301 177.097 12.1782 181.431 8.63063 186.651C5.47226 191.292 3.13094 196.439 1.70785 201.868C0.106492 207.975 0.106491 214.574 0.106491 227.723Z" fill="#8DBBED" fill-opacity="0.4" style="mix-blend-mode:darken"/>
</g>
</g>
</g>
</g>
<defs>
<filter id="filter0_b_4020_1076" x="-21.1797" y="-189.735" width="766.914" height="769.617" filterUnits="userSpaceOnUse" color-interpolation-filters="sRGB">
<feFlood flood-opacity="0" result="BackgroundImageFix"/>
<feGaussianBlur in="BackgroundImageFix" stdDeviation="95"/>
<feComposite in2="SourceAlpha" operator="in" result="effect1_backgroundBlur_4020_1076"/>
<feBlend mode="normal" in="SourceGraphic" in2="effect1_backgroundBlur_4020_1076" result="shape"/>
</filter>
<filter id="filter1_b_4020_1076" x="-20.1794" y="-188.735" width="764.914" height="767.617" filterUnits="userSpaceOnUse" color-interpolation-filters="sRGB">
<feFlood flood-opacity="0" result="BackgroundImageFix"/>
<feGaussianBlur in="BackgroundImageFix" stdDeviation="95"/>
<feComposite in2="SourceAlpha" operator="in" result="effect1_backgroundBlur_4020_1076"/>
<feBlend mode="normal" in="SourceGraphic" in2="effect1_backgroundBlur_4020_1076" result="shape"/>
</filter>
<filter id="filter2_bif_4020_1076" x="23.3752" y="-140.53" width="677.287" height="679.375" filterUnits="userSpaceOnUse" color-interpolation-filters="sRGB">
<feFlood flood-opacity="0" result="BackgroundImageFix"/>
<feGaussianBlur in="BackgroundImageFix" stdDeviation="95"/>
<feComposite in2="SourceAlpha" operator="in" result="effect1_backgroundBlur_4020_1076"/>
<feBlend mode="normal" in="SourceGraphic" in2="effect1_backgroundBlur_4020_1076" result="shape"/>
<feColorMatrix in="SourceAlpha" type="matrix" values="0 0 0 0 0 0 0 0 0 0 0 0 0 0 0 0 0 0 127 0" result="hardAlpha"/>
<feOffset dx="6" dy="4"/>
<feGaussianBlur stdDeviation="12"/>
<feComposite in2="hardAlpha" operator="arithmetic" k2="-1" k3="1"/>
<feColorMatrix type="matrix" values="0 0 0 0 0 0 0 0 0 0 0 0 0 0 0 0 0 0 0.06 0"/>
<feBlend mode="normal" in2="shape" result="effect2_innerShadow_4020_1076"/>
<feGaussianBlur stdDeviation="0.5" result="effect3_foregroundBlur_4020_1076"/>
</filter>
<filter id="filter3_b_4020_1076" x="-291.962" y="-254.205" width="976.248" height="982.41" filterUnits="userSpaceOnUse" color-interpolation-filters="sRGB">
<feFlood flood-opacity="0" result="BackgroundImageFix"/>
<feGaussianBlur in="BackgroundImageFix" stdDeviation="145"/>
<feComposite in2="SourceAlpha" operator="in" result="effect1_backgroundBlur_4020_1076"/>
<feBlend mode="normal" in="SourceGraphic" in2="effect1_backgroundBlur_4020_1076" result="shape"/>
</filter>
<linearGradient id="paint0_linear_4020_1076" x1="408.33" y1="2.08609" x2="338.381" y2="362.816" gradientUnits="userSpaceOnUse">
<stop stop-color="#64A7FE"/>
<stop offset="1" stop-color="#0A8ED9"/>
</linearGradient>
<linearGradient id="paint1_linear_4020_1076" x1="408.33" y1="2.08609" x2="338.381" y2="362.816" gradientUnits="userSpaceOnUse">
<stop stop-color="#64A7FE"/>
<stop offset="1" stop-color="#0A8ED9"/>
</linearGradient>
<linearGradient id="paint2_linear_4020_1076" x1="397.587" y1="50.104" x2="343.562" y2="328.713" gradientUnits="userSpaceOnUse">
<stop stop-color="#64A7FE"/>
<stop offset="1" stop-color="#0A8ED9"/>
</linearGradient>
<clipPath id="clip0_4020_1076">
<rect width="556" height="438" fill="white"/>
</clipPath>
</defs>
</svg>
