<svg width="40" height="41" fill="none" xmlns="http://www.w3.org/2000/svg"><path d="M.541 19.305v13.096c0 2.743 0 4.114.534 5.165a4.88 4.88 0 002.14 2.137c1.046.534 2.417.534 5.155.534h23.522c2.738 0 4.106 0 5.152-.534a4.898 4.898 0 002.143-2.137c.534-1.048.534-2.417.534-5.155V19.305c0-1.307 0-1.961-.16-2.571a4.89 4.89 0 00-.685-1.51c-.355-.523-.845-.956-1.832-1.815L25.29 3.124c-1.826-1.6-2.742-2.4-3.77-2.704a4.88 4.88 0 00-2.78 0c-1.025.303-1.933 1.097-3.747 2.682l-.02.017-11.756 10.29c-.984.861-1.476 1.292-1.829 1.812A4.897 4.897 0 00.7 16.734c-.159.607-.159 1.264-.159 2.571z" fill="#53A6EA" style="mix-blend-mode:darken" opacity=".8"/></svg>