<svg width="595" height="1165" fill="none" xmlns="http://www.w3.org/2000/svg"><g clip-path="url(#clip0_4036_3115)"><path d="M59.379 1134.43v60.82h-270.793v-60.82H59.379z" fill="#E6F0F5"/><path d="M207.029 498.559v118.157h-520.665V498.559h520.665z" fill="#BBDCEF"/><path d="M238.408 524.514v79.417h-35.253v-79.417h35.253z" fill="#BBDCEF"/><path d="M259.715 538.461v50.75h-22.469v-50.75h22.469z" fill="#BBDCEF"/><path d="M278.311 544.659v38.74h-21.307v-38.74h21.307zm-93.75 235.152v118.157h-520.666V779.811h520.666z" fill="#BBDCEF"/><path d="M212.84 805.379v79.417h-35.254v-79.417h35.254z" fill="#BBDCEF"/><path d="M234.146 819.712v50.75h-22.469v-50.75h22.469z" fill="#BBDCEF"/><path d="M252.742 825.911v38.74h-21.307v-38.74h21.307z" fill="#BBDCEF"/><path d="M349.98 951.04v118.16h-520.665V951.04H349.98z" fill="#E6F0F5"/><path d="M382.135 977v79.41h-35.254V977h35.254z" fill="#E6F0F5"/><path d="M403.055 990.94v50.75h-22.47v-50.75h22.47z" fill="#E6F0F5"/><path d="M422.037 997.14v38.74H400.73v-38.74h21.307zm-12.785-698.867V416.43h-520.666V298.273h520.666z" fill="#E6F0F5"/><path d="M441.406 323.841v79.417h-35.253v-79.417h35.253z" fill="#E6F0F5"/><path d="M462.326 338.174v50.75h-22.469v-50.75h22.469z" fill="#E6F0F5"/><path d="M481.309 344.373v38.74h-21.307v-38.74h21.307z" fill="#E6F0F5"/><path d="M332.159 1165.27l68.57-61.21-68.57-56.94H-188.12v118.15h520.279zM97.008 409.069v78.642h-213.07v-78.642h213.07zm-79.805-104.21v78.642H-319.06v-78.642H17.203zm313.02-110.41v78.643h-602.02v-78.643h602.02zm50.361-125.517v69.732H-271.41V68.932h651.994zM29.988-24.431V36.39h-270.792v-60.82H29.988z" fill="#BBDCEF"/><path d="M368.575 898.742l-554.369 19.37s-42.227 1.55-30.992-39.902c172.393-27.118 466.43-32.154 585.749-15.496v36.028h-.388z" fill="#8DBBED"/><path d="M368.576 944.07l-567.541-20.147-10.072-43.388s294.811-24.794 577.226 11.622v51.913h.387z" fill="#196C9B"/><path d="M368.576 943.68v9.3c-46.488 5.81-299.073 34.48-585.749-1.16-6.198-37.194 0-73.609 0-73.609s306.821 32.929 401.347 45.325C260.879 934 341.071 941.36 368.576 943.68z" fill="#53A6EA"/><path d="M187.271 269.605v54.236h-19.757v-54.236h19.757zm-22.082-6.973v76.317H97.782v-76.317h67.407z" fill="#196C9B"/><path d="M98.945 256.433v89.102h-420.716v-89.102H98.945z" fill="#196C9B"/><path d="M101.269 261.469h68.57v6.586h25.956v4.649h11.234v20.92h80.967v13.946h-80.967v20.92h-11.234v5.036h-25.956v6.586h-68.57v9.297h-425.365v-97.237h425.365v9.297zm73.219 60.435h8.91v-4.649h-8.91v4.649zm0-6.586h8.91v-4.649h-8.91v4.649zm0-6.586h8.91v-4.649h-8.91v4.649zm0-6.973h8.91v-4.649h-8.91v4.649zm0-6.586h8.91v-4.649h-8.91v4.649zm0-6.586h8.91v-4.648h-8.91v4.648zm0-6.973h8.91v-4.649h-8.91v4.649zm8.91-11.234h-8.91v4.648h8.91v-4.648zm-56.948-1.55h11.235v-5.811H126.45v5.811zm29.83 2.712h-10.072v5.811h10.072v-5.811zm-29.83 5.811h11.235v-5.811H126.45v5.811zm-8.135-5.811H107.08v5.811h11.235v-5.811zm37.965 8.523h-10.072v5.811h10.072v-5.811zm-37.965 0H107.08v5.811h11.235v-5.811zm37.965 8.135h-10.072v5.811h10.072V288.2zm-29.83 5.811h11.235V288.2H126.45v5.811zm-8.135-5.811H107.08v5.811h11.235V288.2zm8.135 14.334h11.235v-5.811H126.45v5.811zm29.83 2.712h-10.072v5.811h10.072v-5.811zm-29.83 5.423h11.235v-5.811H126.45v5.811zm29.83 2.712h-10.072v5.811h10.072v-5.811zm-37.965 0H107.08v5.811h11.235v-5.811zm37.965 8.523h-10.072v5.811h10.072v-5.811zm-18.595 0H126.45v5.811h11.235v-5.811zm0 13.946v-5.811H126.45v5.811h11.235zm-19.37 0v-5.811H107.08v5.811h11.235zm-435.05.388v6.586h10.46v-6.586h-10.46zm16.271 0v6.586h10.459v-6.586h-10.459zm15.883 0v6.586h10.46v-6.586h-10.46zm15.883 0v6.586h10.46v-6.586h-10.46zm15.884 0v6.586h10.46v-6.586h-10.46zm16.271 0v6.586l10.459-.001v-6.585h-10.459zm15.883 0v6.585h10.46v-6.585h-10.46zm15.883 0v6.585h10.46v-6.585h-10.46zm15.884 0v6.585h10.46v-6.585h-10.46zm15.883 0v6.585h10.46v-6.585h-10.46zm16.271 0v6.585h10.46v-6.585h-10.46zm15.883 0v6.585h10.46v-6.585h-10.46zm15.884 0v6.585h10.46v-6.585h-10.46zm15.883 0v6.585h10.46v-6.585h-10.46zm16.271 0v6.585h10.46v-6.585h-10.46zm15.883 0v6.585h10.46v-6.585h-10.46zm15.884 0v6.585h10.46v-6.585h-10.46zm15.883 0v6.585h10.46v-6.585h-10.46zm16.271 0v6.585h10.46v-6.585h-10.46zm15.883 0v6.585h10.46v-6.585h-10.46zm15.884 0v6.585h10.46v-6.585H2.87zm15.883 0v6.585h10.46v-6.585h-10.46zm16.271 0v6.585h10.46v-6.585h-10.46zm15.883 0v6.585h10.46v-6.585h-10.46zm15.884 0v6.585h10.46v-6.585H66.79zm15.883 0v6.585h10.46v-6.585h-10.46zm-399.409-8.523v6.586h10.46v-6.586h-10.46zm16.271 0v6.586h10.459v-6.586h-10.459zm15.883 0v6.586h10.46v-6.586h-10.46zm15.883 0v6.586h10.46v-6.586h-10.46zm15.884 0v6.586h10.46v-6.586h-10.46zm16.271 0v6.586h10.459v-6.586h-10.459zm15.883 0v6.586h10.46v-6.586h-10.46zm15.883 0v6.586h10.46v-6.586h-10.46zm15.884 0v6.586h10.46v-6.586h-10.46zm15.883 0v6.586h10.46v-6.586h-10.46zm16.271 0v6.586h10.46v-6.586h-10.46zm15.883 0v6.586h10.46v-6.586h-10.46zm15.884 0v6.586h10.46v-6.586h-10.46zm15.883 0v6.586h10.46v-6.586h-10.46zm16.271 0v6.586h10.46v-6.586h-10.46zm15.883 0v6.586h10.46v-6.586h-10.46zm15.884 0v6.586h10.46v-6.586h-10.46zm15.883 0v6.586h10.46v-6.586h-10.46zm16.271 0v6.586h10.46v-6.586h-10.46zm15.883 0v6.586h10.46v-6.586h-10.46zm15.884 0v6.586h10.46v-6.586H2.87zm15.883 0v6.586h10.46v-6.586h-10.46zm16.271 0v6.586h10.46v-6.586h-10.46zm15.883 0v6.586h10.46v-6.586h-10.46zm15.884 0v6.586h10.46v-6.586H66.79zm15.883 0v6.586h10.46v-6.586h-10.46zm-399.409-8.523v6.586h10.46v-6.586h-10.46zm16.271 0v6.586h10.459v-6.586h-10.459zm15.883 0v6.586h10.46v-6.586h-10.46zm15.883 0v6.586h10.46v-6.586h-10.46zm15.884 0v6.586h10.46v-6.586h-10.46zm16.271 0v6.586h10.459v-6.586h-10.459zm15.883 0v6.586h10.46v-6.586h-10.46zm15.883 0v6.586h10.46v-6.586h-10.46zm15.884 0v6.586h10.46v-6.586h-10.46zm15.883 0v6.586h10.46v-6.586h-10.46zm16.271 0v6.586h10.46v-6.586h-10.46zm15.883 0v6.586h10.46v-6.586h-10.46zm15.884 0v6.586h10.46v-6.586h-10.46zm15.883 0v6.586h10.46v-6.586h-10.46zm16.271 0v6.586h10.46v-6.586h-10.46zm15.883 0v6.586h10.46v-6.586h-10.46zm15.884 0v6.586h10.46v-6.586h-10.46zm15.883 0v6.586h10.46v-6.586h-10.46zm16.271 0v6.586h10.46v-6.586h-10.46zm15.883 0v6.586h10.46v-6.586h-10.46zm15.884 0v6.586h10.46v-6.586H2.87zm15.883 0v6.586h10.46v-6.586h-10.46zm16.271 0v6.586h10.46v-6.586h-10.46zm15.883 0v6.586h10.46v-6.586h-10.46zm15.884 0v6.586h10.46v-6.586H66.79zm15.883 0v6.586h10.46v-6.586h-10.46zm-399.409-8.523v6.586h10.46v-6.586h-10.46zm16.271 0v6.586h10.459v-6.586h-10.459zm15.883 0v6.586h10.46v-6.586h-10.46zm15.883 0v6.586h10.46v-6.586h-10.46zm15.884 0v6.586h10.46v-6.586h-10.46zm16.271 0v6.586h10.459v-6.586h-10.459zm15.883 0v6.586h10.46v-6.586h-10.46zm15.883 0v6.586h10.46v-6.586h-10.46zm15.884 0v6.586h10.46v-6.586h-10.46zm15.883 0v6.586h10.46v-6.586h-10.46zm16.271 0v6.586h10.46v-6.586h-10.46zm15.883 0v6.586h10.46v-6.586h-10.46zm15.884 0v6.586h10.46v-6.586h-10.46zm15.883 0v6.586h10.46v-6.586h-10.46zm16.271 0v6.586h10.46v-6.586h-10.46zm15.883 0v6.586h10.46v-6.586h-10.46zm15.884 0v6.586h10.46v-6.586h-10.46zm15.883 0v6.586h10.46v-6.586h-10.46zm16.271 0v6.586h10.46v-6.586h-10.46zm15.883 0v6.586h10.46v-6.586h-10.46zm15.884 0v6.586h10.46v-6.586H2.87zm15.883 0v6.586h10.46v-6.586h-10.46zm16.271 0v6.586h10.46v-6.586h-10.46zm15.883 0v6.586h10.46v-6.586h-10.46zm15.884 0v6.586h10.46v-6.586H66.79zm-383.526-8.522v6.585h10.46v-6.585h-10.46zm16.271 0v6.585h10.459v-6.585h-10.459zm15.883 0v6.585h10.46v-6.585h-10.46zm15.883 0v6.585h10.46v-6.585h-10.46zm15.884 0v6.585h10.46v-6.586l-10.46.001zm16.271-.001v6.586h10.459v-6.586h-10.459zm15.883 0v6.586h10.46v-6.586h-10.46zm15.883 0v6.586h10.46v-6.586h-10.46zm15.884 0v6.586h10.46v-6.586h-10.46zm15.883 0v6.586h10.46v-6.586h-10.46zm16.271 0v6.586h10.46v-6.586h-10.46zm15.883 0v6.586h10.46v-6.586h-10.46zm15.884 0v6.586h10.46v-6.586h-10.46zm15.883 0v6.586h10.46v-6.586h-10.46zm16.271 0v6.586h10.46v-6.586h-10.46zm15.883 0v6.586h10.46v-6.586h-10.46zm15.884 0v6.586h10.46v-6.586h-10.46zm15.883 0v6.586h10.46v-6.586h-10.46zm16.271 0v6.586h10.46v-6.586h-10.46zm15.883 0v6.586h10.46v-6.586h-10.46zm15.884 0v6.586h10.46v-6.586H2.87zm15.883 0v6.586h10.46v-6.586h-10.46zm16.271 0v6.586h10.46v-6.586h-10.46zm15.883 0v6.586h10.46v-6.586h-10.46zm15.884 0v6.586h10.46v-6.586H66.79zm15.883 0v6.586h10.46v-6.586h-10.46zm-399.409-8.135v6.586h10.46v-6.586h-10.46zm16.271 0v6.586h10.459v-6.586h-10.459zm15.883 0v6.586h10.46v-6.586h-10.46zm15.883 0v6.586h10.46v-6.586h-10.46zm15.884 0v6.586h10.46v-6.586h-10.46zm16.271 0v6.586h10.459v-6.586h-10.459zm15.883 0v6.586h10.46v-6.586h-10.46zm15.883 0v6.586h10.46v-6.586h-10.46zm15.884 0v6.586h10.46v-6.586h-10.46zm15.883 0v6.586h10.46v-6.586h-10.46zm16.271 0v6.586h10.46v-6.586h-10.46zm15.883 0v6.586h10.46v-6.586h-10.46zm15.884 0v6.586h10.46v-6.586h-10.46zm15.883 0v6.586h10.46v-6.586h-10.46zm16.271 0v6.586h10.46v-6.586h-10.46zm15.883 0v6.586h10.46v-6.586h-10.46zm15.884 0v6.586h10.46v-6.586h-10.46zm15.883 0v6.586h10.46v-6.586h-10.46zm16.271 0v6.586h10.46v-6.586h-10.46zm15.883 0v6.586h10.46v-6.586h-10.46zm15.884 0v6.586h10.46v-6.586H2.87zm15.883 0v6.586h10.46v-6.586h-10.46zm16.271 0v6.586h10.46v-6.586h-10.46zm15.883 0v6.586h10.46v-6.586h-10.46zm15.884 0v6.586h10.46v-6.586H66.79zm15.883 0v6.586h10.46v-6.586h-10.46zm-399.409-8.523v6.586h10.46v-6.586h-10.46zm16.271 0v6.586h10.459v-6.586h-10.459zm15.883 0v6.586h10.46v-6.586h-10.46zm15.883 0v6.586h10.46v-6.586h-10.46zm15.884 0v6.586h10.46v-6.586h-10.46zm16.271 0v6.586h10.459v-6.586h-10.459zm15.883 0v6.586h10.46v-6.586h-10.46zm15.883 0v6.586h10.46v-6.586h-10.46zm15.884 0v6.586h10.46v-6.586h-10.46zm15.883 0v6.586h10.46v-6.586h-10.46zm16.271 0v6.586h10.46v-6.586h-10.46zm15.883 0v6.586h10.46v-6.586h-10.46zm15.884 0v6.586h10.46v-6.586h-10.46zm15.883 0v6.586h10.46v-6.586h-10.46zm16.271 0v6.586h10.46v-6.586h-10.46zm15.883 0v6.586h10.46v-6.586h-10.46zm15.884 0v6.586h10.46v-6.586h-10.46zm15.883 0v6.586h10.46v-6.586h-10.46zm16.271 0v6.586h10.46v-6.586h-10.46zm15.883 0v6.586h10.46v-6.586h-10.46zm15.884 0v6.586h10.46v-6.586H2.87zm15.883 0v6.586h10.46v-6.586h-10.46zm16.271 0v6.586h10.46v-6.586h-10.46zm15.883 0v6.586h10.46v-6.586h-10.46zm15.884 0v6.586h10.46v-6.586H66.79zm15.883 0v6.586h10.46v-6.586h-10.46zm-399.409-8.91v6.586h10.46v-6.586h-10.46zm16.271 0v6.586h10.459v-6.586h-10.459zm15.883 0v6.586h10.46v-6.586h-10.46zm15.883 0v6.586h10.46v-6.586h-10.46zm15.884 0v6.586h10.46v-6.586h-10.46zm16.271 0v6.586h10.459v-6.586h-10.459zm15.883 0v6.586h10.46v-6.586h-10.46zm15.883 0v6.586h10.46v-6.586h-10.46zm15.884 0v6.586h10.46v-6.586h-10.46zm15.883 0v6.586h10.46v-6.586h-10.46zm16.271 0v6.586h10.46v-6.586h-10.46zm15.883 0v6.586h10.46v-6.586h-10.46zm15.884 0v6.586h10.46v-6.586h-10.46zm15.883 0v6.586h10.46v-6.586h-10.46zm16.271 0v6.586h10.46v-6.586h-10.46zm15.883 0v6.586h10.46v-6.586h-10.46zm15.884 0v6.586h10.46v-6.586h-10.46zm15.883 0v6.586h10.46v-6.586h-10.46zm16.271 0v6.586h10.46v-6.586h-10.46zm15.883 0v6.586h10.46v-6.586h-10.46zm15.884 0v6.586h10.46v-6.586H2.87zm15.883 0v6.586h10.46v-6.586h-10.46zm16.271 0v6.586h10.46v-6.586h-10.46zm15.883 0v6.586h10.46v-6.586h-10.46zm15.884 0v6.586h10.46v-6.586H66.79zm15.883 0v6.586h10.46v-6.586h-10.46zm-399.409-8.523v6.586h10.46v-6.586h-10.46zm16.271 0v6.586h10.459v-6.586h-10.459zm15.883 0v6.586h10.46v-6.586h-10.46zm15.883 0v6.586h10.46v-6.586h-10.46zm15.884 0v6.586h10.46v-6.586h-10.46zm16.271 0v6.586h10.459v-6.586h-10.459zm15.883 0v6.586h10.46v-6.586h-10.46zm15.883 0v6.586h10.46v-6.586h-10.46zm15.884 0v6.586h10.46v-6.586h-10.46zm15.883 0v6.586h10.46v-6.586h-10.46zm16.271 0v6.586h10.46v-6.586h-10.46zm15.883 0v6.586h10.46v-6.586h-10.46zm15.884 0v6.586h10.46v-6.586h-10.46zm15.883 0v6.586h10.46v-6.586h-10.46zm16.271 0v6.586h10.46v-6.586h-10.46zm15.883 0v6.586h10.46v-6.586h-10.46zm15.884 0v6.586h10.46v-6.586h-10.46zm15.883 0v6.586h10.46v-6.586h-10.46zm16.271 0v6.586h10.46v-6.586h-10.46zm15.883 0v6.586h10.46v-6.586h-10.46zm15.884 0v6.586h10.46v-6.586H2.87zm15.883 0v6.586h10.46v-6.586h-10.46zm16.271 0v6.586h10.46v-6.586h-10.46zm15.883 0v6.586h10.46v-6.586h-10.46zm15.884 0v6.586h10.46v-6.586H66.79zm15.883 0v6.586h10.46v-6.586h-10.46zm-399.409-8.522v6.585h10.46v-6.585h-10.46zm16.271 0v6.585h10.459v-6.585h-10.459zm15.883 0v6.585h10.46v-6.585h-10.46zm15.883 0v6.585h10.46v-6.585h-10.46zm15.884 0v6.585h10.46v-6.586l-10.46.001zm16.271-.001v6.586h10.459v-6.586h-10.459zm15.883 0v6.586h10.46v-6.586h-10.46zm15.883 0v6.586h10.46v-6.586h-10.46zm15.884 0v6.586h10.46v-6.586h-10.46zm15.883 0v6.586h10.46v-6.586h-10.46zm16.271 0v6.586h10.46v-6.586h-10.46zm15.883 0v6.586h10.46v-6.586h-10.46zm15.884 0v6.586h10.46v-6.586h-10.46zm15.883 0v6.586h10.46v-6.586h-10.46zm16.271 0v6.586h10.46v-6.586h-10.46zm15.883 0v6.586h10.46v-6.586h-10.46zm15.884 0v6.586h10.46v-6.586h-10.46zm15.883 0v6.586h10.46v-6.586h-10.46zm16.271 0v6.586h10.46v-6.586h-10.46zm15.883 0v6.586h10.46v-6.586h-10.46zm15.884 0v6.586h10.46v-6.586H2.87zm15.883 0v6.586h10.46v-6.586h-10.46zm16.271 0v6.586h10.46v-6.586h-10.46zm15.883 0v6.586h10.46v-6.586h-10.46zm15.884 0v6.586h10.46v-6.586H66.79zm15.883 0v6.586h10.46v-6.586h-10.46z" fill="#53A6EA"/><path d="M.547 60.021v59.659l-270.018.001v-59.66H.547z" fill="#196C9B"/><path d="M2.096 121.618h-273.892v-62.76H2.096v62.76zm-268.856-8.523v4.262h6.973v-4.262h-6.973zm10.073 0v4.262h6.973v-4.262h-6.973zm10.459 0v4.262h6.974v-4.262h-6.974zm10.073 0v4.262h6.973v-4.262h-6.973zm10.46 0v4.262h6.973v-4.262h-6.973zm10.072 0v4.262h6.973v-4.262h-6.973zm10.46 0v4.262h6.973v-4.262h-6.973zm10.459 0v4.262h6.974v-4.262h-6.974zm10.073 0v4.262h6.973v-4.262h-6.973zm10.46 0v4.262h6.585v-4.262h-6.585zm10.072 0v4.262h6.973v-4.262h-6.973zm10.46 0v4.262h6.973v-4.262h-6.973zm10.072 0v4.262h6.973v-4.262h-6.973zm10.46 0v4.262h6.973v-4.262h-6.973zm10.072 0v4.262h6.974v-4.262h-6.974zm10.46 0v4.262h6.973v-4.262h-6.973zm10.46 0v4.262h6.973v-4.262h-6.973zm10.072 0v4.262h6.974v-4.262h-6.974zm10.46 0v4.262h6.973v-4.262h-6.973zm10.073 0v4.262h6.973v-4.262h-6.973zm10.46 0v4.262h6.973v-4.262h-6.974zm10.072 0v4.262h6.973v-4.262h-6.973zm10.46 0v4.262h6.973v-4.262h-6.973zm10.072 0v4.262h6.973v-4.262h-6.973zm10.46 0v4.262h6.973v-4.262h-6.973zm10.46 0v4.262h6.973v-4.262h-6.973zm-257.234-5.423v4.261h6.973v-4.261h-6.973zm10.073 0v4.261h6.973v-4.261h-6.973zm10.459 0v4.261h6.974v-4.261h-6.974zm10.073 0v4.261h6.973v-4.261h-6.973zm10.459 0l.001 4.261h6.973v-4.261h-6.974zm10.073 0v4.261h6.973v-4.261h-6.973zm10.46 0v4.261h6.973v-4.261h-6.973zm10.459 0v4.261h6.974v-4.261h-6.974zm10.073 0v4.261h6.973v-4.261h-6.973zm10.46 0v4.261h6.585v-4.261h-6.585zm10.072 0v4.261h6.973v-4.261h-6.973zm10.46 0v4.261h6.973v-4.261h-6.973zm10.072 0v4.261h6.973v-4.261h-6.973zm10.46 0v4.261h6.973v-4.261h-6.973zm10.072 0v4.261h6.974v-4.261h-6.974zm10.46 0v4.261h6.973v-4.261h-6.973zm10.46 0v4.261h6.973v-4.261h-6.973zm10.072 0v4.261h6.974v-4.261h-6.974zm10.46 0v4.261h6.973v-4.261h-6.973zm10.073 0v4.261h6.973v-4.261h-6.973zm10.46 0v4.261h6.973v-4.261h-6.974zm10.072 0v4.261h6.973v-4.261h-6.973zm10.46 0v4.261h6.973v-4.261h-6.973zm10.072 0v4.261h6.973v-4.261h-6.973zm10.46 0v4.261h6.973v-4.261h-6.973zm10.46 0v4.261h6.973v-4.261h-6.973zm-257.234-5.811v4.261h6.973v-4.261h-6.973zm10.073 0v4.261h6.973v-4.261h-6.973zm10.459 0v4.261h6.974l-.001-4.261h-6.973zm10.073 0v4.261h6.973v-4.261h-6.973zm10.459 0v4.261h6.974v-4.261h-6.974zm10.073 0v4.261h6.973v-4.261h-6.973zm10.46 0v4.261h6.973v-4.261h-6.973zm10.459 0v4.261h6.974v-4.261h-6.974zm10.073 0v4.261h6.973v-4.261h-6.973zm10.46 0v4.261h6.585v-4.261h-6.585zm10.072 0v4.261h6.973v-4.261h-6.973zm10.46 0v4.261h6.973v-4.261h-6.973zm10.072 0v4.261h6.973v-4.261h-6.973zm10.46 0v4.261h6.973v-4.261h-6.973zm10.072 0v4.261h6.974v-4.261h-6.974zm10.46 0v4.261h6.973v-4.261h-6.973zm10.46 0v4.261h6.973v-4.261h-6.973zm10.072 0v4.261h6.974v-4.261h-6.974zm10.46 0v4.261h6.973v-4.261h-6.973zm10.073 0v4.261h6.973v-4.261h-6.973zm10.46 0v4.261h6.973v-4.261h-6.974zm10.072 0v4.261h6.973v-4.261h-6.973zm10.46 0v4.261h6.973v-4.261h-6.973zm10.072 0v4.261h6.973v-4.261h-6.973zm10.46 0v4.261h6.973v-4.261h-6.973zm10.46 0v4.261h6.973v-4.261h-6.973zm-257.234-5.424v4.261h6.973v-4.261h-6.973zm10.073 0v4.261h6.973v-4.261h-6.973zm10.459 0v4.261h6.973v-4.261h-6.973zm10.073 0v4.261h6.973v-4.261h-6.973zm10.459 0v4.261h6.974v-4.261h-6.974zm10.073 0v4.261h6.973v-4.261h-6.973zm10.46 0v4.261h6.973v-4.261h-6.973zm10.459 0v4.261h6.974v-4.261h-6.974zm10.073 0v4.261h6.973v-4.261h-6.973zm10.46 0v4.261h6.585v-4.261h-6.585zm10.072 0v4.261h6.973v-4.261h-6.973zm10.46 0v4.261h6.973v-4.261h-6.973zm10.072 0v4.261h6.973v-4.261h-6.973zm10.46 0v4.261h6.973v-4.261h-6.973zm10.072 0v4.261h6.974v-4.261h-6.974zm10.46 0v4.261h6.973v-4.261h-6.973zm10.46 0v4.261h6.973v-4.261h-6.973zm10.072 0v4.261h6.974v-4.261h-6.974zm10.46 0v4.261h6.973v-4.261h-6.973zm10.073 0v4.261h6.973v-4.261h-6.973zm10.46 0v4.261h6.973v-4.261h-6.974zm10.072 0v4.261h6.973v-4.261h-6.973zm10.46 0v4.261h6.973v-4.261h-6.973zm10.072 0v4.261h6.973v-4.261h-6.973zm10.46 0v4.261h6.973v-4.261h-6.973zm-246.774-5.424v4.262h6.973v-4.262h-6.973zm10.072 0l.001 4.262h6.973v-4.262h-6.974zm10.46 0v4.262h6.973v-4.262h-6.973zm10.073 0v4.262h6.973v-4.262h-6.973zm10.459 0v4.262h6.974v-4.262h-6.974zm10.073 0v4.262h6.973v-4.262h-6.973zm10.46 0v4.262h6.973v-4.262h-6.973zm10.459 0v4.262h6.974v-4.262h-6.974zm10.073 0v4.262h6.973v-4.262h-6.973zm10.46 0v4.262h6.585v-4.262h-6.585zm10.072 0v4.262h6.973v-4.262h-6.973zm10.46 0v4.262h6.973v-4.262h-6.973zm10.072 0v4.262h6.973v-4.262h-6.973zm10.46 0v4.262h6.973v-4.262h-6.973zm10.072 0v4.262h6.974v-4.262h-6.974zm10.46 0v4.262h6.973v-4.262h-6.973zm10.46 0v4.262h6.973v-4.262h-6.973zm10.072 0v4.262h6.974v-4.262h-6.974zm10.46 0v4.262h6.973v-4.262h-6.973zm10.073 0v4.262h6.973v-4.262h-6.973zm10.46 0v4.262h6.973v-4.262h-6.974zm10.072 0v4.262h6.973v-4.262h-6.973zm10.46 0v4.262h6.973v-4.262h-6.973zm10.072 0v4.262h6.973v-4.262h-6.973zm10.46 0v4.262h6.973v-4.262h-6.973zm10.46 0v4.262h6.973v-4.262h-6.973zM-266.76 85.59v4.26h6.973v-4.26h-6.973zm10.072 0v4.26h6.974v-4.26h-6.974zm10.46 0v4.26h6.973v-4.26h-6.973zm10.073 0v4.26h6.973v-4.26h-6.973zm10.459 0v4.26h6.974v-4.26h-6.974zm10.073 0v4.26h6.973v-4.26h-6.973zm10.46 0v4.26h6.973v-4.26h-6.973zm10.459 0v4.26h6.974v-4.26h-6.974zm10.073 0v4.26h6.973v-4.26h-6.973zm10.46 0v4.26h6.585v-4.26h-6.585zm10.072 0v4.26h6.973v-4.26h-6.973zm10.46 0v4.26h6.973v-4.26h-6.973zm10.072 0v4.26h6.973v-4.26h-6.973zm10.46 0v4.26h6.973v-4.26h-6.973zm10.072 0v4.26h6.974v-4.26h-6.974zm10.46 0v4.26h6.973v-4.26h-6.973zm10.46 0v4.26h6.973v-4.26h-6.973zm10.072 0v4.26h6.974v-4.26h-6.974zm10.46 0v4.26h6.973v-4.26h-6.973zm10.073 0v4.26h6.973v-4.26h-6.973zm10.46 0v4.26h6.973v-4.26h-6.974zm10.072 0v4.26h6.973v-4.26h-6.973zm10.46 0v4.26h6.973v-4.26h-6.973zm10.072 0v4.26h6.973v-4.26h-6.973zm10.46 0v4.26h6.973v-4.26h-6.973zm10.46 0v4.26h6.973v-4.26h-6.973zm-257.234-5.424v4.262h6.973v-4.262h-6.973zm10.072 0v4.262h6.974v-4.262h-6.974zm10.46 0v4.262h6.973v-4.262h-6.973zm10.073 0v4.262h6.973v-4.262h-6.973zm10.459 0v4.262h6.974v-4.262h-6.974zm10.073 0v4.262h6.973v-4.262h-6.973zm10.46 0v4.262h6.973v-4.262h-6.973zm10.459 0v4.262h6.974v-4.262h-6.974zm10.073 0v4.262h6.973v-4.262h-6.973zm10.46 0v4.262h6.585v-4.262h-6.585zm10.072 0v4.262h6.973v-4.262h-6.973zm10.46 0v4.262h6.973v-4.262h-6.973zm10.072 0v4.262h6.973v-4.262h-6.973zm10.46 0v4.262h6.973v-4.262h-6.973zm10.072 0v4.262h6.974v-4.262h-6.974zm10.46 0v4.262h6.973v-4.262h-6.973zm10.46 0v4.262h6.973v-4.262h-6.973zm10.072 0v4.262h6.974v-4.262h-6.974zm10.46 0v4.262h6.973v-4.262h-6.973zm10.073 0v4.262h6.973v-4.262h-6.973zm10.46 0v4.262h6.973v-4.262h-6.974zm10.072 0v4.262h6.973v-4.262h-6.973zm10.46 0v4.262h6.973v-4.262h-6.973zm10.072 0v4.262h6.973v-4.262h-6.973zm10.46 0v4.262h6.973v-4.262h-6.973zm10.46 0v4.262h6.973v-4.262h-6.973zm-257.234-5.423v4.26h6.973v-4.26h-6.973zm10.072 0v4.26h6.974v-4.26h-6.974zm10.46 0v4.26h6.973v-4.26h-6.973zm10.073 0v4.26h6.973v-4.26h-6.973zm10.459 0v4.26h6.974v-4.26h-6.974zm10.073 0v4.26h6.973v-4.26h-6.973zm10.46 0v4.26h6.973v-4.26h-6.973zm10.459 0v4.26h6.974v-4.26h-6.974zm10.073 0v4.26h6.973v-4.26h-6.973zm10.46 0v4.26h6.585v-4.26h-6.585zm10.072 0v4.26h6.973v-4.26h-6.973zm10.46 0v4.26h6.973v-4.26h-6.973zm10.072 0v4.26h6.973v-4.26h-6.973zm10.46 0v4.26h6.973v-4.26h-6.973zm10.072 0v4.26h6.974v-4.26h-6.974zm10.46 0v4.26h6.973v-4.26h-6.973zm10.46 0v4.26h6.973v-4.26h-6.973zm10.072 0v4.26h6.974v-4.26h-6.974zm10.46 0v4.26h6.973v-4.26h-6.973zm10.073 0v4.26h6.973v-4.26h-6.973zm10.46 0v4.26h6.973v-4.26h-6.974zm10.072 0v4.26h6.973v-4.26h-6.973zm10.46 0v4.26h6.973v-4.26h-6.973zm10.072 0v4.26h6.973v-4.26h-6.973zm10.46 0v4.26h6.973v-4.26h-6.973zm10.46 0v4.26h6.973v-4.26h-6.973zm-257.234-5.811v4.26h6.973v-4.26h-6.973zm10.072 0v4.26h6.974v-4.26h-6.974zm10.46 0v4.26h6.973v-4.26h-6.973zm10.073 0v4.26h6.973v-4.26h-6.973zm10.459 0v4.26h6.974v-4.26h-6.974zm10.073 0v4.26h6.973v-4.26h-6.973zm10.46 0v4.26h6.973v-4.26h-6.973zm10.459 0v4.26h6.974v-4.26h-6.974zm10.073 0v4.26h6.973v-4.26h-6.973zm10.46 0v4.26h6.585v-4.26h-6.585zm10.072 0v4.26h6.973v-4.26h-6.973zm10.46 0v4.26h6.973v-4.26h-6.973zm10.072 0v4.26h6.973v-4.26h-6.973zm10.46 0v4.26h6.973v-4.26h-6.973zm10.072 0v4.26h6.974v-4.26h-6.974zm10.46 0v4.26h6.973v-4.26h-6.973zm10.46 0v4.26h6.973v-4.26h-6.973zm10.072 0v4.26h6.974v-4.26h-6.974zm10.46 0v4.26h6.973v-4.26h-6.973zm10.073 0v4.26h6.973v-4.26h-6.973zm10.46 0v4.26h6.973v-4.26h-6.974zm10.072 0v4.26h6.973v-4.26h-6.973zm10.46 0v4.26h6.973v-4.26h-6.973zm10.072 0v4.26h6.973v-4.26h-6.973zm10.46 0v4.26h6.973v-4.26h-6.973zm10.46 0v4.26h6.973v-4.26h-6.973zm-257.234-5.424v4.26h6.973v-4.26h-6.973zm10.072 0v4.26h6.974v-4.26h-6.974zm10.46 0v4.26h6.973v-4.26h-6.973zm10.073 0v4.26h6.973v-4.26h-6.973zm10.459 0v4.26h6.974v-4.26h-6.974zm10.073 0v4.26h6.973v-4.26h-6.973zm10.46 0v4.26h6.973v-4.26h-6.973zm10.459 0v4.26h6.974v-4.26h-6.974zm10.073 0v4.26h6.973v-4.26h-6.973zm10.46 0v4.26h6.585v-4.26h-6.585zm10.072 0v4.26h6.973v-4.26h-6.973zm10.46 0v4.26h6.973v-4.26h-6.973zm10.072 0v4.26h6.973v-4.26h-6.973zm10.46 0v4.26h6.973v-4.26h-6.973zm10.072 0v4.26h6.974v-4.26h-6.974zm10.46 0v4.26h6.973v-4.26h-6.973zm10.46 0v4.26h6.973v-4.26h-6.973zm10.072 0v4.26h6.974v-4.26h-6.974zm10.46 0v4.26h6.973v-4.26h-6.973zm10.073 0v4.26h6.973v-4.26h-6.973zm10.46 0v4.26h6.973v-4.26h-6.974zm10.072 0v4.26h6.973v-4.26h-6.973zm10.46 0v4.26h6.973v-4.26h-6.973zm10.072 0v4.26h6.973v-4.26h-6.973zm10.46 0v4.26h6.973v-4.26h-6.973zm10.46 0v4.26h6.973v-4.26h-6.973z" fill="#53A6EA"/><path d="M97.01 997.14v95.3h-343.624v-95.3H97.01z" fill="#196C9B"/><path d="M98.56 1095.54h-348.274v-99.95H98.559v99.95zm-342.076-13.94v6.58h8.911v-6.58h-8.911zm13.172 0v6.58h8.91v-6.58h-8.91zm13.172 0v6.58h8.91v-6.58h-8.91zm13.171 0v6.58h8.91v-6.58h-8.91zm12.784 0v6.58h8.911v-6.58h-8.911zm13.172 0v6.58h8.91v-6.58h-8.91zm13.172 0v6.58h8.91v-6.58h-8.91zm13.171 0v6.58h8.91v-6.58h-8.91zm12.784 0v6.58h8.911v-6.58h-8.911zm13.172 0v6.58h8.91v-6.58h-8.91zm13.172 0v6.58h8.91v-6.58h-8.91zm13.171 0v6.58h8.91v-6.58h-8.91zm13.172 0v6.58h8.91v-6.58h-8.91zm12.784 0v6.58h8.91v-6.58h-8.91zm13.172 0v6.58h8.91v-6.58h-8.91zm13.171 0v6.58h8.91v-6.58h-8.91zm13.172 0v6.58h8.91v-6.58h-8.91zm13.171 0v6.58h8.911v-6.58h-8.91zm12.785 0v6.58h8.91v-6.58h-8.91zm13.171 0v6.58h8.91v-6.58h-8.91zm13.172 0v6.58h8.91v-6.58h-8.91zm13.171 0v6.58h8.911v-6.58h-8.91zm12.785 0v6.58h8.91v-6.58h-8.91zm13.171 0v6.58h8.91v-6.58h-8.91zm13.172 0v6.58h8.91v-6.58h-8.91zm13.171 0v6.58h8.911v-6.58h-8.91zm-327.353-8.53v6.59h8.911v-6.59h-8.911zm13.172 0v6.59h8.91v-6.59h-8.91zm13.172 0v6.59h8.91v-6.59h-8.91zm13.171 0v6.59h8.91v-6.59h-8.91zm12.784 0v6.59h8.911v-6.59h-8.911zm13.172 0v6.59h8.91v-6.59h-8.91zm13.172 0v6.59h8.91v-6.59h-8.91zm13.171 0v6.59h8.91v-6.59h-8.91zm12.784 0v6.59h8.911v-6.59h-8.911zm13.172 0v6.59h8.91v-6.59h-8.91zm13.172 0v6.59h8.91v-6.59h-8.91zm13.171 0v6.59h8.91v-6.59h-8.91zm13.172 0v6.59h8.91v-6.59h-8.91zm12.784 0v6.59h8.91v-6.59h-8.91zm13.172 0v6.59h8.91v-6.59h-8.91zm13.171 0v6.59h8.91v-6.59h-8.91zm13.172 0v6.59h8.91v-6.59h-8.91zm13.171 0v6.59h8.911v-6.59h-8.91zm12.785 0v6.59h8.91v-6.59h-8.91zm13.171 0v6.59h8.91v-6.59h-8.91zm13.172 0v6.59h8.91v-6.59h-8.91zm13.171 0v6.59h8.911v-6.59h-8.91zm12.785 0v6.59h8.91v-6.59h-8.91zm13.171 0v6.59h8.91v-6.59h-8.91zm13.172 0v6.59h8.91v-6.59h-8.91zm13.171 0v6.59h8.911v-6.59h-8.91zm-327.353-8.52v6.59h8.911v-6.59h-8.911zm13.172 0v6.59h8.91v-6.59h-8.91zm13.172 0v6.59h8.91v-6.59h-8.91zm13.171 0v6.59h8.91v-6.59h-8.91zm12.784 0v6.59h8.911v-6.59h-8.911zm13.172 0v6.59h8.91v-6.59h-8.91zm13.172 0v6.59h8.91v-6.59h-8.91zm13.171 0v6.59h8.91v-6.59h-8.91zm12.784 0v6.59h8.911v-6.59h-8.911zm13.172 0v6.59h8.91v-6.59h-8.91zm13.172 0v6.59h8.91v-6.59h-8.91zm13.171 0v6.59h8.91v-6.59h-8.91zm13.172 0v6.59h8.91v-6.59h-8.91zm12.784 0v6.59h8.91v-6.59h-8.91zm13.172 0v6.59h8.91v-6.59h-8.91zm13.171 0v6.59h8.91v-6.59h-8.91zm13.172 0v6.59h8.91v-6.59h-8.91zm13.171 0v6.59h8.911v-6.59h-8.91zm12.785 0v6.59h8.91v-6.59h-8.91zm13.171 0v6.59h8.91v-6.59h-8.91zm13.172 0v6.59h8.91v-6.59h-8.91zm13.171 0v6.59h8.911v-6.59h-8.91zm12.785 0v6.59h8.91v-6.59h-8.91zm13.171 0v6.59h8.91v-6.59h-8.91zm13.172 0v6.59h8.91v-6.59h-8.91zm13.171 0v6.59h8.911v-6.59h-8.91zm-327.353-8.91v6.59h8.911v-6.59h-8.911zm13.172 0v6.59h8.91v-6.59h-8.91zm13.172 0v6.59h8.91v-6.59h-8.91zm13.171 0v6.59h8.91v-6.59h-8.91zm12.784 0v6.59h8.911v-6.59h-8.911zm13.172 0v6.59h8.91v-6.59h-8.91zm13.172 0v6.59h8.91v-6.59h-8.91zm13.171 0v6.59h8.91v-6.59h-8.91zm12.784 0v6.59h8.911v-6.59h-8.911zm13.172 0v6.59h8.91v-6.59h-8.91zm13.172 0v6.59h8.91v-6.59h-8.91zm13.171 0v6.59h8.91v-6.59h-8.91zm13.172 0v6.59h8.91v-6.59h-8.91zm12.784 0v6.59h8.91v-6.59h-8.91zm13.172 0v6.59h8.91v-6.59h-8.91zm13.171 0v6.59h8.91v-6.59h-8.91zm13.172 0v6.59h8.91v-6.59h-8.91zm13.171 0v6.59h8.911v-6.59h-8.91zm12.785 0v6.59h8.91v-6.59h-8.91zm13.171 0v6.59h8.91v-6.59h-8.91zm13.172 0v6.59h8.91v-6.59h-8.91zm13.171 0v6.59h8.911v-6.59h-8.91zm12.785 0v6.59h8.91v-6.59h-8.91zm13.171 0v6.59h8.91v-6.59h-8.91zm13.172 0v6.59h8.91v-6.59h-8.91zm-314.182-8.52v6.58h8.911v-6.58h-8.911zm13.172 0v6.58h8.91v-6.58h-8.91zm13.172 0v6.58h8.91v-6.58h-8.91zm13.171 0v6.58h8.91v-6.58h-8.91zm12.784 0v6.58h8.911v-6.58h-8.911zm13.172 0v6.58h8.91v-6.58h-8.91zm13.172 0v6.58h8.91v-6.58h-8.91zm13.171 0v6.58h8.91v-6.58h-8.91zm12.784 0v6.58h8.911v-6.58h-8.911zm13.172 0v6.58h8.91v-6.58h-8.91zm13.172 0v6.58h8.91v-6.58h-8.91zm13.171 0v6.58h8.91v-6.58h-8.91zm13.172 0v6.58h8.91v-6.58h-8.91zm12.784 0v6.58h8.91v-6.58h-8.91zm13.172 0v6.58h8.91v-6.58h-8.91zm13.171 0v6.58h8.91v-6.58h-8.91zm13.172 0v6.58h8.91v-6.58h-8.91zm13.171 0v6.58h8.911v-6.58h-8.91zm12.785 0v6.58h8.91v-6.58h-8.91zm13.171 0v6.58h8.91v-6.58h-8.91zm13.172 0v6.58h8.91v-6.58h-8.91zm13.171 0v6.58h8.911v-6.58h-8.91zm12.785 0v6.58h8.91v-6.58h-8.91zm13.171 0v6.58h8.91v-6.58h-8.91zm13.172 0v6.58h8.91v-6.58h-8.91zm13.171 0v6.58h8.911v-6.58h-8.91zm-327.353-8.91v6.58h8.911v-6.58h-8.911zm13.172 0v6.58h8.91v-6.58h-8.91zm13.172 0v6.58h8.91v-6.58h-8.91zm13.171 0v6.58h8.91v-6.58h-8.91zm12.784 0v6.58h8.911v-6.58h-8.911zm13.172 0v6.58h8.91v-6.58h-8.91zm13.172 0v6.58h8.91v-6.58h-8.91zm13.171 0v6.58h8.91v-6.58h-8.91zm12.784 0v6.58h8.911v-6.58h-8.911zm13.172 0v6.58h8.91v-6.58h-8.91zm13.172 0v6.58h8.91v-6.58h-8.91zm13.171 0v6.58h8.91v-6.58h-8.91zm13.172 0v6.58h8.91v-6.58h-8.91zm12.784 0v6.58h8.91v-6.58h-8.91zm13.172 0v6.58h8.91v-6.58h-8.91zm13.171 0v6.58h8.91v-6.58h-8.91zm13.172 0v6.58h8.91v-6.58h-8.91zm13.171 0v6.58h8.911v-6.58h-8.91zm12.785 0v6.58h8.91v-6.58h-8.91zm13.171 0v6.58h8.91v-6.58h-8.91zm13.172 0v6.58h8.91v-6.58h-8.91zm13.171 0v6.58h8.911v-6.58h-8.91zm12.785 0v6.58h8.91v-6.58h-8.91zm13.171 0v6.58h8.91v-6.58h-8.91zm13.172 0v6.58h8.91v-6.58h-8.91zm13.171 0v6.58h8.911v-6.58h-8.91zm-327.353-8.53v6.59h8.911v-6.59h-8.911zm13.172 0v6.59h8.91v-6.59h-8.91zm13.172 0v6.59h8.91v-6.59h-8.91zm13.171 0v6.59h8.91v-6.59h-8.91zm12.784 0v6.59h8.911v-6.59h-8.911zm13.172 0v6.59h8.91v-6.59h-8.91zm13.172 0v6.59h8.91v-6.59h-8.91zm13.171 0v6.59h8.91v-6.59h-8.91zm12.784 0v6.59h8.911v-6.59h-8.911zm13.172 0v6.59h8.91v-6.59h-8.91zm13.172 0v6.59h8.91v-6.59h-8.91zm13.171 0v6.59h8.91v-6.59h-8.91zm13.172 0v6.59h8.91v-6.59h-8.91zm12.784 0v6.59h8.91v-6.59h-8.91zm13.172 0v6.59h8.91v-6.59h-8.91zm13.171 0v6.59h8.91v-6.59h-8.91zm13.172 0v6.59h8.91v-6.59h-8.91zm13.171 0v6.59h8.911v-6.59h-8.91zm12.785 0v6.59h8.91v-6.59h-8.91zm13.171 0v6.59h8.91v-6.59h-8.91zm13.172 0v6.59h8.91v-6.59h-8.91zm13.171 0v6.59h8.911v-6.59h-8.91zm12.785 0v6.59h8.91v-6.59h-8.91zm13.171 0v6.59h8.91v-6.59h-8.91zm13.172 0v6.59h8.91v-6.59h-8.91zm13.171 0v6.59h8.911v-6.59h-8.91zm-327.353-9.29v6.58h8.911v-6.58h-8.911zm13.172 0v6.58h8.91v-6.58h-8.91zm13.172 0v6.58h8.91v-6.58h-8.91zm13.171 0v6.58h8.91v-6.58h-8.91zm12.784 0v6.58h8.911v-6.58h-8.911zm13.172 0v6.58h8.91v-6.58h-8.91zm13.172 0v6.58h8.91v-6.58h-8.91zm13.171 0v6.58h8.91v-6.58h-8.91zm12.784 0v6.58h8.911v-6.58h-8.911zm13.172 0v6.58h8.91v-6.58h-8.91zm13.172 0v6.58h8.91v-6.58h-8.91zm13.171 0v6.58h8.91v-6.58h-8.91zm13.172 0v6.58h8.91v-6.58h-8.91zm12.784 0v6.58h8.91v-6.58h-8.91zm13.172 0v6.58h8.91v-6.58h-8.91zm13.171 0v6.58h8.91v-6.58h-8.91zm13.172 0v6.58h8.91v-6.58h-8.91zm13.171 0v6.58h8.911v-6.58h-8.91zm12.785 0v6.58h8.91v-6.58h-8.91zm13.171 0v6.58h8.91v-6.58h-8.91zm13.172 0v6.58h8.91v-6.58h-8.91zm13.171 0v6.58h8.911v-6.58h-8.91zm12.785 0v6.58h8.91v-6.58h-8.91zm13.171 0v6.58h8.91v-6.58h-8.91zm13.172 0v6.58h8.91v-6.58h-8.91zm13.171 0v6.58h8.911v-6.58h-8.91zm-327.353-8.53v6.59h8.911v-6.59h-8.911zm13.172 0v6.59h8.91v-6.59h-8.91zm13.172 0v6.59h8.91v-6.59h-8.91zm13.171 0v6.59h8.91v-6.59h-8.91zm12.784 0v6.59h8.911v-6.59h-8.911zm13.172 0v6.59h8.91v-6.59h-8.91zm13.172 0v6.59h8.91v-6.59h-8.91zm13.171 0v6.59h8.91v-6.59h-8.91zm12.784 0v6.59h8.911v-6.59h-8.911zm13.172 0v6.59h8.91v-6.59h-8.91zm13.172 0v6.59h8.91v-6.59h-8.91zm13.171 0v6.59h8.91v-6.59h-8.91zm13.172 0v6.59h8.91v-6.59h-8.91zm12.784 0v6.59h8.91v-6.59h-8.91zm13.172 0v6.59h8.91v-6.59h-8.91zm13.171 0v6.59h8.91v-6.59h-8.91zm13.172 0v6.59h8.91v-6.59h-8.91zm13.171 0v6.59h8.911v-6.59h-8.91zm12.785 0v6.59h8.91v-6.59h-8.91zm13.171 0v6.59h8.91v-6.59h-8.91zm13.172 0v6.59h8.91v-6.59h-8.91zm13.171 0v6.59h8.911v-6.59h-8.91zm12.785 0v6.59h8.91v-6.59h-8.91zm13.171 0v6.59h8.91v-6.59h-8.91zm13.172 0v6.59h8.91v-6.59h-8.91zm13.171 0v6.59h8.911v-6.59h-8.91zm-327.353-8.91v6.59h8.911v-6.59h-8.911zm13.172 0v6.59h8.91v-6.59h-8.91zm13.172 0v6.59h8.91v-6.59h-8.91zm13.171 0v6.59h8.91v-6.59h-8.91zm12.784 0v6.59h8.911v-6.59h-8.911zm13.172 0v6.59h8.91v-6.59h-8.91zm13.172 0v6.59h8.91v-6.59h-8.91zm13.171 0v6.59h8.91v-6.59h-8.91zm12.784 0v6.59h8.911v-6.59h-8.911zm13.172 0v6.59h8.91v-6.59h-8.91zm13.172 0v6.59h8.91v-6.59h-8.91zm13.171 0v6.59h8.91v-6.59h-8.91zm13.172 0v6.59h8.91v-6.59h-8.91zm12.784 0v6.59h8.91v-6.59h-8.91zm13.172 0v6.59h8.91v-6.59h-8.91zm13.171 0v6.59h8.91v-6.59h-8.91zm13.172 0v6.59h8.91v-6.59h-8.91zm13.171 0v6.59h8.911v-6.59h-8.91zm12.785 0v6.59h8.91v-6.59h-8.91zm13.171 0v6.59h8.91v-6.59h-8.91zm13.172 0v6.59h8.91v-6.59h-8.91zm13.171 0v6.59h8.911v-6.59h-8.91zm12.785 0v6.59h8.91v-6.59h-8.91zm13.171 0v6.59h8.91v-6.59h-8.91zm13.172 0v6.59h8.91v-6.59h-8.91zm13.171 0v6.59h8.911v-6.59h-8.91z" fill="#53A6EA"/><path d="M390.658 769.35h-698.482V556.668s219.656-38.74 349.435-1.937c129.391 37.19 254.522 95.3 293.649 144.887 39.127 49.588 55.398 69.732 55.398 69.732z" fill="#196C9B"/><path d="M-308.213 566.353c63.147-14.721 441.249-89.876 673.689 182.853h-673.689v45.326h731.799s-204.16-355.246-731.799-245.999v17.82z" fill="#53A6EA"/><path d="M-308.213 689.933C24.951 667.077 242.67 703.88 242.67 703.88s1.937-27.893-5.424-51.137c-197.574-127.455-475.339-80.579-545.459-65.858v103.048z" fill="#53A6EA"/><path d="M-308.213 690.708c204.935-12.397 352.147-6.198 440.474 1.162 93.363 7.748 141.788 18.983 146.824 20.145.775 3.099 4.262 21.307 3.874 36.416-204.547-38.74-522.602-17.046-591.172-11.622v1.549c68.57-5.423 387.4-27.118 591.56 11.622h.775v-.775c.387-16.658-3.874-37.965-3.874-37.965v-.387h-.388c-.387 0-48.812-12.01-147.212-20.145-88.327-7.361-235.926-13.559-440.861-1.162v1.162z" fill="#53A6EA"/><path d="M-308.212 768.576v1.55l567.541-.388h.388l24.406-20.145-.775-1.162-24.019 19.758-567.541.387zm705.842.775h196.8l-25.956 7.36-161.933 5.811-8.911-13.171zM234.794 651.765l-4.136 1.026-5.968-24.065 4.137-1.026 5.967 24.065zm-18.504-12.027l-4.136 1.026-5.97-24.064 4.136-1.026 5.97 24.064zm-17.021-8.058l-4.101 1.159-7.9-27.96 4.101-1.159 7.9 27.96zm-18.836-4.785l-4.101 1.159-7.909-27.959 4.101-1.16 7.909 27.96zm-20.191-11.143l-4.099 1.163-7.93-27.951 4.1-1.163 7.929 27.951zm-18.974-7.289l-4.1 1.161-7.912-27.957 4.101-1.16 7.911 27.956zm-19.45-7.884l-4.101 1.156-7.886-27.965 4.102-1.157 7.885 27.966zm-18.533-3.028l-4.1 1.158-7.896-27.963 4.102-1.158 7.894 27.963zm-18.823-2.828l-4.101 1.161-7.911-27.957 4.1-1.161 7.912 27.957zm-20.008-7.124l-4.1 1.16-7.909-27.957 4.1-1.16 7.91 27.957zm-20.064-2.82l-4.1 1.159-7.907-27.959 4.101-1.16 7.906 27.96zm-20.078-5.366l-4.101 1.159-7.903-27.96 4.101-1.159 7.903 27.96zm-19.139-1.446l-4.101 1.161-7.914-27.957 4.1-1.161 7.915 27.957z" fill="#53A6EA"/><path d="M245.77 767.801l23.244-21.694-4.261-37.191 4.261-.775 4.261 39.515-24.406 23.244-3.099-3.099z" fill="#53A6EA"/><path d="M226.013 767.413l25.181-24.406-3.874-37.578 4.261-.387 3.874 39.515-26.343 25.955-3.099-3.099z" fill="#53A6EA"/><path d="M204.706 767.801l30.217-27.118-3.486-37.578 4.261-.387 3.874 39.515-31.767 28.667-3.099-3.099z" fill="#53A6EA"/><path d="M187.66 767.413l29.83-29.442-2.712-37.965 4.261-.388 3.1 40.29-31.767 30.604-2.712-3.099zm-17.821 0l29.829-30.992-1.937-38.74 4.262-.387 1.937 40.677-30.992 32.541-3.099-3.099z" fill="#53A6EA"/><path d="M151.243 767.801l30.605-33.316-3.487-39.128 4.262-.387 3.486 41.064-31.766 34.866-3.1-3.099z" fill="#53A6EA"/><path d="M133.036 767.801l29.83-35.254-3.1-38.74 4.262-.387 3.099 40.677-30.992 36.415-3.099-2.711z" fill="#53A6EA"/><path d="M115.216 768.188l29.055-36.803-3.099-39.515 3.874-.387 3.874 41.452-30.605 37.577-3.099-2.324z" fill="#53A6EA"/><path d="M93.909 769.738l31.767-39.515-3.487-39.902 4.262-.387 3.486 41.452-32.541 41.064-3.487-2.712z" fill="#53A6EA"/><path d="M75.7 768.188l30.605-39.127-3.487-39.515 4.262-.388 3.486 41.065-31.38 40.289-3.486-2.324z" fill="#53A6EA"/><path d="M58.656 768.188l26.73-40.677-3.486-39.902 4.262-.388 3.486 41.452-27.505 41.839-3.487-2.324z" fill="#53A6EA"/><path d="M40.06 768.188l25.956-40.677-3.487-39.902 4.262-.388 3.486 41.452-26.73 41.839-3.487-2.324zm-20.531.001L44.323 724.8l-3.487-39.515 4.261-.387 3.487 41.064-25.181 44.164-3.874-1.937zM.16 768.188l23.243-41.839-2.325-41.452h4.262l2.324 42.227-24.019 43.388-3.486-2.324zm-20.921.001l22.857-45.326-3.487-39.902 4.262-.388 3.486 41.065-23.244 46.488-3.874-1.937zm306.821-73.22c-4.649 0-8.135-13.171-8.135-29.829s3.486-29.83 8.135-29.83c4.649 0 8.135 13.172 8.135 29.83 0 16.658-3.486 29.829-8.135 29.829zm-59.66 68.958s7.361 36.415 8.523 43.389c.775 6.973-2.712 22.469-12.01 31.379-6.198 0-10.072-1.937-10.072-1.937s-13.172-65.858-15.109-70.894c-2.324-4.649 28.668-1.937 28.668-1.937zM41.996 453.233v26.343H-97.468v-26.343H41.996zm111.959-36.803v23.631h-269.243V416.43h269.243z" fill="#53A6EA"/><path d="M212.064 436.575v35.641h-326.965v-35.641h326.965z" fill="#53A6EA"/><path d="M217.877 426.502v15.883l-79.804.001v-15.884h79.804zm54.623 22.857v18.983h-83.291v-18.983H272.5z" fill="#53A6EA"/><path d="M298.842 431.538v19.758H196.568v-19.758h102.274z" fill="#53A6EA"/><path d="M318.988 443.935v18.983h-69.344v-18.983h69.344z" fill="#53A6EA"/><path d="M380.584 438.899v14.721h-92.589v-14.721h92.589z" fill="#53A6EA"/><path d="M420.486 447.809v9.685h-113.12v-9.685h113.12z" fill="#53A6EA"/><path d="M443.344 443.935v7.361h-71.669v-7.361h71.669z" fill="#53A6EA"/><path d="M503.777 449.358v3.1h-96.462v-3.099l96.462-.001z" fill="#53A6EA"/><path d="M36.186 456.719v19.37h-5.037v-19.37h5.037zm-11.235 0v19.37h-5.036v-19.37h5.036zm-11.234 0v19.37H8.68v-19.37h5.036zm-11.623 0v19.37h-5.036v-19.37h5.036zm144.5-34.866v19.37h-5.036v-19.37h5.036zm-11.235 0v19.37h-5.036v-19.37h5.036zm-11.623 0v19.37H118.7v-19.37h5.036zm-11.234 0v19.37h-5.036v-19.37h5.036zm-11.234 0v19.37h-5.037v-19.37h5.037zm-11.622 0v19.37H84.61v-19.37h5.036zm-11.234 0v19.37h-5.036v-19.37h5.036zm-11.234 0v19.37h-5.036v-19.37h5.036zm-11.623 0v19.37h-5.037v-19.37h5.037zm-11.235 0v19.37h-5.036v-19.37h5.036zm163.483 25.181v19.37h-5.036v-19.37h5.036zm-11.621 0v19.37h-5.037v-19.37h5.037zm-11.237 0v19.37h-5.036v-19.37h5.036zm-11.621 0v19.37h-5.036v-19.37h5.036zm-11.234 0v19.37h-5.036v-19.37h5.036zm-11.235 0v19.37h-5.036v-19.37h5.036zm-11.623 0v19.37h-5.036v-19.37h5.036zm-11.234 0v19.37h-5.036v-19.37h5.036zm-11.234 0v19.37h-5.036v-19.37h5.036zm-11.621 0v19.37h-5.037v-19.37h5.037zm208.033.775v11.235h-4.649v-11.235h4.649zm-10.459 0v11.235h-4.649v-11.235h4.649zm-10.461 0v11.235h-4.649v-11.235h4.649zm-10.459 0v11.235h-4.649v-11.235h4.649zm-10.461 0v11.235h-4.649v-11.235h4.649zm-10.846 0v11.235h-4.649v-11.235h4.649zm-10.461 0v11.235h-4.648v-11.235h4.648zm-10.459 0v11.235h-4.649v-11.235h4.649z" fill="#196C9B"/><path d="M90.035 167.332l-45.713-39.515h-351.759v35.253l397.472 4.262z" fill="#31779E"/><path d="M.932 167.332l43.388-39.515h-351.76v35.253L.93 167.332z" fill="#196C9B"/><path d="M265.914 163.07h-573.352v83.679h484.637l88.715-83.679z" fill="#53A6EA"/><path d="M185.722 224.667V175.08h52.299l-52.299 49.587zm-17.433-49.587v58.884h-50.362V175.08h50.362zm-60.047 0v58.884h-6.973V175.08h6.973zm-10.459 0v58.884H90.81V175.08h6.973zm-10.461 0v58.884h-6.973V175.08h6.973zm-10.072 0v58.884h-6.973V175.08h6.973zm-10.459 0v58.884h-6.973V175.08h6.973zm-10.072 0v58.884h-6.973V175.08h6.973zm-10.461 0v58.884h-6.973V175.08h6.973zm-10.072 0v58.884h-6.974V175.08h6.974zm-10.459 0v58.884h-6.974V175.08h6.974zm-24.02 0v58.884h-6.973V175.08h6.973z" fill="#196C9B"/><path d="M250.805 163.071H396.08v3.486H248.868l1.937-3.486z" fill="#53A6EA"/></g><defs><clipPath id="clip0_4036_3115"><path fill="#fff" transform="rotate(90 297.5 297.5)" d="M0 0h1165v595H0z"/></clipPath></defs></svg>