<svg width="221" height="67" viewBox="0 0 221 67" fill="none" xmlns="http://www.w3.org/2000/svg">
<path d="M79.998 25.299H86.305C87.1975 25.299 87.9115 25.3189 88.447 25.3587C89.0023 25.3986 89.5874 25.4883 90.2022 25.6278C90.8369 25.7673 91.3426 25.9766 91.7195 26.2556C92.1161 26.5346 92.4533 26.9133 92.731 27.3916C92.9888 27.85 93.1177 28.428 93.1177 29.1256V33.1614C93.1177 34.7758 92.493 35.9417 91.2435 36.6592C90.0138 37.3568 88.1892 37.7055 85.7695 37.7055H82.8838V44.701H79.998V25.299ZM86.1563 35.8819C87.4058 35.8819 88.4073 35.6527 89.161 35.1943C89.9147 34.7359 90.2915 34.0085 90.2915 33.012V29.4843C90.2915 28.9462 90.1527 28.5077 89.875 28.1689C89.5973 27.8102 89.2007 27.561 88.685 27.4215C88.1892 27.3019 87.7727 27.2222 87.4355 27.1824C87.0983 27.1425 86.6521 27.1226 86.0968 27.1226H82.854V35.8819H86.1563Z" fill="#08496E"/>
<path d="M96.9647 25.299H99.8505V44.701H96.9647V25.299Z" fill="#08496E"/>
<path d="M104.838 25.299H108.319L118.82 41.3229V25.299H121.349V44.701H117.868L107.367 28.4081V44.701H104.838V25.299Z" fill="#08496E"/>
<path d="M131.96 25.299H135.292L142.789 44.701H139.784L137.582 38.8117H129.312L127.14 44.701H124.284L131.96 25.299ZM136.868 36.8087L133.596 28.0493H133.328L130.056 36.8087H136.868Z" fill="#08496E"/>
<path d="M154.044 45C153.132 45 152.319 44.9601 151.605 44.8804C150.911 44.8007 150.177 44.6512 149.403 44.432C148.531 44.1928 147.797 43.8939 147.202 43.5351C146.607 43.1565 146.121 42.6482 145.744 42.0105C145.347 41.3328 145.149 40.5755 145.149 39.7384V30.5605C145.149 29.4444 145.437 28.4878 146.012 27.6906C146.587 26.8934 147.38 26.3154 148.392 25.9567C149.364 25.6178 150.286 25.3787 151.158 25.2392C152.051 25.0797 153.013 25 154.044 25C156.504 25 158.725 25.1594 160.708 25.4783V27.7205C159.955 27.5411 158.874 27.3817 157.465 27.2422C156.077 27.0827 154.957 27.003 154.104 27.003C150.038 27.003 148.005 28.1789 148.005 30.5306V39.6786C148.005 40.3164 148.193 40.8744 148.57 41.3528C148.967 41.8311 149.502 42.1799 150.177 42.3991C150.811 42.6383 151.446 42.8077 152.081 42.9073C152.715 42.987 153.429 43.0269 154.223 43.0269C155.552 43.0269 156.97 42.8475 158.477 42.4888V35.7025H153.955V33.6697H161.154V44.1031C158.576 44.701 156.206 45 154.044 45Z" fill="#08496E"/>
<path d="M173.114 45C167.72 45 165.022 43.2461 165.022 39.7384V30.5605C165.022 26.8535 167.72 25 173.114 25C178.568 25 181.296 26.8435 181.296 30.5306V39.7384C181.296 41.6119 180.542 42.9571 179.035 43.7743C177.527 44.5914 175.554 45 173.114 45ZM173.174 43.0568C176.724 43.0568 178.499 41.9407 178.499 39.7085V30.4709C178.499 28.0792 176.714 26.8834 173.144 26.8834C171.419 26.8834 170.09 27.1525 169.158 27.6906C168.245 28.2287 167.789 29.1555 167.789 30.4709V39.7085C167.789 41.9407 169.584 43.0568 173.174 43.0568Z" fill="#08496E"/>
<path d="M185.749 25.299H192.532C194.238 25.299 195.567 25.4086 196.519 25.6278C197.491 25.8271 198.195 26.1958 198.631 26.7339C199.087 27.272 199.315 28.0593 199.315 29.0957V32.4439C199.315 33.5999 198.839 34.4968 197.887 35.1345C196.955 35.7524 195.765 36.0613 194.317 36.0613L200.505 44.701H196.965L191.432 36.42H188.635V44.701H185.749V25.299ZM192.413 34.5067C193.841 34.5067 194.863 34.3373 195.478 33.9985C196.112 33.6398 196.43 33.002 196.43 32.0852V29.3946C196.43 27.9397 195.18 27.2123 192.681 27.2123H188.635V34.5067H192.413Z" fill="#08496E"/>
<path d="M210.169 25.299H213.501L220.998 44.701H217.993L215.792 38.8117H207.521L205.35 44.701H202.494L210.169 25.299ZM215.078 36.8087L211.805 28.0493H211.538L208.265 36.8087H215.078Z" fill="#08496E"/>
<g opacity="0.8" filter="url(#filter0_b_115_5186)">
<path d="M44.3118 14.74L31.9841 21.919C30.9518 22.5205 30.4356 22.8212 30.0293 23.2252C29.6676 23.5843 29.37 24.0027 29.1493 24.4621C28.901 24.9788 28.7869 25.5671 28.5595 26.7392L26.2819 38.4784C25.8049 40.9368 25.5664 42.166 25.8622 43.2006C26.1236 44.1077 26.6627 44.9092 27.4089 45.489C28.2533 46.1494 29.4825 46.3879 31.9365 46.864L53.0217 50.9548C55.4758 51.4309 56.7028 51.669 57.7329 51.3723C58.6408 51.1127 59.4433 50.5724 60.0253 49.8287C60.6861 48.982 60.9241 47.755 61.4003 45.3009L63.6795 33.553C63.9069 32.3809 64.0206 31.7948 63.984 31.2205C63.9515 30.7129 63.8325 30.2145 63.6322 29.7469C63.4046 29.2176 63.041 28.7439 62.3059 27.8019L53.5585 16.5385C52.1991 14.7874 51.5175 13.9104 50.6484 13.4593C49.8831 13.0603 49.0182 12.8925 48.157 12.976C47.1858 13.069 46.2338 13.6225 44.3323 14.728M44.3118 14.74L44.3323 14.728M44.3118 14.74C44.3187 14.736 44.3255 14.732 44.3323 14.728" stroke="url(#paint0_linear_115_5186)" stroke-width="2" stroke-linecap="round" stroke-linejoin="round"/>
<path d="M44.3118 14.74L31.9841 21.919C30.9518 22.5205 30.4356 22.8212 30.0293 23.2252C29.6676 23.5843 29.37 24.0027 29.1493 24.4621C28.901 24.9788 28.7869 25.5671 28.5595 26.7392L26.2819 38.4784C25.8049 40.9368 25.5664 42.166 25.8622 43.2006C26.1236 44.1077 26.6627 44.9092 27.4089 45.489C28.2533 46.1494 29.4825 46.3879 31.9365 46.864L53.0217 50.9548C55.4758 51.4309 56.7028 51.669 57.7329 51.3723C58.6408 51.1127 59.4433 50.5724 60.0253 49.8287C60.6861 48.982 60.9241 47.755 61.4003 45.3009L63.6795 33.553C63.9069 32.3809 64.0206 31.7948 63.984 31.2205C63.9515 30.7129 63.8325 30.2145 63.6322 29.7469C63.4046 29.2176 63.041 28.7439 62.3059 27.8019L53.5585 16.5385C52.1991 14.7874 51.5175 13.9104 50.6484 13.4593C49.8831 13.0603 49.0182 12.8925 48.157 12.976C47.1858 13.069 46.2338 13.6225 44.3323 14.728M44.3118 14.74L44.3323 14.728M44.3118 14.74C44.3187 14.736 44.3255 14.732 44.3323 14.728" stroke="#3698F3" stroke-width="2" stroke-linecap="round" stroke-linejoin="round" style="mix-blend-mode:luminosity"/>
<path d="M44.3118 14.74L31.9841 21.919C30.9518 22.5205 30.4356 22.8212 30.0293 23.2252C29.6676 23.5843 29.37 24.0027 29.1493 24.4621C28.901 24.9788 28.7869 25.5671 28.5595 26.7392L26.2819 38.4784C25.8049 40.9368 25.5664 42.166 25.8622 43.2006C26.1236 44.1077 26.6627 44.9092 27.4089 45.489C28.2533 46.1494 29.4825 46.3879 31.9365 46.864L53.0217 50.9548C55.4758 51.4309 56.7028 51.669 57.7329 51.3723C58.6408 51.1127 59.4433 50.5724 60.0253 49.8287C60.6861 48.982 60.9241 47.755 61.4003 45.3009L63.6795 33.553C63.9069 32.3809 64.0206 31.7948 63.984 31.2205C63.9515 30.7129 63.8325 30.2145 63.6322 29.7469C63.4046 29.2176 63.041 28.7439 62.3059 27.8019L53.5585 16.5385C52.1991 14.7874 51.5175 13.9104 50.6484 13.4593C49.8831 13.0603 49.0182 12.8925 48.157 12.976C47.1858 13.069 46.2338 13.6225 44.3323 14.728M44.3118 14.74L44.3323 14.728M44.3118 14.74C44.3187 14.736 44.3255 14.732 44.3323 14.728" stroke="#3698F3" stroke-width="2" stroke-linecap="round" stroke-linejoin="round" style="mix-blend-mode:darken"/>
</g>
<g opacity="0.8" filter="url(#filter1_b_115_5186)">
<path d="M28.5595 26.7392L26.2819 38.4784C25.8049 40.9368 25.5664 42.166 25.8622 43.2006C26.1236 44.1077 26.6627 44.9092 27.4089 45.489C28.2533 46.1494 29.4825 46.3879 31.9365 46.864L53.0217 50.9548C55.4758 51.4309 56.7028 51.669 57.7329 51.3723C58.6408 51.1127 59.4433 50.5724 60.0253 49.8287C60.6861 48.982 60.9241 47.755 61.4002 45.3009L63.6795 33.553C63.9069 32.3809 64.0206 31.7948 63.984 31.2205C63.9515 30.7129 63.8325 30.2145 63.6322 29.7469C63.4046 29.2176 63.041 28.7439 62.3059 27.8019L53.5585 16.5385C52.1991 14.7874 51.5175 13.9104 50.6484 13.4593C49.8831 13.0603 49.0182 12.8925 48.157 12.976C47.1858 13.069 46.2338 13.6225 44.3323 14.728L44.3118 14.74L31.9841 21.919C30.9518 22.5205 30.4356 22.8212 30.0293 23.2252C29.6676 23.5843 29.37 24.0027 29.1493 24.4621C28.901 24.9788 28.7869 25.5671 28.5595 26.7392Z" fill="url(#paint1_linear_115_5186)"/>
<path d="M28.5595 26.7392L26.2819 38.4784C25.8049 40.9368 25.5664 42.166 25.8622 43.2006C26.1236 44.1077 26.6627 44.9092 27.4089 45.489C28.2533 46.1494 29.4825 46.3879 31.9365 46.864L53.0217 50.9548C55.4758 51.4309 56.7028 51.669 57.7329 51.3723C58.6408 51.1127 59.4433 50.5724 60.0253 49.8287C60.6861 48.982 60.9241 47.755 61.4002 45.3009L63.6795 33.553C63.9069 32.3809 64.0206 31.7948 63.984 31.2205C63.9515 30.7129 63.8325 30.2145 63.6322 29.7469C63.4046 29.2176 63.041 28.7439 62.3059 27.8019L53.5585 16.5385C52.1991 14.7874 51.5175 13.9104 50.6484 13.4593C49.8831 13.0603 49.0182 12.8925 48.157 12.976C47.1858 13.069 46.2338 13.6225 44.3323 14.728L44.3118 14.74L31.9841 21.919C30.9518 22.5205 30.4356 22.8212 30.0293 23.2252C29.6676 23.5843 29.37 24.0027 29.1493 24.4621C28.901 24.9788 28.7869 25.5671 28.5595 26.7392Z" fill="#3698F3" style="mix-blend-mode:luminosity"/>
<path d="M28.5595 26.7392L26.2819 38.4784C25.8049 40.9368 25.5664 42.166 25.8622 43.2006C26.1236 44.1077 26.6627 44.9092 27.4089 45.489C28.2533 46.1494 29.4825 46.3879 31.9365 46.864L53.0217 50.9548C55.4758 51.4309 56.7028 51.669 57.7329 51.3723C58.6408 51.1127 59.4433 50.5724 60.0253 49.8287C60.6861 48.982 60.9241 47.755 61.4002 45.3009L63.6795 33.553C63.9069 32.3809 64.0206 31.7948 63.984 31.2205C63.9515 30.7129 63.8325 30.2145 63.6322 29.7469C63.4046 29.2176 63.041 28.7439 62.3059 27.8019L53.5585 16.5385C52.1991 14.7874 51.5175 13.9104 50.6484 13.4593C49.8831 13.0603 49.0182 12.8925 48.157 12.976C47.1858 13.069 46.2338 13.6225 44.3323 14.728L44.3118 14.74L31.9841 21.919C30.9518 22.5205 30.4356 22.8212 30.0293 23.2252C29.6676 23.5843 29.37 24.0027 29.1493 24.4621C28.901 24.9788 28.7869 25.5671 28.5595 26.7392Z" fill="#3698F3" style="mix-blend-mode:darken"/>
</g>
<g opacity="0.8" filter="url(#filter2_bif_115_5186)">
<path d="M32.2448 28.395L30.4858 37.4617C30.1174 39.3604 29.9332 40.3098 30.1616 41.1088C30.3635 41.8094 30.7799 42.4285 31.3562 42.8763C32.0084 43.3864 32.9578 43.5706 34.8531 43.9383L51.1382 47.0978C53.0335 47.4656 53.9812 47.6494 54.7768 47.4203C55.4781 47.2198 56.0978 46.8024 56.5473 46.228C57.0577 45.5741 57.2416 44.6264 57.6093 42.7311L59.3697 33.6576C59.5453 32.7523 59.6331 32.2996 59.6048 31.8561C59.5797 31.464 59.4878 31.0791 59.3331 30.718C59.1573 30.3092 58.8765 29.9433 58.3087 29.2157L51.5528 20.5165C50.5028 19.1641 49.9764 18.4867 49.3051 18.1383C48.714 17.8301 48.0461 17.7006 47.3809 17.765C46.6308 17.8368 45.8955 18.2643 44.4269 19.1182L44.4111 19.1274L34.8898 24.6721C34.0925 25.1367 33.6939 25.3689 33.38 25.681C33.1007 25.9583 32.8708 26.2814 32.7004 26.6363C32.5086 27.0353 32.4205 27.4897 32.2448 28.395Z" fill="url(#paint2_linear_115_5186)"/>
<path d="M32.2448 28.395L30.4858 37.4617C30.1174 39.3604 29.9332 40.3098 30.1616 41.1088C30.3635 41.8094 30.7799 42.4285 31.3562 42.8763C32.0084 43.3864 32.9578 43.5706 34.8531 43.9383L51.1382 47.0978C53.0335 47.4656 53.9812 47.6494 54.7768 47.4203C55.4781 47.2198 56.0978 46.8024 56.5473 46.228C57.0577 45.5741 57.2416 44.6264 57.6093 42.7311L59.3697 33.6576C59.5453 32.7523 59.6331 32.2996 59.6048 31.8561C59.5797 31.464 59.4878 31.0791 59.3331 30.718C59.1573 30.3092 58.8765 29.9433 58.3087 29.2157L51.5528 20.5165C50.5028 19.1641 49.9764 18.4867 49.3051 18.1383C48.714 17.8301 48.0461 17.7006 47.3809 17.765C46.6308 17.8368 45.8955 18.2643 44.4269 19.1182L44.4111 19.1274L34.8898 24.6721C34.0925 25.1367 33.6939 25.3689 33.38 25.681C33.1007 25.9583 32.8708 26.2814 32.7004 26.6363C32.5086 27.0353 32.4205 27.4897 32.2448 28.395Z" fill="#3698F3" style="mix-blend-mode:luminosity"/>
<path d="M32.2448 28.395L30.4858 37.4617C30.1174 39.3604 29.9332 40.3098 30.1616 41.1088C30.3635 41.8094 30.7799 42.4285 31.3562 42.8763C32.0084 43.3864 32.9578 43.5706 34.8531 43.9383L51.1382 47.0978C53.0335 47.4656 53.9812 47.6494 54.7768 47.4203C55.4781 47.2198 56.0978 46.8024 56.5473 46.228C57.0577 45.5741 57.2416 44.6264 57.6093 42.7311L59.3697 33.6576C59.5453 32.7523 59.6331 32.2996 59.6048 31.8561C59.5797 31.464 59.4878 31.0791 59.3331 30.718C59.1573 30.3092 58.8765 29.9433 58.3087 29.2157L51.5528 20.5165C50.5028 19.1641 49.9764 18.4867 49.3051 18.1383C48.714 17.8301 48.0461 17.7006 47.3809 17.765C46.6308 17.8368 45.8955 18.2643 44.4269 19.1182L44.4111 19.1274L34.8898 24.6721C34.0925 25.1367 33.6939 25.3689 33.38 25.681C33.1007 25.9583 32.8708 26.2814 32.7004 26.6363C32.5086 27.0353 32.4205 27.4897 32.2448 28.395Z" fill="#3698F3" style="mix-blend-mode:darken"/>
</g>
<g opacity="0.8">
<g opacity="0.8" filter="url(#filter3_b_115_5186)">
<path d="M13.8267 32.4922L13.8267 45.5882C13.8267 48.3309 13.8267 49.7022 14.3605 50.7527C14.8306 51.6734 15.5775 52.4228 16.5007 52.8905C17.5463 53.4243 18.9175 53.4243 21.6552 53.4243L45.1776 53.4243C47.9153 53.4243 49.2841 53.4243 50.3297 52.8905C51.2517 52.422 52.0017 51.6736 52.4723 50.7527C53.0061 49.7046 53.0061 48.3358 53.0061 45.598L53.0061 32.4922C53.0061 31.1846 53.0061 30.5308 52.847 29.921C52.7061 29.382 52.4742 28.871 52.1613 28.4101C51.8063 27.8885 51.3165 27.4551 50.3297 26.5956L38.5759 16.3107C36.7491 14.7117 35.8333 13.9109 34.8048 13.6073C33.8988 13.3379 32.934 13.3379 32.0255 13.6073C31.0007 13.9099 30.0927 14.7035 28.279 16.2887L28.2594 16.3058L16.5031 26.5956C15.5187 27.4575 15.0265 27.8885 14.6739 28.4077C14.36 28.8692 14.1273 29.381 13.9858 29.921C13.8267 30.5283 13.8267 31.1846 13.8267 32.4922Z" fill="#8DBBED" fill-opacity="0.4" style="mix-blend-mode:darken"/>
</g>
</g>
<defs>
<filter id="filter0_b_115_5186" x="-165.268" y="-178.045" width="420.258" height="420.548" filterUnits="userSpaceOnUse" color-interpolation-filters="sRGB">
<feFlood flood-opacity="0" result="BackgroundImageFix"/>
<feGaussianBlur in="BackgroundImageFix" stdDeviation="95"/>
<feComposite in2="SourceAlpha" operator="in" result="effect1_backgroundBlur_115_5186"/>
<feBlend mode="normal" in="SourceGraphic" in2="effect1_backgroundBlur_115_5186" result="shape"/>
</filter>
<filter id="filter1_b_115_5186" x="-164.268" y="-177.045" width="418.258" height="418.548" filterUnits="userSpaceOnUse" color-interpolation-filters="sRGB">
<feFlood flood-opacity="0" result="BackgroundImageFix"/>
<feGaussianBlur in="BackgroundImageFix" stdDeviation="95"/>
<feComposite in2="SourceAlpha" operator="in" result="effect1_backgroundBlur_115_5186"/>
<feBlend mode="normal" in="SourceGraphic" in2="effect1_backgroundBlur_115_5186" result="shape"/>
</filter>
<filter id="filter2_bif_115_5186" x="-159.939" y="-172.251" width="409.549" height="409.772" filterUnits="userSpaceOnUse" color-interpolation-filters="sRGB">
<feFlood flood-opacity="0" result="BackgroundImageFix"/>
<feGaussianBlur in="BackgroundImageFix" stdDeviation="95"/>
<feComposite in2="SourceAlpha" operator="in" result="effect1_backgroundBlur_115_5186"/>
<feBlend mode="normal" in="SourceGraphic" in2="effect1_backgroundBlur_115_5186" result="shape"/>
<feColorMatrix in="SourceAlpha" type="matrix" values="0 0 0 0 0 0 0 0 0 0 0 0 0 0 0 0 0 0 127 0" result="hardAlpha"/>
<feOffset dx="6" dy="4"/>
<feGaussianBlur stdDeviation="12"/>
<feComposite in2="hardAlpha" operator="arithmetic" k2="-1" k3="1"/>
<feColorMatrix type="matrix" values="0 0 0 0 0 0 0 0 0 0 0 0 0 0 0 0 0 0 0.06 0"/>
<feBlend mode="normal" in2="shape" result="effect2_innerShadow_115_5186"/>
<feGaussianBlur stdDeviation="0.5" result="effect3_foregroundBlur_115_5186"/>
</filter>
<filter id="filter3_b_115_5186" x="-276.379" y="-276.595" width="619.385" height="620.019" filterUnits="userSpaceOnUse" color-interpolation-filters="sRGB">
<feFlood flood-opacity="0" result="BackgroundImageFix"/>
<feGaussianBlur in="BackgroundImageFix" stdDeviation="145"/>
<feComposite in2="SourceAlpha" operator="in" result="effect1_backgroundBlur_115_5186"/>
<feBlend mode="normal" in="SourceGraphic" in2="effect1_backgroundBlur_115_5186" result="shape"/>
</filter>
<linearGradient id="paint0_linear_115_5186" x1="49.4389" y1="13.0368" x2="42.4791" y2="48.9094" gradientUnits="userSpaceOnUse">
<stop stop-color="#64A7FE"/>
<stop offset="1" stop-color="#0A8ED9"/>
</linearGradient>
<linearGradient id="paint1_linear_115_5186" x1="49.4389" y1="13.0368" x2="42.4791" y2="48.9094" gradientUnits="userSpaceOnUse">
<stop stop-color="#64A7FE"/>
<stop offset="1" stop-color="#0A8ED9"/>
</linearGradient>
<linearGradient id="paint2_linear_115_5186" x1="48.371" y1="17.812" x2="42.9956" y2="45.5181" gradientUnits="userSpaceOnUse">
<stop stop-color="#64A7FE"/>
<stop offset="1" stop-color="#0A8ED9"/>
</linearGradient>
</defs>
</svg>
