<svg width="208" height="42" viewBox="0 0 208 42" fill="none" xmlns="http://www.w3.org/2000/svg">
<path d="M66.377 14.6691H72.6839C73.5764 14.6691 74.2904 14.689 74.8259 14.7289C75.3812 14.7687 75.9663 14.8584 76.5811 14.9979C77.2158 15.1374 77.7216 15.3467 78.0984 15.6257C78.495 15.9047 78.8322 16.2834 79.1099 16.7617C79.3677 17.2201 79.4966 17.7981 79.4966 18.4957V22.5316C79.4966 24.1459 78.8719 25.3118 77.6224 26.0293C76.3927 26.7269 74.5681 27.0756 72.1484 27.0756H69.2627V34.0712H66.377V14.6691ZM72.5352 25.252C73.7847 25.252 74.7862 25.0228 75.5399 24.5644C76.2936 24.106 76.6704 23.3786 76.6704 22.3821V18.8544C76.6704 18.3163 76.5316 17.8778 76.2539 17.539C75.9762 17.1803 75.5796 16.9312 75.0639 16.7916C74.5681 16.6721 74.1516 16.5923 73.8144 16.5525C73.4772 16.5126 73.031 16.4927 72.4757 16.4927H69.2329V25.252H72.5352Z" fill="#08496E"/>
<path d="M83.3437 14.6691H86.2294V34.0712H83.3437V14.6691Z" fill="#08496E"/>
<path d="M91.2169 14.6691H94.6976L105.199 30.693V14.6691H107.728V34.0712H104.247L93.7456 17.7782V34.0712H91.2169V14.6691Z" fill="#08496E"/>
<path d="M118.339 14.6691H121.67L129.167 34.0712H126.163L123.961 28.1818H115.691L113.519 34.0712H110.663L118.339 14.6691ZM123.247 26.1788L119.975 17.4194H119.707L116.435 26.1788H123.247Z" fill="#08496E"/>
<path d="M140.423 34.3701C139.511 34.3701 138.698 34.3303 137.984 34.2505C137.289 34.1708 136.556 34.0213 135.782 33.8021C134.909 33.5629 134.176 33.264 133.581 32.9052C132.986 32.5266 132.5 32.0183 132.123 31.3806C131.726 30.703 131.528 29.9456 131.528 29.1085V19.9307C131.528 18.8146 131.815 17.8579 132.391 17.0607C132.966 16.2635 133.759 15.6855 134.771 15.3268C135.742 14.988 136.665 14.7488 137.537 14.6093C138.43 14.4498 139.392 14.3701 140.423 14.3701C142.882 14.3701 145.104 14.5296 147.087 14.8484V17.0906C146.333 16.9112 145.253 16.7518 143.844 16.6123C142.456 16.4528 141.335 16.3731 140.483 16.3731C136.417 16.3731 134.384 17.549 134.384 19.9008V29.0487C134.384 29.6865 134.572 30.2446 134.949 30.7229C135.346 31.2012 135.881 31.55 136.556 31.7692C137.19 32.0084 137.825 32.1778 138.46 32.2774C139.094 32.3572 139.808 32.397 140.602 32.397C141.93 32.397 143.349 32.2177 144.856 31.8589V25.0727H140.334V23.0398H147.533V33.4733C144.955 34.0712 142.585 34.3701 140.423 34.3701Z" fill="#08496E"/>
<path d="M159.493 34.3701C154.099 34.3701 151.401 32.6163 151.401 29.1085V19.9307C151.401 16.2236 154.099 14.3701 159.493 14.3701C164.947 14.3701 167.674 16.2137 167.674 19.9008V29.1085C167.674 30.982 166.921 32.3273 165.413 33.1444C163.906 33.9615 161.933 34.3701 159.493 34.3701ZM159.553 32.4269C163.103 32.4269 164.878 31.3108 164.878 29.0786V19.841C164.878 17.4493 163.093 16.2535 159.523 16.2535C157.797 16.2535 156.469 16.5226 155.536 17.0607C154.624 17.5988 154.168 18.5256 154.168 19.841V29.0786C154.168 31.3108 155.963 32.4269 159.553 32.4269Z" fill="#08496E"/>
<path d="M172.128 14.6691H178.911C180.617 14.6691 181.946 14.7787 182.898 14.9979C183.87 15.1972 184.574 15.5659 185.01 16.104C185.466 16.6422 185.694 17.4294 185.694 18.4658V21.8141C185.694 22.97 185.218 23.8669 184.266 24.5046C183.334 25.1225 182.144 25.4314 180.696 25.4314L186.884 34.0712H183.344L177.811 25.7901H175.014V34.0712H172.128V14.6691ZM178.792 23.8768C180.22 23.8768 181.242 23.7074 181.856 23.3686C182.491 23.0099 182.808 22.3721 182.808 21.4553V18.7647C182.808 17.3098 181.559 16.5824 179.06 16.5824H175.014V23.8768H178.792Z" fill="#08496E"/>
<path d="M196.548 14.6691H199.88L207.377 34.0712H204.372L202.171 28.1818H193.9L191.729 34.0712H188.873L196.548 14.6691ZM201.457 26.1788L198.184 17.4194H197.917L194.644 26.1788H201.457Z" fill="#08496E"/>
<g clip-path="url(#clip0_4018_345)">
<g opacity="0.8">
<path d="M30.6909 3.11005L18.3632 10.2891C17.3309 10.8906 16.8147 11.1913 16.4084 11.5953C16.0467 11.9545 15.7491 12.3728 15.5284 12.8322C15.2801 13.3489 15.166 13.9372 14.9386 15.1093L12.661 26.8485C12.184 29.3069 11.9455 30.5362 12.2413 31.5707C12.5027 32.4778 13.0418 33.2794 13.788 33.8592C14.6324 34.5195 15.8616 34.758 18.3156 35.2341L39.4008 39.325C41.8549 39.8011 43.0819 40.0391 44.112 39.7424C45.0199 39.4829 45.8224 38.9425 46.4044 38.1988C47.0652 37.3521 47.3032 36.1251 47.7794 33.671L50.0586 21.9231C50.286 20.751 50.3997 20.1649 50.3631 19.5906C50.3306 19.083 50.2116 18.5846 50.0113 18.1171C49.7837 17.5878 49.4201 17.1141 48.685 16.172L39.9376 4.9086C38.5782 3.15754 37.8966 2.28048 37.0275 1.82943C36.2622 1.43041 35.3973 1.26262 34.5361 1.34608C33.5649 1.43907 32.6129 1.99259 30.7114 3.09813M30.6909 3.11005L30.7114 3.09813M30.6909 3.11005C30.6978 3.10607 30.7046 3.10209 30.7114 3.09813" stroke="url(#paint0_linear_4018_345)" stroke-width="2" stroke-linecap="round" stroke-linejoin="round"/>
<g style="mix-blend-mode:luminosity">
<path d="M30.6909 3.11005L18.3632 10.2891C17.3309 10.8906 16.8147 11.1913 16.4084 11.5953C16.0467 11.9545 15.7491 12.3728 15.5284 12.8322C15.2801 13.3489 15.166 13.9372 14.9386 15.1093L12.661 26.8485C12.184 29.3069 11.9455 30.5362 12.2413 31.5707C12.5027 32.4778 13.0418 33.2794 13.788 33.8592C14.6324 34.5195 15.8616 34.758 18.3156 35.2341L39.4008 39.325C41.8549 39.8011 43.0819 40.0391 44.112 39.7424C45.0199 39.4829 45.8224 38.9425 46.4044 38.1988C47.0652 37.3521 47.3032 36.1251 47.7794 33.671L50.0586 21.9231C50.286 20.751 50.3997 20.1649 50.3631 19.5906C50.3306 19.083 50.2116 18.5846 50.0113 18.1171C49.7837 17.5878 49.4201 17.1141 48.685 16.172L39.9376 4.9086C38.5782 3.15754 37.8966 2.28048 37.0275 1.82943C36.2622 1.43041 35.3973 1.26262 34.5361 1.34608C33.5649 1.43907 32.6129 1.99259 30.7114 3.09813M30.6909 3.11005L30.7114 3.09813M30.6909 3.11005C30.6978 3.10607 30.7046 3.10209 30.7114 3.09813" stroke="#3698F3" stroke-width="2" stroke-linecap="round" stroke-linejoin="round"/>
</g>
<g style="mix-blend-mode:darken">
<path d="M30.6909 3.11005L18.3632 10.2891C17.3309 10.8906 16.8147 11.1913 16.4084 11.5953C16.0467 11.9545 15.7491 12.3728 15.5284 12.8322C15.2801 13.3489 15.166 13.9372 14.9386 15.1093L12.661 26.8485C12.184 29.3069 11.9455 30.5362 12.2413 31.5707C12.5027 32.4778 13.0418 33.2794 13.788 33.8592C14.6324 34.5195 15.8616 34.758 18.3156 35.2341L39.4008 39.325C41.8549 39.8011 43.0819 40.0391 44.112 39.7424C45.0199 39.4829 45.8224 38.9425 46.4044 38.1988C47.0652 37.3521 47.3032 36.1251 47.7794 33.671L50.0586 21.9231C50.286 20.751 50.3997 20.1649 50.3631 19.5906C50.3306 19.083 50.2116 18.5846 50.0113 18.1171C49.7837 17.5878 49.4201 17.1141 48.685 16.172L39.9376 4.9086C38.5782 3.15754 37.8966 2.28048 37.0275 1.82943C36.2622 1.43041 35.3973 1.26262 34.5361 1.34608C33.5649 1.43907 32.6129 1.99259 30.7114 3.09813M30.6909 3.11005L30.7114 3.09813M30.6909 3.11005C30.6978 3.10607 30.7046 3.10209 30.7114 3.09813" stroke="#3698F3" stroke-width="2" stroke-linecap="round" stroke-linejoin="round"/>
</g>
</g>
<g opacity="0.8">
<path d="M14.9386 15.1093L12.661 26.8485C12.184 29.3069 11.9455 30.5362 12.2413 31.5707C12.5027 32.4778 13.0418 33.2794 13.788 33.8592C14.6324 34.5195 15.8616 34.758 18.3156 35.2341L39.4008 39.325C41.8549 39.8011 43.0819 40.0391 44.112 39.7424C45.0199 39.4829 45.8224 38.9425 46.4044 38.1988C47.0652 37.3521 47.3032 36.1251 47.7794 33.671L50.0586 21.9231C50.286 20.751 50.3997 20.1649 50.3631 19.5906C50.3306 19.083 50.2116 18.5846 50.0113 18.1171C49.7837 17.5878 49.4201 17.1141 48.685 16.172L39.9376 4.9086C38.5782 3.15754 37.8966 2.28048 37.0275 1.82943C36.2622 1.43041 35.3973 1.26262 34.5361 1.34608C33.5649 1.43907 32.6129 1.99259 30.7114 3.09813L30.6909 3.11005L18.3632 10.2891C17.3309 10.8906 16.8147 11.1913 16.4084 11.5953C16.0467 11.9545 15.7491 12.3728 15.5284 12.8322C15.2801 13.3489 15.166 13.9372 14.9386 15.1093Z" fill="url(#paint1_linear_4018_345)"/>
<g style="mix-blend-mode:luminosity">
<path d="M14.9386 15.1093L12.661 26.8485C12.184 29.3069 11.9455 30.5362 12.2413 31.5707C12.5027 32.4778 13.0418 33.2794 13.788 33.8592C14.6324 34.5195 15.8616 34.758 18.3156 35.2341L39.4008 39.325C41.8549 39.8011 43.0819 40.0391 44.112 39.7424C45.0199 39.4829 45.8224 38.9425 46.4044 38.1988C47.0652 37.3521 47.3032 36.1251 47.7794 33.671L50.0586 21.9231C50.286 20.751 50.3997 20.1649 50.3631 19.5906C50.3306 19.083 50.2116 18.5846 50.0113 18.1171C49.7837 17.5878 49.4201 17.1141 48.685 16.172L39.9376 4.9086C38.5782 3.15754 37.8966 2.28048 37.0275 1.82943C36.2622 1.43041 35.3973 1.26262 34.5361 1.34608C33.5649 1.43907 32.6129 1.99259 30.7114 3.09813L30.6909 3.11005L18.3632 10.2891C17.3309 10.8906 16.8147 11.1913 16.4084 11.5953C16.0467 11.9545 15.7491 12.3728 15.5284 12.8322C15.2801 13.3489 15.166 13.9372 14.9386 15.1093Z" fill="#3698F3"/>
</g>
<g style="mix-blend-mode:darken">
<path d="M14.9386 15.1093L12.661 26.8485C12.184 29.3069 11.9455 30.5362 12.2413 31.5707C12.5027 32.4778 13.0418 33.2794 13.788 33.8592C14.6324 34.5195 15.8616 34.758 18.3156 35.2341L39.4008 39.325C41.8549 39.8011 43.0819 40.0391 44.112 39.7424C45.0199 39.4829 45.8224 38.9425 46.4044 38.1988C47.0652 37.3521 47.3032 36.1251 47.7794 33.671L50.0586 21.9231C50.286 20.751 50.3997 20.1649 50.3631 19.5906C50.3306 19.083 50.2116 18.5846 50.0113 18.1171C49.7837 17.5878 49.4201 17.1141 48.685 16.172L39.9376 4.9086C38.5782 3.15754 37.8966 2.28048 37.0275 1.82943C36.2622 1.43041 35.3973 1.26262 34.5361 1.34608C33.5649 1.43907 32.6129 1.99259 30.7114 3.09813L30.6909 3.11005L18.3632 10.2891C17.3309 10.8906 16.8147 11.1913 16.4084 11.5953C16.0467 11.9545 15.7491 12.3728 15.5284 12.8322C15.2801 13.3489 15.166 13.9372 14.9386 15.1093Z" fill="#3698F3"/>
</g>
</g>
<g opacity="0.8" filter="url(#filter0_if_4018_345)">
<path d="M18.6239 16.7652L16.8649 25.8319C16.4965 27.7307 16.3123 28.6801 16.5408 29.4791C16.7426 30.1797 17.159 30.7988 17.7353 31.2466C18.3875 31.7566 19.3369 31.9408 21.2322 32.3085L37.5173 35.468C39.4126 35.8358 40.3603 36.0196 41.1559 35.7905C41.8572 35.59 42.4769 35.1726 42.9264 34.5983C43.4368 33.9444 43.6207 32.9967 43.9884 31.1013L45.7488 22.0278C45.9244 21.1225 46.0122 20.6698 45.984 20.2263C45.9588 19.8343 45.8669 19.4493 45.7122 19.0882C45.5365 18.6794 45.2556 18.3136 44.6879 17.5859L37.9319 8.88674C36.882 7.53434 36.3555 6.85695 35.6842 6.50858C35.0931 6.2004 34.4252 6.07081 33.7601 6.13527C33.0099 6.20709 32.2746 6.6346 30.8061 7.48845L30.7902 7.49766L21.2689 13.0423C20.4716 13.5069 20.073 13.7391 19.7591 14.0512C19.4798 14.3286 19.2499 14.6516 19.0795 15.0065C18.8877 15.4055 18.7996 15.8599 18.6239 16.7652Z" fill="url(#paint2_linear_4018_345)"/>
<g style="mix-blend-mode:luminosity">
<path d="M18.6239 16.7652L16.8649 25.8319C16.4965 27.7307 16.3123 28.6801 16.5408 29.4791C16.7426 30.1797 17.159 30.7988 17.7353 31.2466C18.3875 31.7566 19.3369 31.9408 21.2322 32.3085L37.5173 35.468C39.4126 35.8358 40.3603 36.0196 41.1559 35.7905C41.8572 35.59 42.4769 35.1726 42.9264 34.5983C43.4368 33.9444 43.6207 32.9967 43.9884 31.1013L45.7488 22.0278C45.9244 21.1225 46.0122 20.6698 45.984 20.2263C45.9588 19.8343 45.8669 19.4493 45.7122 19.0882C45.5365 18.6794 45.2556 18.3136 44.6879 17.5859L37.9319 8.88674C36.882 7.53434 36.3555 6.85695 35.6842 6.50858C35.0931 6.2004 34.4252 6.07081 33.7601 6.13527C33.0099 6.20709 32.2746 6.6346 30.8061 7.48845L30.7902 7.49766L21.2689 13.0423C20.4716 13.5069 20.073 13.7391 19.7591 14.0512C19.4798 14.3286 19.2499 14.6516 19.0795 15.0065C18.8877 15.4055 18.7996 15.8599 18.6239 16.7652Z" fill="#3698F3"/>
</g>
<g style="mix-blend-mode:darken">
<path d="M18.6239 16.7652L16.8649 25.8319C16.4965 27.7307 16.3123 28.6801 16.5408 29.4791C16.7426 30.1797 17.159 30.7988 17.7353 31.2466C18.3875 31.7566 19.3369 31.9408 21.2322 32.3085L37.5173 35.468C39.4126 35.8358 40.3603 36.0196 41.1559 35.7905C41.8572 35.59 42.4769 35.1726 42.9264 34.5983C43.4368 33.9444 43.6207 32.9967 43.9884 31.1013L45.7488 22.0278C45.9244 21.1225 46.0122 20.6698 45.984 20.2263C45.9588 19.8343 45.8669 19.4493 45.7122 19.0882C45.5365 18.6794 45.2556 18.3136 44.6879 17.5859L37.9319 8.88674C36.882 7.53434 36.3555 6.85695 35.6842 6.50858C35.0931 6.2004 34.4252 6.07081 33.7601 6.13527C33.0099 6.20709 32.2746 6.6346 30.8061 7.48845L30.7902 7.49766L21.2689 13.0423C20.4716 13.5069 20.073 13.7391 19.7591 14.0512C19.4798 14.3286 19.2499 14.6516 19.0795 15.0065C18.8877 15.4055 18.7996 15.8599 18.6239 16.7652Z" fill="#3698F3"/>
</g>
</g>
<g opacity="0.8">
<g style="mix-blend-mode:darken">
<path d="M0.205566 20.8623V33.9584C0.205566 36.701 0.205566 38.0723 0.739386 39.1228C1.20954 40.0436 1.9564 40.7929 2.87956 41.2606C3.92517 41.7944 5.29645 41.7944 8.03412 41.7944H31.5565C34.2942 41.7944 35.663 41.7944 36.7086 41.2606C37.6306 40.7921 38.3806 40.0438 38.8512 39.1228C39.385 38.0747 39.385 36.7059 39.385 33.9682V20.8623C39.385 19.5547 39.385 18.9009 39.2259 18.2911C39.085 17.7521 38.8531 17.2412 38.5402 16.7802C38.1852 16.2586 37.6954 15.8252 36.7086 14.9657L24.9548 4.68086C23.128 3.08181 22.2122 2.28106 21.1837 1.97741C20.2777 1.70805 19.3129 1.70805 18.4044 1.97741C17.3796 2.27998 16.4716 3.07366 14.6579 4.65886L14.6383 4.67596L2.88201 14.9657C1.89763 15.8277 1.40544 16.2586 1.05282 16.7778C0.738896 17.2393 0.506181 17.7512 0.364733 18.2911C0.205566 18.8984 0.205566 19.5547 0.205566 20.8623Z" fill="#8DBBED" fill-opacity="0.4"/>
</g>
</g>
</g>
<defs>
<filter id="filter0_if_4018_345" x="15.4404" y="5.11914" width="36.5488" height="34.7725" filterUnits="userSpaceOnUse" color-interpolation-filters="sRGB">
<feFlood flood-opacity="0" result="BackgroundImageFix"/>
<feBlend mode="normal" in="SourceGraphic" in2="BackgroundImageFix" result="shape"/>
<feColorMatrix in="SourceAlpha" type="matrix" values="0 0 0 0 0 0 0 0 0 0 0 0 0 0 0 0 0 0 127 0" result="hardAlpha"/>
<feOffset dx="6" dy="4"/>
<feGaussianBlur stdDeviation="12"/>
<feComposite in2="hardAlpha" operator="arithmetic" k2="-1" k3="1"/>
<feColorMatrix type="matrix" values="0 0 0 0 0 0 0 0 0 0 0 0 0 0 0 0 0 0 0.06 0"/>
<feBlend mode="normal" in2="shape" result="effect1_innerShadow_4018_345"/>
<feGaussianBlur stdDeviation="0.5" result="effect2_foregroundBlur_4018_345"/>
</filter>
<linearGradient id="paint0_linear_4018_345" x1="35.818" y1="1.40688" x2="28.8582" y2="37.2795" gradientUnits="userSpaceOnUse">
<stop stop-color="#64A7FE"/>
<stop offset="1" stop-color="#0A8ED9"/>
</linearGradient>
<linearGradient id="paint1_linear_4018_345" x1="35.818" y1="1.40688" x2="28.8582" y2="37.2795" gradientUnits="userSpaceOnUse">
<stop stop-color="#64A7FE"/>
<stop offset="1" stop-color="#0A8ED9"/>
</linearGradient>
<linearGradient id="paint2_linear_4018_345" x1="34.7501" y1="6.18223" x2="29.3747" y2="33.8883" gradientUnits="userSpaceOnUse">
<stop stop-color="#64A7FE"/>
<stop offset="1" stop-color="#0A8ED9"/>
</linearGradient>
<clipPath id="clip0_4018_345">
<rect width="52" height="42" fill="white"/>
</clipPath>
</defs>
</svg>
