<svg width="595" height="1165" viewBox="0 0 595 1165" fill="none" xmlns="http://www.w3.org/2000/svg">
<g clip-path="url(#clip0_4036_3115)">
<path d="M59.3789 1134.43L59.3789 1195.25L-211.414 1195.25L-211.414 1134.43L59.3789 1134.43Z" fill="#E6F0F5"/>
<path d="M207.029 498.559L207.029 616.716L-313.636 616.716L-313.636 498.559L207.029 498.559Z" fill="#BBDCEF"/>
<path d="M238.408 524.514L238.408 603.931L203.155 603.931L203.155 524.514L238.408 524.514Z" fill="#BBDCEF"/>
<path d="M259.715 538.461L259.715 589.211L237.246 589.211L237.246 538.461L259.715 538.461Z" fill="#BBDCEF"/>
<path d="M278.311 544.659L278.311 583.399L257.004 583.399L257.004 544.659L278.311 544.659Z" fill="#BBDCEF"/>
<path d="M184.561 779.811L184.561 897.968L-336.105 897.968L-336.105 779.811L184.561 779.811Z" fill="#BBDCEF"/>
<path d="M212.84 805.379L212.84 884.796L177.586 884.796L177.586 805.379L212.84 805.379Z" fill="#BBDCEF"/>
<path d="M234.146 819.712L234.146 870.462L211.677 870.462L211.677 819.712L234.146 819.712Z" fill="#BBDCEF"/>
<path d="M252.742 825.911L252.742 864.651L231.435 864.651L231.435 825.911L252.742 825.911Z" fill="#BBDCEF"/>
<path d="M349.98 951.04L349.98 1069.2L-170.685 1069.2L-170.685 951.04L349.98 951.04Z" fill="#E6F0F5"/>
<path d="M382.135 977L382.135 1056.41L346.881 1056.41L346.881 977L382.135 977Z" fill="#E6F0F5"/>
<path d="M403.055 990.94L403.055 1041.69L380.585 1041.69L380.585 990.94L403.055 990.94Z" fill="#E6F0F5"/>
<path d="M422.037 997.14L422.037 1035.88L400.73 1035.88L400.73 997.14L422.037 997.14Z" fill="#E6F0F5"/>
<path d="M409.252 298.273L409.252 416.43L-111.414 416.43L-111.414 298.273L409.252 298.273Z" fill="#E6F0F5"/>
<path d="M441.406 323.841L441.406 403.258L406.153 403.258L406.153 323.841L441.406 323.841Z" fill="#E6F0F5"/>
<path d="M462.326 338.174L462.326 388.924L439.857 388.924L439.857 338.174L462.326 338.174Z" fill="#E6F0F5"/>
<path d="M481.309 344.373L481.309 383.113L460.002 383.113L460.002 344.373L481.309 344.373Z" fill="#E6F0F5"/>
<path d="M332.159 1165.27L400.729 1104.06L332.159 1047.12L-188.12 1047.12L-188.12 1165.27L332.159 1165.27Z" fill="#BBDCEF"/>
<path d="M97.0078 409.069L97.0078 487.711L-116.062 487.711L-116.062 409.069L97.0078 409.069Z" fill="#BBDCEF"/>
<path d="M17.2031 304.859L17.2031 383.501L-319.06 383.501L-319.06 304.859L17.2031 304.859Z" fill="#BBDCEF"/>
<path d="M330.223 194.449L330.223 273.092L-271.797 273.092L-271.797 194.449L330.223 194.449Z" fill="#BBDCEF"/>
<path d="M380.584 68.9321L380.584 138.664L-271.41 138.664L-271.41 68.9321L380.584 68.9321Z" fill="#BBDCEF"/>
<path d="M29.9878 -24.4312L29.9878 36.3901L-240.804 36.3901L-240.804 -24.4312L29.9878 -24.4312Z" fill="#BBDCEF"/>
<path d="M368.575 898.742L-185.794 918.112C-185.794 918.112 -228.021 919.662 -216.786 878.21C-44.3931 851.092 249.644 846.056 368.963 862.714L368.963 898.742L368.575 898.742Z" fill="#8DBBED"/>
<path d="M368.576 944.07L-198.965 923.923L-209.037 880.535C-209.037 880.535 85.7742 855.741 368.189 892.157L368.189 944.07L368.576 944.07Z" fill="#196C9B"/>
<path d="M368.576 943.68L368.576 952.98C322.088 958.79 69.5032 987.46 -217.173 951.82C-223.371 914.626 -217.173 878.211 -217.173 878.211C-217.173 878.211 89.6482 911.14 184.174 923.536C260.879 934 341.071 941.36 368.576 943.68Z" fill="#53A6EA"/>
<path d="M187.271 269.605L187.271 323.841L167.514 323.841L167.514 269.605L187.271 269.605Z" fill="#196C9B"/>
<path d="M165.189 262.632L165.189 338.949L97.782 338.949L97.782 262.632L165.189 262.632Z" fill="#196C9B"/>
<path d="M98.9448 256.433L98.9448 345.535L-321.771 345.535L-321.771 256.433L98.9448 256.433Z" fill="#196C9B"/>
<path d="M101.269 261.469L169.839 261.469L169.839 268.055L195.795 268.055L195.795 272.704L207.029 272.704L207.029 293.624L287.996 293.624L287.996 307.57L207.029 307.57L207.029 328.49L195.795 328.49L195.795 333.526L169.839 333.526L169.839 340.112L101.269 340.112L101.269 349.409L-324.096 349.409L-324.096 252.172L101.269 252.172L101.269 261.469ZM174.488 321.904L183.398 321.904L183.398 317.255L174.488 317.255L174.488 321.904ZM174.488 315.318L183.398 315.318L183.398 310.669L174.488 310.669L174.488 315.318ZM174.488 308.732L183.398 308.732L183.398 304.083L174.488 304.083L174.488 308.732ZM174.488 301.759L183.398 301.759L183.398 297.11L174.488 297.11L174.488 301.759ZM174.488 295.173L183.398 295.173L183.398 290.524L174.488 290.524L174.488 295.173ZM174.488 288.587L183.398 288.587L183.398 283.939L174.488 283.939L174.488 288.587ZM174.488 281.614L183.398 281.614L183.398 276.965L174.488 276.965L174.488 281.614ZM183.398 270.38L174.488 270.38L174.488 275.028L183.398 275.028L183.398 270.38ZM126.45 268.83L137.685 268.83L137.685 263.019L126.45 263.019L126.45 268.83ZM156.28 271.542L146.208 271.542L146.208 277.353L156.28 277.353L156.28 271.542ZM126.45 277.353L137.685 277.353L137.685 271.542L126.45 271.542L126.45 277.353ZM118.315 271.542L107.08 271.542L107.08 277.353L118.315 277.353L118.315 271.542ZM156.28 280.065L146.208 280.065L146.208 285.876L156.28 285.876L156.28 280.065ZM118.315 280.065L107.08 280.065L107.08 285.876L118.315 285.876L118.315 280.065ZM156.28 288.2L146.208 288.2L146.208 294.011L156.28 294.011L156.28 288.2ZM126.45 294.011L137.685 294.011L137.685 288.2L126.45 288.2L126.45 294.011ZM118.315 288.2L107.08 288.2L107.08 294.011L118.315 294.011L118.315 288.2ZM126.45 302.534L137.685 302.534L137.685 296.723L126.45 296.723L126.45 302.534ZM156.28 305.246L146.208 305.246L146.208 311.057L156.28 311.057L156.28 305.246ZM126.45 310.669L137.685 310.669L137.685 304.858L126.45 304.858L126.45 310.669ZM156.28 313.381L146.208 313.381L146.208 319.192L156.28 319.192L156.28 313.381ZM118.315 313.381L107.08 313.381L107.08 319.192L118.315 319.192L118.315 313.381ZM156.28 321.904L146.208 321.904L146.208 327.715L156.28 327.715L156.28 321.904ZM137.685 321.904L126.45 321.904L126.45 327.715L137.685 327.715L137.685 321.904ZM137.685 335.85L137.685 330.039L126.45 330.039L126.45 335.85L137.685 335.85ZM118.315 335.85L118.315 330.039L107.08 330.039L107.08 335.85L118.315 335.85ZM-316.735 336.238L-316.735 342.824L-306.275 342.824L-306.275 336.238L-316.735 336.238ZM-300.464 336.238L-300.464 342.824L-290.005 342.824L-290.005 336.238L-300.464 336.238ZM-284.581 336.238L-284.581 342.824L-274.121 342.824L-274.121 336.238L-284.581 336.238ZM-268.698 336.238L-268.698 342.824L-258.238 342.824L-258.238 336.238L-268.698 336.238ZM-252.814 336.238L-252.814 342.824L-242.354 342.824L-242.354 336.238L-252.814 336.238ZM-236.543 336.238L-236.543 342.824L-226.084 342.823L-226.084 336.238L-236.543 336.238ZM-220.66 336.238L-220.66 342.823L-210.2 342.823L-210.2 336.238L-220.66 336.238ZM-204.777 336.238L-204.777 342.823L-194.317 342.823L-194.317 336.238L-204.777 336.238ZM-188.893 336.238L-188.893 342.823L-178.433 342.823L-178.433 336.238L-188.893 336.238ZM-173.01 336.238L-173.01 342.823L-162.55 342.823L-162.55 336.238L-173.01 336.238ZM-156.739 336.238L-156.739 342.823L-146.279 342.823L-146.279 336.238L-156.739 336.238ZM-140.856 336.238L-140.856 342.823L-130.396 342.823L-130.396 336.238L-140.856 336.238ZM-124.972 336.238L-124.972 342.823L-114.512 342.823L-114.512 336.238L-124.972 336.238ZM-109.089 336.238L-109.089 342.823L-98.6289 342.823L-98.6289 336.238L-109.089 336.238ZM-92.8179 336.238L-92.8179 342.823L-82.3579 342.823L-82.3579 336.238L-92.8179 336.238ZM-76.9349 336.238L-76.9349 342.823L-66.4749 342.823L-66.4749 336.238L-76.9349 336.238ZM-61.0509 336.238L-61.0509 342.823L-50.5909 342.823L-50.5909 336.238L-61.0509 336.238ZM-45.1679 336.238L-45.1679 342.823L-34.7079 342.823L-34.7079 336.238L-45.1679 336.238ZM-28.8969 336.238L-28.8969 342.823L-18.4369 342.823L-18.4369 336.238L-28.8969 336.238ZM-13.0139 336.238L-13.0139 342.823L-2.55393 342.823L-2.55393 336.238L-13.0139 336.238ZM2.87008 336.238L2.87008 342.823L13.3291 342.823L13.3291 336.238L2.87008 336.238ZM18.7531 336.238L18.7531 342.823L29.2131 342.823L29.2131 336.238L18.7531 336.238ZM35.0241 336.238L35.0241 342.823L45.4841 342.823L45.4841 336.238L35.0241 336.238ZM50.9071 336.238L50.9071 342.823L61.3671 342.823L61.3671 336.238L50.9071 336.238ZM66.7911 336.238L66.7911 342.823L77.2501 342.823L77.2501 336.238L66.7911 336.238ZM82.6741 336.238L82.6741 342.823L93.1341 342.823L93.1341 336.238L82.6741 336.238ZM-316.735 327.715L-316.735 334.301L-306.275 334.301L-306.275 327.715L-316.735 327.715ZM-300.464 327.715L-300.464 334.301L-290.005 334.301L-290.005 327.715L-300.464 327.715ZM-284.581 327.715L-284.581 334.301L-274.121 334.301L-274.121 327.715L-284.581 327.715ZM-268.698 327.715L-268.698 334.301L-258.238 334.301L-258.238 327.715L-268.698 327.715ZM-252.814 327.715L-252.814 334.301L-242.354 334.301L-242.354 327.715L-252.814 327.715ZM-236.543 327.715L-236.543 334.301L-226.084 334.301L-226.084 327.715L-236.543 327.715ZM-220.66 327.715L-220.66 334.301L-210.2 334.301L-210.2 327.715L-220.66 327.715ZM-204.777 327.715L-204.777 334.301L-194.317 334.301L-194.317 327.715L-204.777 327.715ZM-188.893 327.715L-188.893 334.301L-178.433 334.301L-178.433 327.715L-188.893 327.715ZM-173.01 327.715L-173.01 334.301L-162.55 334.301L-162.55 327.715L-173.01 327.715ZM-156.739 327.715L-156.739 334.301L-146.279 334.301L-146.279 327.715L-156.739 327.715ZM-140.856 327.715L-140.856 334.301L-130.396 334.301L-130.396 327.715L-140.856 327.715ZM-124.972 327.715L-124.972 334.301L-114.512 334.301L-114.512 327.715L-124.972 327.715ZM-109.089 327.715L-109.089 334.301L-98.6289 334.301L-98.6289 327.715L-109.089 327.715ZM-92.8179 327.715L-92.8179 334.301L-82.3579 334.301L-82.3579 327.715L-92.8179 327.715ZM-76.9349 327.715L-76.9349 334.301L-66.4749 334.301L-66.4749 327.715L-76.9349 327.715ZM-61.0509 327.715L-61.0509 334.301L-50.5909 334.301L-50.5909 327.715L-61.0509 327.715ZM-45.1679 327.715L-45.1679 334.301L-34.7079 334.301L-34.7079 327.715L-45.1679 327.715ZM-28.8969 327.715L-28.8969 334.301L-18.4369 334.301L-18.4369 327.715L-28.8969 327.715ZM-13.0139 327.715L-13.0139 334.301L-2.55393 334.301L-2.55393 327.715L-13.0139 327.715ZM2.87008 327.715L2.87008 334.301L13.3291 334.301L13.3291 327.715L2.87008 327.715ZM18.7531 327.715L18.7531 334.301L29.2131 334.301L29.2131 327.715L18.7531 327.715ZM35.0241 327.715L35.0241 334.301L45.4841 334.301L45.4841 327.715L35.0241 327.715ZM50.9071 327.715L50.9071 334.301L61.3671 334.301L61.3671 327.715L50.9071 327.715ZM66.7911 327.715L66.7911 334.301L77.2501 334.301L77.2501 327.715L66.7911 327.715ZM82.6741 327.715L82.6741 334.301L93.1341 334.301L93.1341 327.715L82.6741 327.715ZM-316.735 319.192L-316.735 325.778L-306.275 325.778L-306.275 319.192L-316.735 319.192ZM-300.464 319.192L-300.464 325.778L-290.005 325.778L-290.005 319.192L-300.464 319.192ZM-284.581 319.192L-284.581 325.778L-274.121 325.778L-274.121 319.192L-284.581 319.192ZM-268.698 319.192L-268.698 325.778L-258.238 325.778L-258.238 319.192L-268.698 319.192ZM-252.814 319.192L-252.814 325.778L-242.354 325.778L-242.354 319.192L-252.814 319.192ZM-236.543 319.192L-236.543 325.778L-226.084 325.778L-226.084 319.192L-236.543 319.192ZM-220.66 319.192L-220.66 325.778L-210.2 325.778L-210.2 319.192L-220.66 319.192ZM-204.777 319.192L-204.777 325.778L-194.317 325.778L-194.317 319.192L-204.777 319.192ZM-188.893 319.192L-188.893 325.778L-178.433 325.778L-178.433 319.192L-188.893 319.192ZM-173.01 319.192L-173.01 325.778L-162.55 325.778L-162.55 319.192L-173.01 319.192ZM-156.739 319.192L-156.739 325.778L-146.279 325.778L-146.279 319.192L-156.739 319.192ZM-140.856 319.192L-140.856 325.778L-130.396 325.778L-130.396 319.192L-140.856 319.192ZM-124.972 319.192L-124.972 325.778L-114.512 325.778L-114.512 319.192L-124.972 319.192ZM-109.089 319.192L-109.089 325.778L-98.6289 325.778L-98.6289 319.192L-109.089 319.192ZM-92.8179 319.192L-92.8179 325.778L-82.3579 325.778L-82.3579 319.192L-92.8179 319.192ZM-76.9349 319.192L-76.9349 325.778L-66.4749 325.778L-66.4749 319.192L-76.9349 319.192ZM-61.0509 319.192L-61.0509 325.778L-50.5909 325.778L-50.5909 319.192L-61.0509 319.192ZM-45.1679 319.192L-45.1679 325.778L-34.7079 325.778L-34.7079 319.192L-45.1679 319.192ZM-28.8969 319.192L-28.8969 325.778L-18.4369 325.778L-18.4369 319.192L-28.8969 319.192ZM-13.0139 319.192L-13.0139 325.778L-2.55393 325.778L-2.55393 319.192L-13.0139 319.192ZM2.87008 319.192L2.87008 325.778L13.3291 325.778L13.3291 319.192L2.87008 319.192ZM18.7531 319.192L18.7531 325.778L29.2131 325.778L29.2131 319.192L18.7531 319.192ZM35.0241 319.192L35.0241 325.778L45.4841 325.778L45.4841 319.192L35.0241 319.192ZM50.9071 319.192L50.9071 325.778L61.3671 325.778L61.3671 319.192L50.9071 319.192ZM66.7911 319.192L66.7911 325.778L77.2501 325.778L77.2501 319.192L66.7911 319.192ZM82.6741 319.192L82.6741 325.778L93.1341 325.778L93.1341 319.192L82.6741 319.192ZM-316.735 310.669L-316.735 317.255L-306.275 317.255L-306.275 310.669L-316.735 310.669ZM-300.464 310.669L-300.464 317.255L-290.005 317.255L-290.005 310.669L-300.464 310.669ZM-284.581 310.669L-284.581 317.255L-274.121 317.255L-274.121 310.669L-284.581 310.669ZM-268.698 310.669L-268.698 317.255L-258.238 317.255L-258.238 310.669L-268.698 310.669ZM-252.814 310.669L-252.814 317.255L-242.354 317.255L-242.354 310.669L-252.814 310.669ZM-236.543 310.669L-236.543 317.255L-226.084 317.255L-226.084 310.669L-236.543 310.669ZM-220.66 310.669L-220.66 317.255L-210.2 317.255L-210.2 310.669L-220.66 310.669ZM-204.777 310.669L-204.777 317.255L-194.317 317.255L-194.317 310.669L-204.777 310.669ZM-188.893 310.669L-188.893 317.255L-178.433 317.255L-178.433 310.669L-188.893 310.669ZM-173.01 310.669L-173.01 317.255L-162.55 317.255L-162.55 310.669L-173.01 310.669ZM-156.739 310.669L-156.739 317.255L-146.279 317.255L-146.279 310.669L-156.739 310.669ZM-140.856 310.669L-140.856 317.255L-130.396 317.255L-130.396 310.669L-140.856 310.669ZM-124.972 310.669L-124.972 317.255L-114.512 317.255L-114.512 310.669L-124.972 310.669ZM-109.089 310.669L-109.089 317.255L-98.6289 317.255L-98.6289 310.669L-109.089 310.669ZM-92.8179 310.669L-92.8179 317.255L-82.3579 317.255L-82.3579 310.669L-92.8179 310.669ZM-76.9349 310.669L-76.9349 317.255L-66.4749 317.255L-66.4749 310.669L-76.9349 310.669ZM-61.0509 310.669L-61.0509 317.255L-50.5909 317.255L-50.5909 310.669L-61.0509 310.669ZM-45.1679 310.669L-45.1679 317.255L-34.7079 317.255L-34.7079 310.669L-45.1679 310.669ZM-28.8969 310.669L-28.8969 317.255L-18.4369 317.255L-18.4369 310.669L-28.8969 310.669ZM-13.0139 310.669L-13.0139 317.255L-2.55393 317.255L-2.55393 310.669L-13.0139 310.669ZM2.87008 310.669L2.87008 317.255L13.3291 317.255L13.3291 310.669L2.87008 310.669ZM18.7531 310.669L18.7531 317.255L29.2131 317.255L29.2131 310.669L18.7531 310.669ZM35.0241 310.669L35.0241 317.255L45.4841 317.255L45.4841 310.669L35.0241 310.669ZM50.9071 310.669L50.9071 317.255L61.3671 317.255L61.3671 310.669L50.9071 310.669ZM66.7911 310.669L66.7911 317.255L77.2501 317.255L77.2501 310.669L66.7911 310.669ZM-316.735 302.147L-316.735 308.732L-306.275 308.732L-306.275 302.147L-316.735 302.147ZM-300.464 302.147L-300.464 308.732L-290.005 308.732L-290.005 302.147L-300.464 302.147ZM-284.581 302.147L-284.581 308.732L-274.121 308.732L-274.121 302.147L-284.581 302.147ZM-268.698 302.147L-268.698 308.732L-258.238 308.732L-258.238 302.147L-268.698 302.147ZM-252.814 302.147L-252.814 308.732L-242.354 308.732L-242.354 302.146L-252.814 302.147ZM-236.543 302.146L-236.543 308.732L-226.084 308.732L-226.084 302.146L-236.543 302.146ZM-220.66 302.146L-220.66 308.732L-210.2 308.732L-210.2 302.146L-220.66 302.146ZM-204.777 302.146L-204.777 308.732L-194.317 308.732L-194.317 302.146L-204.777 302.146ZM-188.893 302.146L-188.893 308.732L-178.433 308.732L-178.433 302.146L-188.893 302.146ZM-173.01 302.146L-173.01 308.732L-162.55 308.732L-162.55 302.146L-173.01 302.146ZM-156.739 302.146L-156.739 308.732L-146.279 308.732L-146.279 302.146L-156.739 302.146ZM-140.856 302.146L-140.856 308.732L-130.396 308.732L-130.396 302.146L-140.856 302.146ZM-124.972 302.146L-124.972 308.732L-114.512 308.732L-114.512 302.146L-124.972 302.146ZM-109.089 302.146L-109.089 308.732L-98.6289 308.732L-98.6289 302.146L-109.089 302.146ZM-92.8179 302.146L-92.8179 308.732L-82.3579 308.732L-82.3579 302.146L-92.8179 302.146ZM-76.9349 302.146L-76.9349 308.732L-66.4749 308.732L-66.4749 302.146L-76.9349 302.146ZM-61.0509 302.146L-61.0509 308.732L-50.5909 308.732L-50.5909 302.146L-61.0509 302.146ZM-45.1679 302.146L-45.1679 308.732L-34.7079 308.732L-34.7079 302.146L-45.1679 302.146ZM-28.8969 302.146L-28.8969 308.732L-18.4369 308.732L-18.4369 302.146L-28.8969 302.146ZM-13.0139 302.146L-13.0139 308.732L-2.55393 308.732L-2.55393 302.146L-13.0139 302.146ZM2.87008 302.146L2.87008 308.732L13.3291 308.732L13.3291 302.146L2.87008 302.146ZM18.7531 302.146L18.7531 308.732L29.2131 308.732L29.2131 302.146L18.7531 302.146ZM35.0241 302.146L35.0241 308.732L45.4841 308.732L45.4841 302.146L35.0241 302.146ZM50.9071 302.146L50.9071 308.732L61.3671 308.732L61.3671 302.146L50.9071 302.146ZM66.7911 302.146L66.7911 308.732L77.2501 308.732L77.2501 302.146L66.7911 302.146ZM82.6741 302.146L82.6741 308.732L93.1341 308.732L93.1341 302.146L82.6741 302.146ZM-316.735 294.011L-316.735 300.597L-306.275 300.597L-306.275 294.011L-316.735 294.011ZM-300.464 294.011L-300.464 300.597L-290.005 300.597L-290.005 294.011L-300.464 294.011ZM-284.581 294.011L-284.581 300.597L-274.121 300.597L-274.121 294.011L-284.581 294.011ZM-268.698 294.011L-268.698 300.597L-258.238 300.597L-258.238 294.011L-268.698 294.011ZM-252.814 294.011L-252.814 300.597L-242.354 300.597L-242.354 294.011L-252.814 294.011ZM-236.543 294.011L-236.543 300.597L-226.084 300.597L-226.084 294.011L-236.543 294.011ZM-220.66 294.011L-220.66 300.597L-210.2 300.597L-210.2 294.011L-220.66 294.011ZM-204.777 294.011L-204.777 300.597L-194.317 300.597L-194.317 294.011L-204.777 294.011ZM-188.893 294.011L-188.893 300.597L-178.433 300.597L-178.433 294.011L-188.893 294.011ZM-173.01 294.011L-173.01 300.597L-162.55 300.597L-162.55 294.011L-173.01 294.011ZM-156.739 294.011L-156.739 300.597L-146.279 300.597L-146.279 294.011L-156.739 294.011ZM-140.856 294.011L-140.856 300.597L-130.396 300.597L-130.396 294.011L-140.856 294.011ZM-124.972 294.011L-124.972 300.597L-114.512 300.597L-114.512 294.011L-124.972 294.011ZM-109.089 294.011L-109.089 300.597L-98.6289 300.597L-98.6289 294.011L-109.089 294.011ZM-92.8179 294.011L-92.8179 300.597L-82.3579 300.597L-82.3579 294.011L-92.8179 294.011ZM-76.9349 294.011L-76.9349 300.597L-66.4749 300.597L-66.4749 294.011L-76.9349 294.011ZM-61.0509 294.011L-61.0509 300.597L-50.5909 300.597L-50.5909 294.011L-61.0509 294.011ZM-45.1679 294.011L-45.1679 300.597L-34.7079 300.597L-34.7079 294.011L-45.1679 294.011ZM-28.8969 294.011L-28.8969 300.597L-18.4369 300.597L-18.4369 294.011L-28.8969 294.011ZM-13.0139 294.011L-13.0139 300.597L-2.55393 300.597L-2.55393 294.011L-13.0139 294.011ZM2.87008 294.011L2.87008 300.597L13.3291 300.597L13.3291 294.011L2.87008 294.011ZM18.7531 294.011L18.7531 300.597L29.2131 300.597L29.2131 294.011L18.7531 294.011ZM35.0241 294.011L35.0241 300.597L45.4841 300.597L45.4841 294.011L35.0241 294.011ZM50.9071 294.011L50.9071 300.597L61.3671 300.597L61.3671 294.011L50.9071 294.011ZM66.7911 294.011L66.7911 300.597L77.2501 300.597L77.2501 294.011L66.7911 294.011ZM82.6741 294.011L82.6741 300.597L93.1341 300.597L93.1341 294.011L82.6741 294.011ZM-316.735 285.488L-316.735 292.074L-306.275 292.074L-306.275 285.488L-316.735 285.488ZM-300.464 285.488L-300.464 292.074L-290.005 292.074L-290.005 285.488L-300.464 285.488ZM-284.581 285.488L-284.581 292.074L-274.121 292.074L-274.121 285.488L-284.581 285.488ZM-268.698 285.488L-268.698 292.074L-258.238 292.074L-258.238 285.488L-268.698 285.488ZM-252.814 285.488L-252.814 292.074L-242.354 292.074L-242.354 285.488L-252.814 285.488ZM-236.543 285.488L-236.543 292.074L-226.084 292.074L-226.084 285.488L-236.543 285.488ZM-220.66 285.488L-220.66 292.074L-210.2 292.074L-210.2 285.488L-220.66 285.488ZM-204.777 285.488L-204.777 292.074L-194.317 292.074L-194.317 285.488L-204.777 285.488ZM-188.893 285.488L-188.893 292.074L-178.433 292.074L-178.433 285.488L-188.893 285.488ZM-173.01 285.488L-173.01 292.074L-162.55 292.074L-162.55 285.488L-173.01 285.488ZM-156.739 285.488L-156.739 292.074L-146.279 292.074L-146.279 285.488L-156.739 285.488ZM-140.856 285.488L-140.856 292.074L-130.396 292.074L-130.396 285.488L-140.856 285.488ZM-124.972 285.488L-124.972 292.074L-114.512 292.074L-114.512 285.488L-124.972 285.488ZM-109.089 285.488L-109.089 292.074L-98.6289 292.074L-98.6289 285.488L-109.089 285.488ZM-92.8179 285.488L-92.8179 292.074L-82.3579 292.074L-82.3579 285.488L-92.8179 285.488ZM-76.9349 285.488L-76.9349 292.074L-66.4749 292.074L-66.4749 285.488L-76.9349 285.488ZM-61.0509 285.488L-61.0509 292.074L-50.5909 292.074L-50.5909 285.488L-61.0509 285.488ZM-45.1679 285.488L-45.1679 292.074L-34.7079 292.074L-34.7079 285.488L-45.1679 285.488ZM-28.8969 285.488L-28.8969 292.074L-18.4369 292.074L-18.4369 285.488L-28.8969 285.488ZM-13.0139 285.488L-13.0139 292.074L-2.55393 292.074L-2.55393 285.488L-13.0139 285.488ZM2.87009 285.488L2.87008 292.074L13.3291 292.074L13.3291 285.488L2.87009 285.488ZM18.7531 285.488L18.7531 292.074L29.2131 292.074L29.2131 285.488L18.7531 285.488ZM35.0241 285.488L35.0241 292.074L45.4841 292.074L45.4841 285.488L35.0241 285.488ZM50.9071 285.488L50.9071 292.074L61.3671 292.074L61.3671 285.488L50.9071 285.488ZM66.7911 285.488L66.7911 292.074L77.2501 292.074L77.2501 285.488L66.7911 285.488ZM82.6741 285.488L82.6741 292.074L93.1341 292.074L93.1341 285.488L82.6741 285.488ZM-316.735 276.578L-316.735 283.164L-306.275 283.164L-306.275 276.578L-316.735 276.578ZM-300.464 276.578L-300.464 283.164L-290.005 283.164L-290.005 276.578L-300.464 276.578ZM-284.581 276.578L-284.581 283.164L-274.121 283.164L-274.121 276.578L-284.581 276.578ZM-268.698 276.578L-268.698 283.164L-258.238 283.164L-258.238 276.578L-268.698 276.578ZM-252.814 276.578L-252.814 283.164L-242.354 283.164L-242.354 276.578L-252.814 276.578ZM-236.543 276.578L-236.543 283.164L-226.084 283.164L-226.084 276.578L-236.543 276.578ZM-220.66 276.578L-220.66 283.164L-210.2 283.164L-210.2 276.578L-220.66 276.578ZM-204.777 276.578L-204.777 283.164L-194.317 283.164L-194.317 276.578L-204.777 276.578ZM-188.893 276.578L-188.893 283.164L-178.433 283.164L-178.433 276.578L-188.893 276.578ZM-173.01 276.578L-173.01 283.164L-162.55 283.164L-162.55 276.578L-173.01 276.578ZM-156.739 276.578L-156.739 283.164L-146.279 283.164L-146.279 276.578L-156.739 276.578ZM-140.856 276.578L-140.856 283.164L-130.396 283.164L-130.396 276.578L-140.856 276.578ZM-124.972 276.578L-124.972 283.164L-114.512 283.164L-114.512 276.578L-124.972 276.578ZM-109.089 276.578L-109.089 283.164L-98.6289 283.164L-98.6289 276.578L-109.089 276.578ZM-92.8179 276.578L-92.8179 283.164L-82.3579 283.164L-82.3579 276.578L-92.8179 276.578ZM-76.9349 276.578L-76.9349 283.164L-66.4749 283.164L-66.4749 276.578L-76.9349 276.578ZM-61.0509 276.578L-61.0509 283.164L-50.5909 283.164L-50.5909 276.578L-61.0509 276.578ZM-45.1679 276.578L-45.1679 283.164L-34.7079 283.164L-34.7079 276.578L-45.1679 276.578ZM-28.8969 276.578L-28.8969 283.164L-18.4369 283.164L-18.4369 276.578L-28.8969 276.578ZM-13.0139 276.578L-13.0139 283.164L-2.55393 283.164L-2.55393 276.578L-13.0139 276.578ZM2.87009 276.578L2.87009 283.164L13.3291 283.164L13.3291 276.578L2.87009 276.578ZM18.7531 276.578L18.7531 283.164L29.2131 283.164L29.2131 276.578L18.7531 276.578ZM35.0241 276.578L35.0241 283.164L45.4841 283.164L45.4841 276.578L35.0241 276.578ZM50.9071 276.578L50.9071 283.164L61.3671 283.164L61.3671 276.578L50.9071 276.578ZM66.7911 276.578L66.7911 283.164L77.2501 283.164L77.2501 276.578L66.7911 276.578ZM82.6741 276.578L82.6741 283.164L93.1341 283.164L93.1341 276.578L82.6741 276.578ZM-316.735 268.055L-316.735 274.641L-306.275 274.641L-306.275 268.055L-316.735 268.055ZM-300.464 268.055L-300.464 274.641L-290.005 274.641L-290.005 268.055L-300.464 268.055ZM-284.581 268.055L-284.581 274.641L-274.121 274.641L-274.121 268.055L-284.581 268.055ZM-268.698 268.055L-268.698 274.641L-258.238 274.641L-258.238 268.055L-268.698 268.055ZM-252.814 268.055L-252.814 274.641L-242.354 274.641L-242.354 268.055L-252.814 268.055ZM-236.543 268.055L-236.543 274.641L-226.084 274.641L-226.084 268.055L-236.543 268.055ZM-220.66 268.055L-220.66 274.641L-210.2 274.641L-210.2 268.055L-220.66 268.055ZM-204.777 268.055L-204.777 274.641L-194.317 274.641L-194.317 268.055L-204.777 268.055ZM-188.893 268.055L-188.893 274.641L-178.433 274.641L-178.433 268.055L-188.893 268.055ZM-173.01 268.055L-173.01 274.641L-162.55 274.641L-162.55 268.055L-173.01 268.055ZM-156.739 268.055L-156.739 274.641L-146.279 274.641L-146.279 268.055L-156.739 268.055ZM-140.856 268.055L-140.856 274.641L-130.396 274.641L-130.396 268.055L-140.856 268.055ZM-124.972 268.055L-124.972 274.641L-114.512 274.641L-114.512 268.055L-124.972 268.055ZM-109.089 268.055L-109.089 274.641L-98.6289 274.641L-98.6289 268.055L-109.089 268.055ZM-92.8179 268.055L-92.8179 274.641L-82.3579 274.641L-82.3579 268.055L-92.8179 268.055ZM-76.9349 268.055L-76.9349 274.641L-66.4749 274.641L-66.4749 268.055L-76.9349 268.055ZM-61.0509 268.055L-61.0509 274.641L-50.5909 274.641L-50.5909 268.055L-61.0509 268.055ZM-45.1679 268.055L-45.1679 274.641L-34.7079 274.641L-34.7079 268.055L-45.1679 268.055ZM-28.8969 268.055L-28.8969 274.641L-18.4369 274.641L-18.4369 268.055L-28.8969 268.055ZM-13.0139 268.055L-13.0139 274.641L-2.55393 274.641L-2.55393 268.055L-13.0139 268.055ZM2.87009 268.055L2.87009 274.641L13.3291 274.641L13.3291 268.055L2.87009 268.055ZM18.7531 268.055L18.7531 274.641L29.2131 274.641L29.2131 268.055L18.7531 268.055ZM35.0241 268.055L35.0241 274.641L45.4841 274.641L45.4841 268.055L35.0241 268.055ZM50.9071 268.055L50.9071 274.641L61.3671 274.641L61.3671 268.055L50.9071 268.055ZM66.7911 268.055L66.7911 274.641L77.2501 274.641L77.2501 268.055L66.7911 268.055ZM82.6741 268.055L82.6741 274.641L93.1341 274.641L93.1341 268.055L82.6741 268.055ZM-316.735 259.533L-316.735 266.118L-306.275 266.118L-306.275 259.533L-316.735 259.533ZM-300.464 259.533L-300.464 266.118L-290.005 266.118L-290.005 259.533L-300.464 259.533ZM-284.581 259.533L-284.581 266.118L-274.121 266.118L-274.121 259.533L-284.581 259.533ZM-268.698 259.533L-268.698 266.118L-258.238 266.118L-258.238 259.533L-268.698 259.533ZM-252.814 259.533L-252.814 266.118L-242.354 266.118L-242.354 259.532L-252.814 259.533ZM-236.543 259.532L-236.543 266.118L-226.084 266.118L-226.084 259.532L-236.543 259.532ZM-220.66 259.532L-220.66 266.118L-210.2 266.118L-210.2 259.532L-220.66 259.532ZM-204.777 259.532L-204.777 266.118L-194.317 266.118L-194.317 259.532L-204.777 259.532ZM-188.893 259.532L-188.893 266.118L-178.433 266.118L-178.433 259.532L-188.893 259.532ZM-173.01 259.532L-173.01 266.118L-162.55 266.118L-162.55 259.532L-173.01 259.532ZM-156.739 259.532L-156.739 266.118L-146.279 266.118L-146.279 259.532L-156.739 259.532ZM-140.856 259.532L-140.856 266.118L-130.396 266.118L-130.396 259.532L-140.856 259.532ZM-124.972 259.532L-124.972 266.118L-114.512 266.118L-114.512 259.532L-124.972 259.532ZM-109.089 259.532L-109.089 266.118L-98.6289 266.118L-98.6289 259.532L-109.089 259.532ZM-92.8179 259.532L-92.8179 266.118L-82.3579 266.118L-82.3579 259.532L-92.8179 259.532ZM-76.9349 259.532L-76.9349 266.118L-66.4749 266.118L-66.4749 259.532L-76.9349 259.532ZM-61.0509 259.532L-61.0509 266.118L-50.5909 266.118L-50.5909 259.532L-61.0509 259.532ZM-45.1679 259.532L-45.1679 266.118L-34.7079 266.118L-34.7079 259.532L-45.1679 259.532ZM-28.8969 259.532L-28.8969 266.118L-18.4369 266.118L-18.4369 259.532L-28.8969 259.532ZM-13.0139 259.532L-13.0139 266.118L-2.55393 266.118L-2.55392 259.532L-13.0139 259.532ZM2.87009 259.532L2.87009 266.118L13.3291 266.118L13.3291 259.532L2.87009 259.532ZM18.7531 259.532L18.7531 266.118L29.2131 266.118L29.2131 259.532L18.7531 259.532ZM35.0241 259.532L35.0241 266.118L45.4841 266.118L45.4841 259.532L35.0241 259.532ZM50.9071 259.532L50.9071 266.118L61.3671 266.118L61.3671 259.532L50.9071 259.532ZM66.7911 259.532L66.7911 266.118L77.2501 266.118L77.2501 259.532L66.7911 259.532ZM82.6741 259.532L82.6741 266.118L93.1341 266.118L93.1341 259.532L82.6741 259.532Z" fill="#53A6EA"/>
<path d="M0.546875 60.021L0.546872 119.68L-269.471 119.681L-269.471 60.021L0.546875 60.021Z" fill="#196C9B"/>
<path d="M2.09619 121.618L-271.796 121.618L-271.796 58.8589L2.09619 58.8589L2.09619 121.618ZM-266.76 113.095L-266.76 117.357L-259.787 117.357L-259.787 113.095L-266.76 113.095ZM-256.687 113.095L-256.687 117.357L-249.714 117.357L-249.714 113.095L-256.687 113.095ZM-246.228 113.095L-246.228 117.357L-239.254 117.357L-239.254 113.095L-246.228 113.095ZM-236.155 113.095L-236.155 117.357L-229.182 117.357L-229.182 113.095L-236.155 113.095ZM-225.695 113.095L-225.695 117.357L-218.722 117.357L-218.722 113.095L-225.695 113.095ZM-215.623 113.095L-215.623 117.357L-208.65 117.357L-208.65 113.095L-215.623 113.095ZM-205.163 113.095L-205.163 117.357L-198.19 117.357L-198.19 113.095L-205.163 113.095ZM-194.704 113.095L-194.704 117.357L-187.73 117.357L-187.73 113.095L-194.704 113.095ZM-184.631 113.095L-184.631 117.357L-177.658 117.357L-177.658 113.095L-184.631 113.095ZM-174.171 113.095L-174.171 117.357L-167.586 117.357L-167.586 113.095L-174.171 113.095ZM-164.099 113.095L-164.099 117.357L-157.126 117.357L-157.126 113.095L-164.099 113.095ZM-153.639 113.095L-153.639 117.357L-146.666 117.357L-146.666 113.095L-153.639 113.095ZM-143.567 113.095L-143.567 117.357L-136.594 117.357L-136.594 113.095L-143.567 113.095ZM-133.107 113.095L-133.107 117.357L-126.134 117.357L-126.134 113.095L-133.107 113.095ZM-123.035 113.095L-123.035 117.357L-116.061 117.357L-116.061 113.095L-123.035 113.095ZM-112.575 113.095L-112.575 117.357L-105.602 117.357L-105.602 113.095L-112.575 113.095ZM-102.115 113.095L-102.115 117.357L-95.1418 117.357L-95.1418 113.095L-102.115 113.095ZM-92.0428 113.095L-92.0428 117.357L-85.0688 117.357L-85.0688 113.095L-92.0428 113.095ZM-81.5828 113.095L-81.5828 117.357L-74.6098 117.357L-74.6098 113.095L-81.5828 113.095ZM-71.5098 113.095L-71.5098 117.357L-64.5368 117.357L-64.5368 113.095L-71.5098 113.095ZM-61.0508 113.095L-61.0508 117.357L-54.0768 117.357L-54.0768 113.095L-61.0508 113.095ZM-50.9778 113.095L-50.9778 117.357L-44.0048 117.357L-44.0048 113.095L-50.9778 113.095ZM-40.5178 113.095L-40.5178 117.357L-33.5448 117.357L-33.5448 113.095L-40.5178 113.095ZM-30.4458 113.095L-30.4458 117.357L-23.4728 117.357L-23.4728 113.095L-30.4458 113.095ZM-19.9858 113.095L-19.9858 117.357L-13.0128 117.357L-13.0128 113.095L-19.9858 113.095ZM-9.52582 113.095L-9.52582 117.357L-2.5528 117.357L-2.5528 113.095L-9.52582 113.095ZM-266.76 107.672L-266.76 111.933L-259.787 111.933L-259.787 107.672L-266.76 107.672ZM-256.687 107.672L-256.687 111.933L-249.714 111.933L-249.714 107.672L-256.687 107.672ZM-246.228 107.672L-246.228 111.933L-239.254 111.933L-239.254 107.672L-246.228 107.672ZM-236.155 107.672L-236.155 111.933L-229.182 111.933L-229.182 107.672L-236.155 107.672ZM-225.696 107.672L-225.695 111.933L-218.722 111.933L-218.722 107.672L-225.696 107.672ZM-215.623 107.672L-215.623 111.933L-208.65 111.933L-208.65 107.672L-215.623 107.672ZM-205.163 107.672L-205.163 111.933L-198.19 111.933L-198.19 107.672L-205.163 107.672ZM-194.704 107.672L-194.704 111.933L-187.73 111.933L-187.73 107.672L-194.704 107.672ZM-184.631 107.672L-184.631 111.933L-177.658 111.933L-177.658 107.672L-184.631 107.672ZM-174.171 107.672L-174.171 111.933L-167.586 111.933L-167.586 107.672L-174.171 107.672ZM-164.099 107.672L-164.099 111.933L-157.126 111.933L-157.126 107.672L-164.099 107.672ZM-153.639 107.672L-153.639 111.933L-146.666 111.933L-146.666 107.672L-153.639 107.672ZM-143.567 107.672L-143.567 111.933L-136.594 111.933L-136.594 107.672L-143.567 107.672ZM-133.107 107.672L-133.107 111.933L-126.134 111.933L-126.134 107.672L-133.107 107.672ZM-123.035 107.672L-123.035 111.933L-116.061 111.933L-116.061 107.672L-123.035 107.672ZM-112.575 107.672L-112.575 111.933L-105.602 111.933L-105.602 107.672L-112.575 107.672ZM-102.115 107.672L-102.115 111.933L-95.1418 111.933L-95.1418 107.672L-102.115 107.672ZM-92.0428 107.672L-92.0428 111.933L-85.0688 111.933L-85.0688 107.672L-92.0428 107.672ZM-81.5828 107.672L-81.5828 111.933L-74.6098 111.933L-74.6098 107.672L-81.5828 107.672ZM-71.5098 107.672L-71.5098 111.933L-64.5368 111.933L-64.5368 107.672L-71.5098 107.672ZM-61.0508 107.672L-61.0508 111.933L-54.0768 111.933L-54.0768 107.672L-61.0508 107.672ZM-50.9778 107.672L-50.9778 111.933L-44.0048 111.933L-44.0048 107.672L-50.9778 107.672ZM-40.5178 107.672L-40.5178 111.933L-33.5448 111.933L-33.5448 107.672L-40.5178 107.672ZM-30.4458 107.672L-30.4458 111.933L-23.4728 111.933L-23.4728 107.672L-30.4458 107.672ZM-19.9858 107.672L-19.9858 111.933L-13.0128 111.933L-13.0128 107.672L-19.9858 107.672ZM-9.52582 107.672L-9.52582 111.933L-2.5528 111.933L-2.5528 107.672L-9.52582 107.672ZM-266.76 101.861L-266.76 106.122L-259.787 106.122L-259.787 101.861L-266.76 101.861ZM-256.687 101.861L-256.687 106.122L-249.714 106.122L-249.714 101.861L-256.687 101.861ZM-246.228 101.861L-246.228 106.122L-239.254 106.122L-239.255 101.861L-246.228 101.861ZM-236.155 101.861L-236.155 106.122L-229.182 106.122L-229.182 101.861L-236.155 101.861ZM-225.696 101.861L-225.696 106.122L-218.722 106.122L-218.722 101.861L-225.696 101.861ZM-215.623 101.861L-215.623 106.122L-208.65 106.122L-208.65 101.861L-215.623 101.861ZM-205.163 101.861L-205.163 106.122L-198.19 106.122L-198.19 101.861L-205.163 101.861ZM-194.704 101.861L-194.704 106.122L-187.73 106.122L-187.73 101.861L-194.704 101.861ZM-184.631 101.861L-184.631 106.122L-177.658 106.122L-177.658 101.861L-184.631 101.861ZM-174.171 101.861L-174.171 106.122L-167.586 106.122L-167.586 101.861L-174.171 101.861ZM-164.099 101.861L-164.099 106.122L-157.126 106.122L-157.126 101.861L-164.099 101.861ZM-153.639 101.861L-153.639 106.122L-146.666 106.122L-146.666 101.861L-153.639 101.861ZM-143.567 101.861L-143.567 106.122L-136.594 106.122L-136.594 101.861L-143.567 101.861ZM-133.107 101.861L-133.107 106.122L-126.134 106.122L-126.134 101.861L-133.107 101.861ZM-123.035 101.861L-123.035 106.122L-116.061 106.122L-116.061 101.861L-123.035 101.861ZM-112.575 101.861L-112.575 106.122L-105.602 106.122L-105.602 101.861L-112.575 101.861ZM-102.115 101.861L-102.115 106.122L-95.1418 106.122L-95.1418 101.861L-102.115 101.861ZM-92.0428 101.861L-92.0428 106.122L-85.0688 106.122L-85.0688 101.861L-92.0428 101.861ZM-81.5828 101.861L-81.5828 106.122L-74.6098 106.122L-74.6098 101.861L-81.5828 101.861ZM-71.5098 101.861L-71.5098 106.122L-64.5368 106.122L-64.5368 101.861L-71.5098 101.861ZM-61.0508 101.861L-61.0508 106.122L-54.0768 106.122L-54.0768 101.861L-61.0508 101.861ZM-50.9778 101.861L-50.9778 106.122L-44.0048 106.122L-44.0048 101.861L-50.9778 101.861ZM-40.5178 101.861L-40.5178 106.122L-33.5448 106.122L-33.5448 101.861L-40.5178 101.861ZM-30.4458 101.861L-30.4458 106.122L-23.4728 106.122L-23.4728 101.861L-30.4458 101.861ZM-19.9858 101.861L-19.9858 106.122L-13.0128 106.122L-13.0128 101.861L-19.9858 101.861ZM-9.52582 101.861L-9.52582 106.122L-2.5528 106.122L-2.5528 101.861L-9.52582 101.861ZM-266.76 96.4369L-266.76 100.698L-259.787 100.698L-259.787 96.4369L-266.76 96.4369ZM-256.687 96.4369L-256.687 100.698L-249.714 100.698L-249.714 96.4369L-256.687 96.4369ZM-246.228 96.4369L-246.228 100.698L-239.255 100.698L-239.255 96.4369L-246.228 96.4369ZM-236.155 96.4369L-236.155 100.698L-229.182 100.698L-229.182 96.4369L-236.155 96.4369ZM-225.696 96.4369L-225.696 100.698L-218.722 100.698L-218.722 96.4369L-225.696 96.4369ZM-215.623 96.4369L-215.623 100.698L-208.65 100.698L-208.65 96.4369L-215.623 96.4369ZM-205.163 96.4369L-205.163 100.698L-198.19 100.698L-198.19 96.4369L-205.163 96.4369ZM-194.704 96.4369L-194.704 100.698L-187.73 100.698L-187.73 96.4369L-194.704 96.4369ZM-184.631 96.4369L-184.631 100.698L-177.658 100.698L-177.658 96.4369L-184.631 96.4369ZM-174.171 96.4369L-174.171 100.698L-167.586 100.698L-167.586 96.4369L-174.171 96.4369ZM-164.099 96.4369L-164.099 100.698L-157.126 100.698L-157.126 96.4369L-164.099 96.4369ZM-153.639 96.4369L-153.639 100.698L-146.666 100.698L-146.666 96.4369L-153.639 96.4369ZM-143.567 96.4369L-143.567 100.698L-136.594 100.698L-136.594 96.4369L-143.567 96.4369ZM-133.107 96.4369L-133.107 100.698L-126.134 100.698L-126.134 96.4369L-133.107 96.4369ZM-123.035 96.4369L-123.035 100.698L-116.061 100.698L-116.061 96.4369L-123.035 96.4369ZM-112.575 96.4369L-112.575 100.698L-105.602 100.698L-105.602 96.4369L-112.575 96.4369ZM-102.115 96.4369L-102.115 100.698L-95.1418 100.698L-95.1418 96.4369L-102.115 96.4369ZM-92.0428 96.4369L-92.0428 100.698L-85.0688 100.698L-85.0688 96.4369L-92.0428 96.4369ZM-81.5828 96.4369L-81.5828 100.698L-74.6098 100.698L-74.6098 96.4369L-81.5828 96.4369ZM-71.5098 96.4369L-71.5098 100.698L-64.5368 100.698L-64.5368 96.4369L-71.5098 96.4369ZM-61.0508 96.4369L-61.0508 100.698L-54.0768 100.698L-54.0768 96.4369L-61.0508 96.4369ZM-50.9778 96.4369L-50.9778 100.698L-44.0048 100.698L-44.0048 96.4369L-50.9778 96.4369ZM-40.5178 96.4369L-40.5178 100.698L-33.5448 100.698L-33.5448 96.4369L-40.5178 96.4369ZM-30.4458 96.4369L-30.4458 100.698L-23.4728 100.698L-23.4728 96.4369L-30.4458 96.4369ZM-19.9858 96.4369L-19.9858 100.698L-13.0128 100.698L-13.0128 96.4369L-19.9858 96.4369ZM-266.76 91.0129L-266.76 95.2749L-259.787 95.2749L-259.787 91.0129L-266.76 91.0129ZM-256.688 91.0129L-256.687 95.2749L-249.714 95.2749L-249.714 91.0129L-256.688 91.0129ZM-246.228 91.0129L-246.228 95.2749L-239.255 95.2749L-239.255 91.0129L-246.228 91.0129ZM-236.155 91.0129L-236.155 95.2749L-229.182 95.2749L-229.182 91.0129L-236.155 91.0129ZM-225.696 91.0129L-225.696 95.2749L-218.722 95.2749L-218.722 91.0129L-225.696 91.0129ZM-215.623 91.0129L-215.623 95.2749L-208.65 95.2749L-208.65 91.0129L-215.623 91.0129ZM-205.163 91.0129L-205.163 95.2749L-198.19 95.2749L-198.19 91.0129L-205.163 91.0129ZM-194.704 91.0129L-194.704 95.2749L-187.73 95.2749L-187.73 91.0129L-194.704 91.0129ZM-184.631 91.0129L-184.631 95.2749L-177.658 95.2749L-177.658 91.0129L-184.631 91.0129ZM-174.171 91.0129L-174.171 95.2749L-167.586 95.2749L-167.586 91.0129L-174.171 91.0129ZM-164.099 91.0129L-164.099 95.2749L-157.126 95.2749L-157.126 91.0129L-164.099 91.0129ZM-153.639 91.0129L-153.639 95.2749L-146.666 95.2749L-146.666 91.0129L-153.639 91.0129ZM-143.567 91.0129L-143.567 95.2749L-136.594 95.2749L-136.594 91.0129L-143.567 91.0129ZM-133.107 91.0129L-133.107 95.2749L-126.134 95.2749L-126.134 91.0129L-133.107 91.0129ZM-123.035 91.0129L-123.035 95.2749L-116.061 95.2749L-116.061 91.0129L-123.035 91.0129ZM-112.575 91.0129L-112.575 95.2749L-105.602 95.2749L-105.602 91.0129L-112.575 91.0129ZM-102.115 91.0129L-102.115 95.2749L-95.1418 95.2749L-95.1418 91.0129L-102.115 91.0129ZM-92.0428 91.0129L-92.0428 95.2749L-85.0688 95.2749L-85.0688 91.0129L-92.0428 91.0129ZM-81.5828 91.0129L-81.5828 95.2749L-74.6098 95.2749L-74.6098 91.0129L-81.5828 91.0129ZM-71.5098 91.0129L-71.5098 95.2749L-64.5368 95.2749L-64.5368 91.0129L-71.5098 91.0129ZM-61.0508 91.0129L-61.0508 95.2749L-54.0768 95.2749L-54.0768 91.0129L-61.0508 91.0129ZM-50.9778 91.0129L-50.9778 95.2749L-44.0048 95.2749L-44.0048 91.0129L-50.9778 91.0129ZM-40.5178 91.0129L-40.5178 95.2749L-33.5448 95.2749L-33.5448 91.0129L-40.5178 91.0129ZM-30.4458 91.0129L-30.4458 95.2749L-23.4728 95.2749L-23.4728 91.0129L-30.4458 91.0129ZM-19.9858 91.0129L-19.9858 95.2749L-13.0128 95.2749L-13.0128 91.0129L-19.9858 91.0129ZM-9.52582 91.0129L-9.52582 95.2749L-2.5528 95.2749L-2.5528 91.0129L-9.52582 91.0129ZM-266.76 85.5899L-266.76 89.8509L-259.787 89.8509L-259.787 85.5899L-266.76 85.5899ZM-256.688 85.5899L-256.688 89.8509L-249.714 89.8509L-249.714 85.5899L-256.688 85.5899ZM-246.228 85.5899L-246.228 89.8509L-239.255 89.8509L-239.255 85.5899L-246.228 85.5899ZM-236.155 85.5899L-236.155 89.8509L-229.182 89.8509L-229.182 85.5899L-236.155 85.5899ZM-225.696 85.5899L-225.696 89.8509L-218.722 89.8509L-218.722 85.5899L-225.696 85.5899ZM-215.623 85.5899L-215.623 89.8509L-208.65 89.8509L-208.65 85.5899L-215.623 85.5899ZM-205.163 85.5899L-205.163 89.8509L-198.19 89.8509L-198.19 85.5899L-205.163 85.5899ZM-194.704 85.5899L-194.704 89.8509L-187.73 89.8509L-187.73 85.5899L-194.704 85.5899ZM-184.631 85.5899L-184.631 89.8509L-177.658 89.8509L-177.658 85.5899L-184.631 85.5899ZM-174.171 85.5899L-174.171 89.8509L-167.586 89.8509L-167.586 85.5899L-174.171 85.5899ZM-164.099 85.5899L-164.099 89.8509L-157.126 89.8509L-157.126 85.5899L-164.099 85.5899ZM-153.639 85.5899L-153.639 89.8509L-146.666 89.8509L-146.666 85.5899L-153.639 85.5899ZM-143.567 85.5899L-143.567 89.8509L-136.594 89.8509L-136.594 85.5899L-143.567 85.5899ZM-133.107 85.5899L-133.107 89.8509L-126.134 89.8509L-126.134 85.5899L-133.107 85.5899ZM-123.035 85.5899L-123.035 89.8509L-116.061 89.8509L-116.061 85.5899L-123.035 85.5899ZM-112.575 85.5899L-112.575 89.8509L-105.602 89.8509L-105.602 85.5899L-112.575 85.5899ZM-102.115 85.5899L-102.115 89.8509L-95.1418 89.8509L-95.1418 85.5899L-102.115 85.5899ZM-92.0428 85.5899L-92.0428 89.8509L-85.0688 89.8509L-85.0688 85.5899L-92.0428 85.5899ZM-81.5828 85.5899L-81.5828 89.8509L-74.6098 89.8509L-74.6098 85.5899L-81.5828 85.5899ZM-71.5098 85.5899L-71.5098 89.8509L-64.5368 89.8509L-64.5368 85.5899L-71.5098 85.5899ZM-61.0508 85.5899L-61.0508 89.8509L-54.0768 89.8509L-54.0768 85.5899L-61.0508 85.5899ZM-50.9778 85.5899L-50.9778 89.8509L-44.0048 89.8509L-44.0048 85.5899L-50.9778 85.5899ZM-40.5178 85.5899L-40.5178 89.8509L-33.5448 89.8509L-33.5448 85.5899L-40.5178 85.5899ZM-30.4458 85.5899L-30.4458 89.8509L-23.4728 89.8509L-23.4728 85.5899L-30.4458 85.5899ZM-19.9858 85.5899L-19.9858 89.8509L-13.0128 89.8509L-13.0128 85.5899L-19.9858 85.5899ZM-9.52582 85.5899L-9.52582 89.8509L-2.5528 89.8509L-2.5528 85.5899L-9.52582 85.5899ZM-266.76 80.1659L-266.76 84.4279L-259.787 84.4279L-259.787 80.1659L-266.76 80.1659ZM-256.688 80.1659L-256.688 84.4279L-249.714 84.4279L-249.714 80.1659L-256.688 80.1659ZM-246.228 80.1659L-246.228 84.4279L-239.255 84.4279L-239.255 80.1659L-246.228 80.1659ZM-236.155 80.1659L-236.155 84.4279L-229.182 84.4279L-229.182 80.1659L-236.155 80.1659ZM-225.696 80.1659L-225.696 84.4279L-218.722 84.4279L-218.722 80.1659L-225.696 80.1659ZM-215.623 80.1659L-215.623 84.4279L-208.65 84.4279L-208.65 80.1659L-215.623 80.1659ZM-205.163 80.1659L-205.163 84.4279L-198.19 84.4279L-198.19 80.1659L-205.163 80.1659ZM-194.704 80.1659L-194.704 84.4279L-187.73 84.4279L-187.73 80.1659L-194.704 80.1659ZM-184.631 80.1659L-184.631 84.4279L-177.658 84.4279L-177.658 80.1659L-184.631 80.1659ZM-174.171 80.1659L-174.171 84.4279L-167.586 84.4279L-167.586 80.1659L-174.171 80.1659ZM-164.099 80.1659L-164.099 84.4279L-157.126 84.4279L-157.126 80.1659L-164.099 80.1659ZM-153.639 80.1659L-153.639 84.4279L-146.666 84.4279L-146.666 80.1659L-153.639 80.1659ZM-143.567 80.1659L-143.567 84.4279L-136.594 84.4279L-136.594 80.1659L-143.567 80.1659ZM-133.107 80.1659L-133.107 84.4279L-126.134 84.4279L-126.134 80.1659L-133.107 80.1659ZM-123.035 80.1659L-123.035 84.4279L-116.061 84.4279L-116.061 80.1659L-123.035 80.1659ZM-112.575 80.1659L-112.575 84.4279L-105.602 84.4279L-105.602 80.1659L-112.575 80.1659ZM-102.115 80.1659L-102.115 84.4279L-95.1418 84.4279L-95.1418 80.1659L-102.115 80.1659ZM-92.0428 80.1659L-92.0428 84.4279L-85.0688 84.4279L-85.0688 80.1659L-92.0428 80.1659ZM-81.5828 80.1659L-81.5828 84.4279L-74.6098 84.4279L-74.6098 80.1659L-81.5828 80.1659ZM-71.5098 80.1659L-71.5098 84.4279L-64.5368 84.4279L-64.5368 80.1659L-71.5098 80.1659ZM-61.0508 80.1659L-61.0508 84.4279L-54.0768 84.4279L-54.0768 80.1659L-61.0508 80.1659ZM-50.9778 80.1659L-50.9778 84.4279L-44.0048 84.4279L-44.0048 80.1659L-50.9778 80.1659ZM-40.5178 80.1659L-40.5178 84.4279L-33.5448 84.4279L-33.5448 80.1659L-40.5178 80.1659ZM-30.4458 80.1659L-30.4458 84.4279L-23.4728 84.4279L-23.4728 80.1659L-30.4458 80.1659ZM-19.9858 80.1659L-19.9858 84.4279L-13.0128 84.4279L-13.0128 80.1659L-19.9858 80.1659ZM-9.52582 80.1659L-9.52582 84.4279L-2.5528 84.4279L-2.5528 80.1659L-9.52582 80.1659ZM-266.76 74.7429L-266.76 79.0039L-259.787 79.0039L-259.787 74.7429L-266.76 74.7429ZM-256.688 74.7429L-256.688 79.0039L-249.714 79.0039L-249.714 74.7429L-256.688 74.7429ZM-246.228 74.7429L-246.228 79.0039L-239.255 79.0039L-239.255 74.7429L-246.228 74.7429ZM-236.155 74.7429L-236.155 79.0039L-229.182 79.0039L-229.182 74.7429L-236.155 74.7429ZM-225.696 74.7429L-225.696 79.0039L-218.722 79.0039L-218.722 74.7429L-225.696 74.7429ZM-215.623 74.7429L-215.623 79.0039L-208.65 79.0039L-208.65 74.7429L-215.623 74.7429ZM-205.163 74.7429L-205.163 79.0039L-198.19 79.0039L-198.19 74.7429L-205.163 74.7429ZM-194.704 74.7429L-194.704 79.0039L-187.73 79.0039L-187.73 74.7429L-194.704 74.7429ZM-184.631 74.7429L-184.631 79.0039L-177.658 79.0039L-177.658 74.7429L-184.631 74.7429ZM-174.171 74.7429L-174.171 79.0039L-167.586 79.0039L-167.586 74.7429L-174.171 74.7429ZM-164.099 74.7429L-164.099 79.0039L-157.126 79.0039L-157.126 74.7429L-164.099 74.7429ZM-153.639 74.7429L-153.639 79.0039L-146.666 79.0039L-146.666 74.7429L-153.639 74.7429ZM-143.567 74.7429L-143.567 79.0039L-136.594 79.0039L-136.594 74.7429L-143.567 74.7429ZM-133.107 74.7429L-133.107 79.0039L-126.134 79.0039L-126.134 74.7429L-133.107 74.7429ZM-123.035 74.7429L-123.035 79.0039L-116.061 79.0039L-116.061 74.7429L-123.035 74.7429ZM-112.575 74.7429L-112.575 79.0039L-105.602 79.0039L-105.602 74.7429L-112.575 74.7429ZM-102.115 74.7429L-102.115 79.0039L-95.1418 79.0039L-95.1418 74.7429L-102.115 74.7429ZM-92.0428 74.7429L-92.0428 79.0039L-85.0688 79.0039L-85.0688 74.7429L-92.0428 74.7429ZM-81.5828 74.7429L-81.5828 79.0039L-74.6098 79.0039L-74.6098 74.7429L-81.5828 74.7429ZM-71.5098 74.7429L-71.5098 79.0039L-64.5368 79.0039L-64.5368 74.7429L-71.5098 74.7429ZM-61.0508 74.7429L-61.0508 79.0039L-54.0768 79.0039L-54.0768 74.7429L-61.0508 74.7429ZM-50.9778 74.7429L-50.9778 79.0039L-44.0048 79.0039L-44.0048 74.7429L-50.9778 74.7429ZM-40.5178 74.7429L-40.5178 79.0039L-33.5448 79.0039L-33.5448 74.7429L-40.5178 74.7429ZM-30.4458 74.7429L-30.4458 79.0039L-23.4728 79.0039L-23.4728 74.7429L-30.4458 74.7429ZM-19.9858 74.7429L-19.9858 79.0039L-13.0128 79.0039L-13.0128 74.7429L-19.9858 74.7429ZM-9.52582 74.7429L-9.52582 79.0039L-2.5528 79.0039L-2.5528 74.7429L-9.52582 74.7429ZM-266.76 68.9319L-266.76 73.1929L-259.787 73.1929L-259.787 68.9319L-266.76 68.9319ZM-256.688 68.9319L-256.688 73.1929L-249.714 73.1929L-249.714 68.9319L-256.688 68.9319ZM-246.228 68.9319L-246.228 73.1929L-239.255 73.1929L-239.255 68.9319L-246.228 68.9319ZM-236.155 68.9319L-236.155 73.1929L-229.182 73.1929L-229.182 68.9319L-236.155 68.9319ZM-225.696 68.9319L-225.696 73.1929L-218.722 73.1929L-218.722 68.9319L-225.696 68.9319ZM-215.623 68.9319L-215.623 73.1929L-208.65 73.1929L-208.65 68.9319L-215.623 68.9319ZM-205.163 68.9319L-205.163 73.1929L-198.19 73.1929L-198.19 68.9319L-205.163 68.9319ZM-194.704 68.9319L-194.704 73.1929L-187.73 73.1929L-187.73 68.9319L-194.704 68.9319ZM-184.631 68.9319L-184.631 73.1929L-177.658 73.1929L-177.658 68.9319L-184.631 68.9319ZM-174.171 68.9319L-174.171 73.1929L-167.586 73.1929L-167.586 68.9319L-174.171 68.9319ZM-164.099 68.9319L-164.099 73.1929L-157.126 73.1929L-157.126 68.9319L-164.099 68.9319ZM-153.639 68.9319L-153.639 73.1929L-146.666 73.1929L-146.666 68.9319L-153.639 68.9319ZM-143.567 68.9319L-143.567 73.1929L-136.594 73.1929L-136.594 68.9319L-143.567 68.9319ZM-133.107 68.9319L-133.107 73.1929L-126.134 73.1929L-126.134 68.9319L-133.107 68.9319ZM-123.035 68.9319L-123.035 73.1929L-116.061 73.1929L-116.061 68.9319L-123.035 68.9319ZM-112.575 68.9319L-112.575 73.1929L-105.602 73.1929L-105.602 68.9319L-112.575 68.9319ZM-102.115 68.9319L-102.115 73.1929L-95.1418 73.1929L-95.1418 68.9319L-102.115 68.9319ZM-92.0428 68.9319L-92.0428 73.1929L-85.0688 73.1929L-85.0688 68.9319L-92.0428 68.9319ZM-81.5828 68.9319L-81.5828 73.1929L-74.6098 73.1929L-74.6098 68.9319L-81.5828 68.9319ZM-71.5098 68.9319L-71.5098 73.1929L-64.5368 73.1929L-64.5368 68.9319L-71.5098 68.9319ZM-61.0508 68.9319L-61.0508 73.1929L-54.0768 73.1929L-54.0768 68.9319L-61.0508 68.9319ZM-50.9778 68.9319L-50.9778 73.1929L-44.0048 73.1929L-44.0048 68.9319L-50.9778 68.9319ZM-40.5178 68.9319L-40.5178 73.1929L-33.5448 73.1929L-33.5448 68.9319L-40.5178 68.9319ZM-30.4458 68.9319L-30.4458 73.1929L-23.4728 73.1929L-23.4728 68.9319L-30.4458 68.9319ZM-19.9858 68.9319L-19.9858 73.1929L-13.0128 73.1929L-13.0128 68.9319L-19.9858 68.9319ZM-9.52582 68.9319L-9.52582 73.1929L-2.5528 73.1929L-2.5528 68.9319L-9.52582 68.9319ZM-266.76 63.5079L-266.76 67.7689L-259.787 67.7689L-259.787 63.5079L-266.76 63.5079ZM-256.688 63.5079L-256.688 67.7689L-249.714 67.7689L-249.714 63.5079L-256.688 63.5079ZM-246.228 63.5079L-246.228 67.7689L-239.255 67.7689L-239.255 63.5079L-246.228 63.5079ZM-236.155 63.5079L-236.155 67.7689L-229.182 67.7689L-229.182 63.5079L-236.155 63.5079ZM-225.696 63.5079L-225.696 67.7689L-218.722 67.7689L-218.722 63.5079L-225.696 63.5079ZM-215.623 63.5079L-215.623 67.7689L-208.65 67.7689L-208.65 63.5079L-215.623 63.5079ZM-205.163 63.5079L-205.163 67.7689L-198.19 67.7689L-198.19 63.5079L-205.163 63.5079ZM-194.704 63.5079L-194.704 67.7689L-187.73 67.7689L-187.73 63.5079L-194.704 63.5079ZM-184.631 63.5079L-184.631 67.7689L-177.658 67.7689L-177.658 63.5079L-184.631 63.5079ZM-174.171 63.5079L-174.171 67.7689L-167.586 67.7689L-167.586 63.5079L-174.171 63.5079ZM-164.099 63.5079L-164.099 67.7689L-157.126 67.7689L-157.126 63.5079L-164.099 63.5079ZM-153.639 63.5079L-153.639 67.7689L-146.666 67.7689L-146.666 63.5079L-153.639 63.5079ZM-143.567 63.5079L-143.567 67.7689L-136.594 67.7689L-136.594 63.5079L-143.567 63.5079ZM-133.107 63.5079L-133.107 67.7689L-126.134 67.7689L-126.134 63.5079L-133.107 63.5079ZM-123.035 63.5079L-123.035 67.7689L-116.061 67.7689L-116.061 63.5079L-123.035 63.5079ZM-112.575 63.5079L-112.575 67.7689L-105.602 67.7689L-105.602 63.5079L-112.575 63.5079ZM-102.115 63.5079L-102.115 67.7689L-95.1418 67.7689L-95.1418 63.5079L-102.115 63.5079ZM-92.0428 63.5079L-92.0428 67.7689L-85.0688 67.7689L-85.0688 63.5079L-92.0428 63.5079ZM-81.5828 63.5079L-81.5828 67.7689L-74.6098 67.7689L-74.6098 63.5079L-81.5828 63.5079ZM-71.5098 63.5079L-71.5098 67.7689L-64.5368 67.7689L-64.5368 63.5079L-71.5098 63.5079ZM-61.0508 63.5079L-61.0508 67.7689L-54.0768 67.7689L-54.0768 63.5079L-61.0508 63.5079ZM-50.9778 63.5079L-50.9778 67.7689L-44.0048 67.7689L-44.0048 63.5079L-50.9778 63.5079ZM-40.5178 63.5079L-40.5178 67.7689L-33.5448 67.7689L-33.5448 63.5079L-40.5178 63.5079ZM-30.4458 63.5079L-30.4458 67.7689L-23.4728 67.7689L-23.4728 63.5079L-30.4458 63.5079ZM-19.9858 63.5079L-19.9858 67.7689L-13.0128 67.7689L-13.0128 63.5079L-19.9858 63.5079ZM-9.52582 63.5079L-9.52582 67.7689L-2.5528 67.7689L-2.5528 63.5079L-9.52582 63.5079Z" fill="#53A6EA"/>
<path d="M97.0098 997.14L97.0098 1092.44L-246.614 1092.44L-246.614 997.14L97.0098 997.14Z" fill="#196C9B"/>
<path d="M98.5591 1095.54L-249.714 1095.54L-249.714 995.59L98.5591 995.59L98.5591 1095.54ZM-243.516 1081.6L-243.516 1088.18L-234.605 1088.18L-234.605 1081.6L-243.516 1081.6ZM-230.344 1081.6L-230.344 1088.18L-221.434 1088.18L-221.434 1081.6L-230.344 1081.6ZM-217.172 1081.6L-217.172 1088.18L-208.262 1088.18L-208.262 1081.6L-217.172 1081.6ZM-204.001 1081.6L-204.001 1088.18L-195.091 1088.18L-195.091 1081.6L-204.001 1081.6ZM-191.217 1081.6L-191.217 1088.18L-182.306 1088.18L-182.306 1081.6L-191.217 1081.6ZM-178.045 1081.6L-178.045 1088.18L-169.135 1088.18L-169.135 1081.6L-178.045 1081.6ZM-164.873 1081.6L-164.873 1088.18L-155.963 1088.18L-155.963 1081.6L-164.873 1081.6ZM-151.702 1081.6L-151.702 1088.18L-142.792 1088.18L-142.792 1081.6L-151.702 1081.6ZM-138.918 1081.6L-138.918 1088.18L-130.007 1088.18L-130.007 1081.6L-138.918 1081.6ZM-125.746 1081.6L-125.746 1088.18L-116.836 1088.18L-116.836 1081.6L-125.746 1081.6ZM-112.574 1081.6L-112.574 1088.18L-103.664 1088.18L-103.664 1081.6L-112.574 1081.6ZM-99.4029 1081.6L-99.4029 1088.18L-90.4929 1088.18L-90.4929 1081.6L-99.4029 1081.6ZM-86.2309 1081.6L-86.2309 1088.18L-77.3209 1088.18L-77.3209 1081.6L-86.2309 1081.6ZM-73.4469 1081.6L-73.4469 1088.18L-64.5369 1088.18L-64.5369 1081.6L-73.4469 1081.6ZM-60.2749 1081.6L-60.2749 1088.18L-51.3649 1088.18L-51.3649 1081.6L-60.2749 1081.6ZM-47.1039 1081.6L-47.1039 1088.18L-38.1939 1088.18L-38.1939 1081.6L-47.1039 1081.6ZM-33.9319 1081.6L-33.9319 1088.18L-25.0219 1088.18L-25.0219 1081.6L-33.9319 1081.6ZM-20.7609 1081.6L-20.7609 1088.18L-11.8499 1088.18L-11.8499 1081.6L-20.7609 1081.6ZM-7.97593 1081.6L-7.97593 1088.18L0.934109 1088.18L0.934109 1081.6L-7.97593 1081.6ZM5.1951 1081.6L5.19509 1088.18L14.1051 1088.18L14.1051 1081.6L5.1951 1081.6ZM18.3671 1081.6L18.3671 1088.18L27.2771 1088.18L27.2771 1081.6L18.3671 1081.6ZM31.5381 1081.6L31.5381 1088.18L40.4491 1088.18L40.4491 1081.6L31.5381 1081.6ZM44.3231 1081.6L44.3231 1088.18L53.2331 1088.18L53.2331 1081.6L44.3231 1081.6ZM57.4941 1081.6L57.4941 1088.18L66.4041 1088.18L66.4041 1081.6L57.4941 1081.6ZM70.6661 1081.6L70.6661 1088.18L79.5761 1088.18L79.5761 1081.6L70.6661 1081.6ZM83.8371 1081.6L83.8371 1088.18L92.7481 1088.18L92.7481 1081.6L83.8371 1081.6ZM-243.516 1073.07L-243.516 1079.66L-234.605 1079.66L-234.605 1073.07L-243.516 1073.07ZM-230.344 1073.07L-230.344 1079.66L-221.434 1079.66L-221.434 1073.07L-230.344 1073.07ZM-217.172 1073.07L-217.172 1079.66L-208.262 1079.66L-208.262 1073.07L-217.172 1073.07ZM-204.001 1073.07L-204.001 1079.66L-195.091 1079.66L-195.091 1073.07L-204.001 1073.07ZM-191.217 1073.07L-191.217 1079.66L-182.306 1079.66L-182.306 1073.07L-191.217 1073.07ZM-178.045 1073.07L-178.045 1079.66L-169.135 1079.66L-169.135 1073.07L-178.045 1073.07ZM-164.873 1073.07L-164.873 1079.66L-155.963 1079.66L-155.963 1073.07L-164.873 1073.07ZM-151.702 1073.07L-151.702 1079.66L-142.792 1079.66L-142.792 1073.07L-151.702 1073.07ZM-138.918 1073.07L-138.918 1079.66L-130.007 1079.66L-130.007 1073.07L-138.918 1073.07ZM-125.746 1073.07L-125.746 1079.66L-116.836 1079.66L-116.836 1073.07L-125.746 1073.07ZM-112.574 1073.07L-112.574 1079.66L-103.664 1079.66L-103.664 1073.07L-112.574 1073.07ZM-99.4029 1073.07L-99.4029 1079.66L-90.4929 1079.66L-90.4929 1073.07L-99.4029 1073.07ZM-86.2309 1073.07L-86.2309 1079.66L-77.3209 1079.66L-77.3209 1073.07L-86.2309 1073.07ZM-73.4469 1073.07L-73.4469 1079.66L-64.5369 1079.66L-64.5369 1073.07L-73.4469 1073.07ZM-60.2749 1073.07L-60.2749 1079.66L-51.3649 1079.66L-51.3649 1073.07L-60.2749 1073.07ZM-47.1039 1073.07L-47.1039 1079.66L-38.1939 1079.66L-38.1939 1073.07L-47.1039 1073.07ZM-33.9319 1073.07L-33.9319 1079.66L-25.0219 1079.66L-25.0219 1073.07L-33.9319 1073.07ZM-20.7609 1073.07L-20.7609 1079.66L-11.8499 1079.66L-11.8499 1073.07L-20.7609 1073.07ZM-7.97593 1073.07L-7.97593 1079.66L0.934109 1079.66L0.934109 1073.07L-7.97593 1073.07ZM5.1951 1073.07L5.1951 1079.66L14.1051 1079.66L14.1051 1073.07L5.1951 1073.07ZM18.3671 1073.07L18.3671 1079.66L27.2771 1079.66L27.2771 1073.07L18.3671 1073.07ZM31.5381 1073.07L31.5381 1079.66L40.4491 1079.66L40.4491 1073.07L31.5381 1073.07ZM44.3231 1073.07L44.3231 1079.66L53.2331 1079.66L53.2331 1073.07L44.3231 1073.07ZM57.4941 1073.07L57.4941 1079.66L66.4041 1079.66L66.4041 1073.07L57.4941 1073.07ZM70.6661 1073.07L70.6661 1079.66L79.5761 1079.66L79.5761 1073.07L70.6661 1073.07ZM83.8371 1073.07L83.8371 1079.66L92.7481 1079.66L92.7481 1073.07L83.8371 1073.07ZM-243.516 1064.55L-243.516 1071.14L-234.605 1071.14L-234.605 1064.55L-243.516 1064.55ZM-230.344 1064.55L-230.344 1071.14L-221.434 1071.14L-221.434 1064.55L-230.344 1064.55ZM-217.172 1064.55L-217.172 1071.14L-208.262 1071.14L-208.262 1064.55L-217.172 1064.55ZM-204.001 1064.55L-204.001 1071.14L-195.091 1071.14L-195.091 1064.55L-204.001 1064.55ZM-191.217 1064.55L-191.217 1071.14L-182.306 1071.14L-182.306 1064.55L-191.217 1064.55ZM-178.045 1064.55L-178.045 1071.14L-169.135 1071.14L-169.135 1064.55L-178.045 1064.55ZM-164.873 1064.55L-164.873 1071.14L-155.963 1071.14L-155.963 1064.55L-164.873 1064.55ZM-151.702 1064.55L-151.702 1071.14L-142.792 1071.14L-142.792 1064.55L-151.702 1064.55ZM-138.918 1064.55L-138.918 1071.14L-130.007 1071.14L-130.007 1064.55L-138.918 1064.55ZM-125.746 1064.55L-125.746 1071.14L-116.836 1071.14L-116.836 1064.55L-125.746 1064.55ZM-112.574 1064.55L-112.574 1071.14L-103.664 1071.14L-103.664 1064.55L-112.574 1064.55ZM-99.4029 1064.55L-99.4029 1071.14L-90.4929 1071.14L-90.4929 1064.55L-99.4029 1064.55ZM-86.2309 1064.55L-86.2309 1071.14L-77.3209 1071.14L-77.3209 1064.55L-86.2309 1064.55ZM-73.4469 1064.55L-73.4469 1071.14L-64.5369 1071.14L-64.5369 1064.55L-73.4469 1064.55ZM-60.2749 1064.55L-60.2749 1071.14L-51.3649 1071.14L-51.3649 1064.55L-60.2749 1064.55ZM-47.1039 1064.55L-47.1039 1071.14L-38.1939 1071.14L-38.1939 1064.55L-47.1039 1064.55ZM-33.9319 1064.55L-33.9319 1071.14L-25.0219 1071.14L-25.0219 1064.55L-33.9319 1064.55ZM-20.7609 1064.55L-20.7609 1071.14L-11.8499 1071.14L-11.8499 1064.55L-20.7609 1064.55ZM-7.97592 1064.55L-7.97592 1071.14L0.934109 1071.14L0.93411 1064.55L-7.97592 1064.55ZM5.1951 1064.55L5.1951 1071.14L14.1051 1071.14L14.1051 1064.55L5.1951 1064.55ZM18.3671 1064.55L18.3671 1071.14L27.2771 1071.14L27.2771 1064.55L18.3671 1064.55ZM31.5381 1064.55L31.5381 1071.14L40.4491 1071.14L40.4491 1064.55L31.5381 1064.55ZM44.3231 1064.55L44.3231 1071.14L53.2331 1071.14L53.2331 1064.55L44.3231 1064.55ZM57.4941 1064.55L57.4941 1071.14L66.4041 1071.14L66.4041 1064.55L57.4941 1064.55ZM70.6661 1064.55L70.6661 1071.14L79.5761 1071.14L79.5761 1064.55L70.6661 1064.55ZM83.8371 1064.55L83.8371 1071.14L92.7481 1071.14L92.7481 1064.55L83.8371 1064.55ZM-243.516 1055.64L-243.516 1062.23L-234.605 1062.23L-234.605 1055.64L-243.516 1055.64ZM-230.344 1055.64L-230.344 1062.23L-221.434 1062.23L-221.434 1055.64L-230.344 1055.64ZM-217.172 1055.64L-217.172 1062.23L-208.262 1062.23L-208.262 1055.64L-217.172 1055.64ZM-204.001 1055.64L-204.001 1062.23L-195.091 1062.23L-195.091 1055.64L-204.001 1055.64ZM-191.217 1055.64L-191.217 1062.23L-182.306 1062.23L-182.306 1055.64L-191.217 1055.64ZM-178.045 1055.64L-178.045 1062.23L-169.135 1062.23L-169.135 1055.64L-178.045 1055.64ZM-164.873 1055.64L-164.873 1062.23L-155.963 1062.23L-155.963 1055.64L-164.873 1055.64ZM-151.702 1055.64L-151.702 1062.23L-142.792 1062.23L-142.792 1055.64L-151.702 1055.64ZM-138.918 1055.64L-138.918 1062.23L-130.007 1062.23L-130.007 1055.64L-138.918 1055.64ZM-125.746 1055.64L-125.746 1062.23L-116.836 1062.23L-116.836 1055.64L-125.746 1055.64ZM-112.574 1055.64L-112.574 1062.23L-103.664 1062.23L-103.664 1055.64L-112.574 1055.64ZM-99.4029 1055.64L-99.4029 1062.23L-90.4929 1062.23L-90.4929 1055.64L-99.4029 1055.64ZM-86.2309 1055.64L-86.2309 1062.23L-77.3209 1062.23L-77.3209 1055.64L-86.2309 1055.64ZM-73.4469 1055.64L-73.4469 1062.23L-64.5369 1062.23L-64.5369 1055.64L-73.4469 1055.64ZM-60.2749 1055.64L-60.2749 1062.23L-51.3649 1062.23L-51.3649 1055.64L-60.2749 1055.64ZM-47.1039 1055.64L-47.1039 1062.23L-38.1939 1062.23L-38.1939 1055.64L-47.1039 1055.64ZM-33.9319 1055.64L-33.9319 1062.23L-25.0219 1062.23L-25.0219 1055.64L-33.9319 1055.64ZM-20.7609 1055.64L-20.7609 1062.23L-11.8499 1062.23L-11.8499 1055.64L-20.7609 1055.64ZM-7.97592 1055.64L-7.97592 1062.23L0.93411 1062.23L0.93411 1055.64L-7.97592 1055.64ZM5.1951 1055.64L5.1951 1062.23L14.1051 1062.23L14.1051 1055.64L5.1951 1055.64ZM18.3671 1055.64L18.3671 1062.23L27.2771 1062.23L27.2771 1055.64L18.3671 1055.64ZM31.5381 1055.64L31.5381 1062.23L40.4491 1062.23L40.4491 1055.64L31.5381 1055.64ZM44.3231 1055.64L44.3231 1062.23L53.2331 1062.23L53.2331 1055.64L44.3231 1055.64ZM57.4941 1055.64L57.4941 1062.23L66.4041 1062.23L66.4041 1055.64L57.4941 1055.64ZM70.6661 1055.64L70.6661 1062.23L79.5761 1062.23L79.5761 1055.64L70.6661 1055.64ZM-243.516 1047.12L-243.516 1053.7L-234.605 1053.7L-234.605 1047.12L-243.516 1047.12ZM-230.344 1047.12L-230.344 1053.7L-221.434 1053.7L-221.434 1047.12L-230.344 1047.12ZM-217.172 1047.12L-217.172 1053.7L-208.262 1053.7L-208.262 1047.12L-217.172 1047.12ZM-204.001 1047.12L-204.001 1053.7L-195.091 1053.7L-195.091 1047.12L-204.001 1047.12ZM-191.217 1047.12L-191.217 1053.7L-182.306 1053.7L-182.306 1047.12L-191.217 1047.12ZM-178.045 1047.12L-178.045 1053.7L-169.135 1053.7L-169.135 1047.12L-178.045 1047.12ZM-164.873 1047.12L-164.873 1053.7L-155.963 1053.7L-155.963 1047.12L-164.873 1047.12ZM-151.702 1047.12L-151.702 1053.7L-142.792 1053.7L-142.792 1047.12L-151.702 1047.12ZM-138.918 1047.12L-138.918 1053.7L-130.007 1053.7L-130.007 1047.12L-138.918 1047.12ZM-125.746 1047.12L-125.746 1053.7L-116.836 1053.7L-116.836 1047.12L-125.746 1047.12ZM-112.574 1047.12L-112.574 1053.7L-103.664 1053.7L-103.664 1047.12L-112.574 1047.12ZM-99.4029 1047.12L-99.4029 1053.7L-90.4929 1053.7L-90.4929 1047.12L-99.4029 1047.12ZM-86.2309 1047.12L-86.2309 1053.7L-77.3209 1053.7L-77.3209 1047.12L-86.2309 1047.12ZM-73.4469 1047.12L-73.4469 1053.7L-64.5369 1053.7L-64.5369 1047.12L-73.4469 1047.12ZM-60.2749 1047.12L-60.2749 1053.7L-51.3649 1053.7L-51.3649 1047.12L-60.2749 1047.12ZM-47.1039 1047.12L-47.1039 1053.7L-38.1939 1053.7L-38.1939 1047.12L-47.1039 1047.12ZM-33.9319 1047.12L-33.9319 1053.7L-25.0219 1053.7L-25.0219 1047.12L-33.9319 1047.12ZM-20.7609 1047.12L-20.7609 1053.7L-11.8499 1053.7L-11.8499 1047.12L-20.7609 1047.12ZM-7.97592 1047.12L-7.97592 1053.7L0.93411 1053.7L0.93411 1047.12L-7.97592 1047.12ZM5.1951 1047.12L5.1951 1053.7L14.1051 1053.7L14.1051 1047.12L5.1951 1047.12ZM18.3671 1047.12L18.3671 1053.7L27.2771 1053.7L27.2771 1047.12L18.3671 1047.12ZM31.5381 1047.12L31.5381 1053.7L40.4491 1053.7L40.4491 1047.12L31.5381 1047.12ZM44.3231 1047.12L44.3231 1053.7L53.2331 1053.7L53.2331 1047.12L44.3231 1047.12ZM57.4941 1047.12L57.4941 1053.7L66.4041 1053.7L66.4041 1047.12L57.4941 1047.12ZM70.6661 1047.12L70.6661 1053.7L79.5761 1053.7L79.5761 1047.12L70.6661 1047.12ZM83.8371 1047.12L83.8371 1053.7L92.7481 1053.7L92.7481 1047.12L83.8371 1047.12ZM-243.516 1038.21L-243.516 1044.79L-234.605 1044.79L-234.605 1038.21L-243.516 1038.21ZM-230.344 1038.21L-230.344 1044.79L-221.434 1044.79L-221.434 1038.21L-230.344 1038.21ZM-217.172 1038.21L-217.172 1044.79L-208.262 1044.79L-208.262 1038.21L-217.172 1038.21ZM-204.001 1038.21L-204.001 1044.79L-195.091 1044.79L-195.091 1038.21L-204.001 1038.21ZM-191.217 1038.21L-191.217 1044.79L-182.306 1044.79L-182.306 1038.21L-191.217 1038.21ZM-178.045 1038.21L-178.045 1044.79L-169.135 1044.79L-169.135 1038.21L-178.045 1038.21ZM-164.873 1038.21L-164.873 1044.79L-155.963 1044.79L-155.963 1038.21L-164.873 1038.21ZM-151.702 1038.21L-151.702 1044.79L-142.792 1044.79L-142.792 1038.21L-151.702 1038.21ZM-138.918 1038.21L-138.918 1044.79L-130.007 1044.79L-130.007 1038.21L-138.918 1038.21ZM-125.746 1038.21L-125.746 1044.79L-116.836 1044.79L-116.836 1038.21L-125.746 1038.21ZM-112.574 1038.21L-112.574 1044.79L-103.664 1044.79L-103.664 1038.21L-112.574 1038.21ZM-99.4029 1038.21L-99.4029 1044.79L-90.4929 1044.79L-90.4929 1038.21L-99.4029 1038.21ZM-86.2309 1038.21L-86.2309 1044.79L-77.3209 1044.79L-77.3209 1038.21L-86.2309 1038.21ZM-73.4469 1038.21L-73.4469 1044.79L-64.5369 1044.79L-64.5369 1038.21L-73.4469 1038.21ZM-60.2749 1038.21L-60.2749 1044.79L-51.3649 1044.79L-51.3649 1038.21L-60.2749 1038.21ZM-47.1039 1038.21L-47.1039 1044.79L-38.1939 1044.79L-38.1939 1038.21L-47.1039 1038.21ZM-33.9319 1038.21L-33.9319 1044.79L-25.0219 1044.79L-25.0219 1038.21L-33.9319 1038.21ZM-20.7609 1038.21L-20.7609 1044.79L-11.8499 1044.79L-11.8499 1038.21L-20.7609 1038.21ZM-7.97592 1038.21L-7.97592 1044.79L0.93411 1044.79L0.934111 1038.21L-7.97592 1038.21ZM5.1951 1038.21L5.1951 1044.79L14.1051 1044.79L14.1051 1038.21L5.1951 1038.21ZM18.3671 1038.21L18.3671 1044.79L27.2771 1044.79L27.2771 1038.21L18.3671 1038.21ZM31.5381 1038.21L31.5381 1044.79L40.4491 1044.79L40.4491 1038.21L31.5381 1038.21ZM44.3231 1038.21L44.3231 1044.79L53.2331 1044.79L53.2331 1038.21L44.3231 1038.21ZM57.4941 1038.21L57.4941 1044.79L66.4041 1044.79L66.4041 1038.21L57.4941 1038.21ZM70.6661 1038.21L70.6661 1044.79L79.5761 1044.79L79.5761 1038.21L70.6661 1038.21ZM83.8371 1038.21L83.8371 1044.79L92.7481 1044.79L92.7481 1038.21L83.8371 1038.21ZM-243.516 1029.68L-243.516 1036.27L-234.605 1036.27L-234.605 1029.68L-243.516 1029.68ZM-230.344 1029.68L-230.344 1036.27L-221.434 1036.27L-221.434 1029.68L-230.344 1029.68ZM-217.172 1029.68L-217.172 1036.27L-208.262 1036.27L-208.262 1029.68L-217.172 1029.68ZM-204.001 1029.68L-204.001 1036.27L-195.091 1036.27L-195.091 1029.68L-204.001 1029.68ZM-191.217 1029.68L-191.217 1036.27L-182.306 1036.27L-182.306 1029.68L-191.217 1029.68ZM-178.045 1029.68L-178.045 1036.27L-169.135 1036.27L-169.135 1029.68L-178.045 1029.68ZM-164.873 1029.68L-164.873 1036.27L-155.963 1036.27L-155.963 1029.68L-164.873 1029.68ZM-151.702 1029.68L-151.702 1036.27L-142.792 1036.27L-142.792 1029.68L-151.702 1029.68ZM-138.918 1029.68L-138.918 1036.27L-130.007 1036.27L-130.007 1029.68L-138.918 1029.68ZM-125.746 1029.68L-125.746 1036.27L-116.836 1036.27L-116.836 1029.68L-125.746 1029.68ZM-112.574 1029.68L-112.574 1036.27L-103.664 1036.27L-103.664 1029.68L-112.574 1029.68ZM-99.4029 1029.68L-99.4029 1036.27L-90.4929 1036.27L-90.4929 1029.68L-99.4029 1029.68ZM-86.2309 1029.68L-86.2309 1036.27L-77.3209 1036.27L-77.3209 1029.68L-86.2309 1029.68ZM-73.4469 1029.68L-73.4469 1036.27L-64.5369 1036.27L-64.5369 1029.68L-73.4469 1029.68ZM-60.2749 1029.68L-60.2749 1036.27L-51.3649 1036.27L-51.3649 1029.68L-60.2749 1029.68ZM-47.1039 1029.68L-47.1039 1036.27L-38.1939 1036.27L-38.1939 1029.68L-47.1039 1029.68ZM-33.9319 1029.68L-33.9319 1036.27L-25.0219 1036.27L-25.0219 1029.68L-33.9319 1029.68ZM-20.7609 1029.68L-20.7609 1036.27L-11.8499 1036.27L-11.8499 1029.68L-20.7609 1029.68ZM-7.97592 1029.68L-7.97592 1036.27L0.934111 1036.27L0.934111 1029.68L-7.97592 1029.68ZM5.1951 1029.68L5.1951 1036.27L14.1051 1036.27L14.1051 1029.68L5.1951 1029.68ZM18.3671 1029.68L18.3671 1036.27L27.2771 1036.27L27.2771 1029.68L18.3671 1029.68ZM31.5381 1029.68L31.5381 1036.27L40.4491 1036.27L40.4491 1029.68L31.5381 1029.68ZM44.3231 1029.68L44.3231 1036.27L53.2331 1036.27L53.2331 1029.68L44.3231 1029.68ZM57.4941 1029.68L57.4941 1036.27L66.4041 1036.27L66.4041 1029.68L57.4941 1029.68ZM70.6661 1029.68L70.6661 1036.27L79.5761 1036.27L79.5761 1029.68L70.6661 1029.68ZM83.8371 1029.68L83.8371 1036.27L92.7481 1036.27L92.7481 1029.68L83.8371 1029.68ZM-243.516 1020.39L-243.516 1026.97L-234.605 1026.97L-234.605 1020.39L-243.516 1020.39ZM-230.344 1020.39L-230.344 1026.97L-221.434 1026.97L-221.434 1020.39L-230.344 1020.39ZM-217.172 1020.39L-217.172 1026.97L-208.262 1026.97L-208.262 1020.39L-217.172 1020.39ZM-204.001 1020.39L-204.001 1026.97L-195.091 1026.97L-195.091 1020.39L-204.001 1020.39ZM-191.217 1020.39L-191.217 1026.97L-182.306 1026.97L-182.306 1020.39L-191.217 1020.39ZM-178.045 1020.39L-178.045 1026.97L-169.135 1026.97L-169.135 1020.39L-178.045 1020.39ZM-164.873 1020.39L-164.873 1026.97L-155.963 1026.97L-155.963 1020.39L-164.873 1020.39ZM-151.702 1020.39L-151.702 1026.97L-142.792 1026.97L-142.792 1020.39L-151.702 1020.39ZM-138.918 1020.39L-138.918 1026.97L-130.007 1026.97L-130.007 1020.39L-138.918 1020.39ZM-125.746 1020.39L-125.746 1026.97L-116.836 1026.97L-116.836 1020.39L-125.746 1020.39ZM-112.574 1020.39L-112.574 1026.97L-103.664 1026.97L-103.664 1020.39L-112.574 1020.39ZM-99.4029 1020.39L-99.4029 1026.97L-90.4929 1026.97L-90.4929 1020.39L-99.4029 1020.39ZM-86.2309 1020.39L-86.2309 1026.97L-77.3209 1026.97L-77.3209 1020.39L-86.2309 1020.39ZM-73.4469 1020.39L-73.4469 1026.97L-64.5369 1026.97L-64.5369 1020.39L-73.4469 1020.39ZM-60.2749 1020.39L-60.2749 1026.97L-51.3649 1026.97L-51.3649 1020.39L-60.2749 1020.39ZM-47.1039 1020.39L-47.1039 1026.97L-38.1939 1026.97L-38.1939 1020.39L-47.1039 1020.39ZM-33.9319 1020.39L-33.9319 1026.97L-25.0219 1026.97L-25.0219 1020.39L-33.9319 1020.39ZM-20.7609 1020.39L-20.7609 1026.97L-11.8499 1026.97L-11.8499 1020.39L-20.7609 1020.39ZM-7.97592 1020.39L-7.97592 1026.97L0.934111 1026.97L0.934111 1020.39L-7.97592 1020.39ZM5.1951 1020.39L5.1951 1026.97L14.1051 1026.97L14.1051 1020.39L5.1951 1020.39ZM18.3671 1020.39L18.3671 1026.97L27.2771 1026.97L27.2771 1020.39L18.3671 1020.39ZM31.5381 1020.39L31.5381 1026.97L40.4491 1026.97L40.4491 1020.39L31.5381 1020.39ZM44.3231 1020.39L44.3231 1026.97L53.2331 1026.97L53.2331 1020.39L44.3231 1020.39ZM57.4941 1020.39L57.4941 1026.97L66.4041 1026.97L66.4041 1020.39L57.4941 1020.39ZM70.6661 1020.39L70.6661 1026.97L79.5761 1026.97L79.5761 1020.39L70.6661 1020.39ZM83.8371 1020.39L83.8371 1026.97L92.7481 1026.97L92.7481 1020.39L83.8371 1020.39ZM-243.516 1011.86L-243.516 1018.45L-234.605 1018.45L-234.605 1011.86L-243.516 1011.86ZM-230.344 1011.86L-230.344 1018.45L-221.434 1018.45L-221.434 1011.86L-230.344 1011.86ZM-217.172 1011.86L-217.172 1018.45L-208.262 1018.45L-208.262 1011.86L-217.172 1011.86ZM-204.001 1011.86L-204.001 1018.45L-195.091 1018.45L-195.091 1011.86L-204.001 1011.86ZM-191.217 1011.86L-191.217 1018.45L-182.306 1018.45L-182.306 1011.86L-191.217 1011.86ZM-178.045 1011.86L-178.045 1018.45L-169.135 1018.45L-169.135 1011.86L-178.045 1011.86ZM-164.873 1011.86L-164.873 1018.45L-155.963 1018.45L-155.963 1011.86L-164.873 1011.86ZM-151.702 1011.86L-151.702 1018.45L-142.792 1018.45L-142.792 1011.86L-151.702 1011.86ZM-138.918 1011.86L-138.918 1018.45L-130.007 1018.45L-130.007 1011.86L-138.918 1011.86ZM-125.746 1011.86L-125.746 1018.45L-116.836 1018.45L-116.836 1011.86L-125.746 1011.86ZM-112.574 1011.86L-112.574 1018.45L-103.664 1018.45L-103.664 1011.86L-112.574 1011.86ZM-99.4029 1011.86L-99.4029 1018.45L-90.4929 1018.45L-90.4929 1011.86L-99.4029 1011.86ZM-86.2309 1011.86L-86.2309 1018.45L-77.3209 1018.45L-77.3209 1011.86L-86.2309 1011.86ZM-73.4469 1011.86L-73.4469 1018.45L-64.5369 1018.45L-64.5369 1011.86L-73.4469 1011.86ZM-60.2749 1011.86L-60.2749 1018.45L-51.3649 1018.45L-51.3649 1011.86L-60.2749 1011.86ZM-47.1039 1011.86L-47.1039 1018.45L-38.1939 1018.45L-38.1939 1011.86L-47.1039 1011.86ZM-33.9319 1011.86L-33.9319 1018.45L-25.0219 1018.45L-25.0219 1011.86L-33.9319 1011.86ZM-20.7609 1011.86L-20.7609 1018.45L-11.8499 1018.45L-11.8499 1011.86L-20.7609 1011.86ZM-7.97592 1011.86L-7.97592 1018.45L0.934112 1018.45L0.934112 1011.86L-7.97592 1011.86ZM5.1951 1011.86L5.1951 1018.45L14.1051 1018.45L14.1051 1011.86L5.1951 1011.86ZM18.3671 1011.86L18.3671 1018.45L27.2771 1018.45L27.2771 1011.86L18.3671 1011.86ZM31.5381 1011.86L31.5381 1018.45L40.4491 1018.45L40.4491 1011.86L31.5381 1011.86ZM44.3231 1011.86L44.3231 1018.45L53.2331 1018.45L53.2331 1011.86L44.3231 1011.86ZM57.4941 1011.86L57.4941 1018.45L66.4041 1018.45L66.4041 1011.86L57.4941 1011.86ZM70.6661 1011.86L70.6661 1018.45L79.5761 1018.45L79.5761 1011.86L70.6661 1011.86ZM83.8371 1011.86L83.8371 1018.45L92.7481 1018.45L92.7481 1011.86L83.8371 1011.86ZM-243.516 1002.95L-243.516 1009.54L-234.605 1009.54L-234.605 1002.95L-243.516 1002.95ZM-230.344 1002.95L-230.344 1009.54L-221.434 1009.54L-221.434 1002.95L-230.344 1002.95ZM-217.172 1002.95L-217.172 1009.54L-208.262 1009.54L-208.262 1002.95L-217.172 1002.95ZM-204.001 1002.95L-204.001 1009.54L-195.091 1009.54L-195.091 1002.95L-204.001 1002.95ZM-191.217 1002.95L-191.217 1009.54L-182.306 1009.54L-182.306 1002.95L-191.217 1002.95ZM-178.045 1002.95L-178.045 1009.54L-169.135 1009.54L-169.135 1002.95L-178.045 1002.95ZM-164.873 1002.95L-164.873 1009.54L-155.963 1009.54L-155.963 1002.95L-164.873 1002.95ZM-151.702 1002.95L-151.702 1009.54L-142.792 1009.54L-142.792 1002.95L-151.702 1002.95ZM-138.918 1002.95L-138.918 1009.54L-130.007 1009.54L-130.007 1002.95L-138.918 1002.95ZM-125.746 1002.95L-125.746 1009.54L-116.836 1009.54L-116.836 1002.95L-125.746 1002.95ZM-112.574 1002.95L-112.574 1009.54L-103.664 1009.54L-103.664 1002.95L-112.574 1002.95ZM-99.4029 1002.95L-99.4029 1009.54L-90.4929 1009.54L-90.4929 1002.95L-99.4029 1002.95ZM-86.2309 1002.95L-86.2309 1009.54L-77.3209 1009.54L-77.3209 1002.95L-86.2309 1002.95ZM-73.4469 1002.95L-73.4469 1009.54L-64.5369 1009.54L-64.5369 1002.95L-73.4469 1002.95ZM-60.2749 1002.95L-60.2749 1009.54L-51.3649 1009.54L-51.3649 1002.95L-60.2749 1002.95ZM-47.1039 1002.95L-47.1039 1009.54L-38.1939 1009.54L-38.1939 1002.95L-47.1039 1002.95ZM-33.9319 1002.95L-33.9319 1009.54L-25.0219 1009.54L-25.0219 1002.95L-33.9319 1002.95ZM-20.7609 1002.95L-20.7609 1009.54L-11.8499 1009.54L-11.8499 1002.95L-20.7609 1002.95ZM-7.97592 1002.95L-7.97592 1009.54L0.934112 1009.54L0.934112 1002.95L-7.97592 1002.95ZM5.1951 1002.95L5.1951 1009.54L14.1051 1009.54L14.1051 1002.95L5.1951 1002.95ZM18.3671 1002.95L18.3671 1009.54L27.2771 1009.54L27.2771 1002.95L18.3671 1002.95ZM31.5381 1002.95L31.5381 1009.54L40.4491 1009.54L40.4491 1002.95L31.5381 1002.95ZM44.3231 1002.95L44.3231 1009.54L53.2331 1009.54L53.2331 1002.95L44.3231 1002.95ZM57.4941 1002.95L57.4941 1009.54L66.4041 1009.54L66.4041 1002.95L57.4941 1002.95ZM70.6661 1002.95L70.6661 1009.54L79.5761 1009.54L79.5761 1002.95L70.6661 1002.95ZM83.8371 1002.95L83.8371 1009.54L92.7481 1009.54L92.7481 1002.95L83.8371 1002.95Z" fill="#53A6EA"/>
<path d="M390.658 769.35L-307.824 769.35L-307.824 556.668C-307.824 556.668 -88.1678 517.928 41.6112 554.731C171.002 591.921 296.133 650.031 335.26 699.618C374.387 749.206 390.658 769.35 390.658 769.35Z" fill="#196C9B"/>
<path d="M-308.213 566.353C-245.066 551.632 133.036 476.477 365.476 749.206L-308.213 749.206L-308.213 794.532L423.586 794.532C423.586 794.532 219.426 439.286 -308.213 548.533L-308.213 566.353Z" fill="#53A6EA"/>
<path d="M-308.213 689.933C24.951 667.077 242.67 703.88 242.67 703.88C242.67 703.88 244.607 675.987 237.246 652.743C39.6721 525.288 -238.093 572.164 -308.213 586.885L-308.213 689.933Z" fill="#53A6EA"/>
<path d="M-308.213 690.708C-103.278 678.311 43.9341 684.51 132.261 691.87C225.624 699.618 274.049 710.853 279.085 712.015C279.86 715.114 283.347 733.322 282.959 748.431C78.4121 709.691 -239.643 731.385 -308.213 736.809L-308.213 738.358C-239.643 732.935 79.1871 711.24 283.347 749.98L284.122 749.98L284.122 749.205C284.509 732.547 280.248 711.24 280.248 711.24L280.248 710.853L279.86 710.853C279.473 710.853 231.048 698.843 132.648 690.708C44.3211 683.347 -103.278 677.149 -308.213 689.546L-308.213 690.708Z" fill="#53A6EA"/>
<path d="M-308.212 768.576L-308.212 770.126L259.329 769.738L259.717 769.738L284.123 749.593L283.348 748.431L259.329 768.189L-308.212 768.576Z" fill="#53A6EA"/>
<path d="M397.63 769.351L594.43 769.351L568.474 776.711L406.541 782.522L397.63 769.351Z" fill="#53A6EA"/>
<path d="M234.794 651.765L230.658 652.791L224.69 628.726L228.827 627.7L234.794 651.765Z" fill="#53A6EA"/>
<path d="M216.29 639.738L212.154 640.764L206.184 616.7L210.32 615.674L216.29 639.738Z" fill="#53A6EA"/>
<path d="M199.269 631.68L195.168 632.839L187.268 604.879L191.369 603.72L199.269 631.68Z" fill="#53A6EA"/>
<path d="M180.433 626.895L176.332 628.054L168.423 600.095L172.524 598.935L180.433 626.895Z" fill="#53A6EA"/>
<path d="M160.242 615.752L156.143 616.915L148.213 588.964L152.313 587.801L160.242 615.752Z" fill="#53A6EA"/>
<path d="M141.268 608.463L137.168 609.624L129.256 581.667L133.357 580.507L141.268 608.463Z" fill="#53A6EA"/>
<path d="M121.818 600.579L117.717 601.735L109.831 573.77L113.933 572.613L121.818 600.579Z" fill="#53A6EA"/>
<path d="M103.285 597.551L99.1841 598.709L91.2892 570.746L95.3911 569.588L103.285 597.551Z" fill="#53A6EA"/>
<path d="M84.4619 594.723L80.3609 595.884L72.4499 567.927L76.5499 566.766L84.4619 594.723Z" fill="#53A6EA"/>
<path d="M64.4541 587.599L60.3541 588.759L52.4451 560.802L56.5451 559.642L64.4541 587.599Z" fill="#53A6EA"/>
<path d="M44.3901 584.779L40.2891 585.938L32.3831 557.979L36.4841 556.819L44.3901 584.779Z" fill="#53A6EA"/>
<path d="M24.312 579.413L20.211 580.572L12.308 552.612L16.409 551.453L24.312 579.413Z" fill="#53A6EA"/>
<path d="M5.17285 577.967L1.0719 579.128L-6.8421 551.171L-2.74213 550.01L5.17285 577.967Z" fill="#53A6EA"/>
<path d="M245.77 767.801L269.014 746.107L264.753 708.916L269.014 708.141L273.275 747.656L248.869 770.9L245.77 767.801Z" fill="#53A6EA"/>
<path d="M226.013 767.413L251.194 743.007L247.32 705.429L251.581 705.042L255.455 744.557L229.112 770.512L226.013 767.413Z" fill="#53A6EA"/>
<path d="M204.706 767.801L234.923 740.683L231.437 703.105L235.698 702.718L239.572 742.233L207.805 770.9L204.706 767.801Z" fill="#53A6EA"/>
<path d="M187.66 767.413L217.49 737.971L214.778 700.006L219.039 699.618L222.139 739.908L190.372 770.512L187.66 767.413Z" fill="#53A6EA"/>
<path d="M169.839 767.413L199.668 736.421L197.731 697.681L201.993 697.294L203.93 737.971L172.938 770.512L169.839 767.413Z" fill="#53A6EA"/>
<path d="M151.243 767.801L181.848 734.485L178.361 695.357L182.623 694.97L186.109 736.034L154.343 770.9L151.243 767.801Z" fill="#53A6EA"/>
<path d="M133.036 767.801L162.866 732.547L159.766 693.807L164.028 693.42L167.127 734.097L136.135 770.512L133.036 767.801Z" fill="#53A6EA"/>
<path d="M115.216 768.188L144.271 731.385L141.172 691.87L145.046 691.483L148.92 732.935L118.315 770.512L115.216 768.188Z" fill="#53A6EA"/>
<path d="M93.909 769.738L125.676 730.223L122.189 690.321L126.451 689.934L129.937 731.386L97.396 772.45L93.909 769.738Z" fill="#53A6EA"/>
<path d="M75.6999 768.188L106.305 729.061L102.818 689.546L107.08 689.158L110.566 730.223L79.1869 770.512L75.6999 768.188Z" fill="#53A6EA"/>
<path d="M58.6559 768.188L85.3869 727.511L81.9 687.609L86.1619 687.221L89.6479 728.673L62.1429 770.512L58.6559 768.188Z" fill="#53A6EA"/>
<path d="M40.0599 768.188L66.0159 727.511L62.5289 687.609L66.7909 687.221L70.2769 728.673L43.5469 770.512L40.0599 768.188Z" fill="#53A6EA"/>
<path d="M19.529 768.189L44.323 724.8L40.836 685.285L45.097 684.898L48.584 725.962L23.403 770.126L19.529 768.189Z" fill="#53A6EA"/>
<path d="M0.159054 768.188L23.4031 726.349L21.0781 684.897L25.3401 684.897L27.6641 727.124L3.64508 770.512L0.159054 768.188Z" fill="#53A6EA"/>
<path d="M-20.7611 768.189L2.09595 722.863L-1.39105 682.961L2.87091 682.573L6.35693 723.638L-16.8871 770.126L-20.7611 768.189Z" fill="#53A6EA"/>
<path d="M286.06 694.969C281.411 694.969 277.925 681.798 277.925 665.14C277.925 648.482 281.411 635.31 286.06 635.31C290.709 635.31 294.195 648.482 294.195 665.14C294.195 681.798 290.709 694.969 286.06 694.969Z" fill="#53A6EA"/>
<path d="M226.4 763.927C226.4 763.927 233.761 800.342 234.923 807.316C235.698 814.289 232.211 829.785 222.913 838.695C216.715 838.695 212.841 836.758 212.841 836.758C212.841 836.758 199.669 770.9 197.732 765.864C195.408 761.215 226.4 763.927 226.4 763.927Z" fill="#53A6EA"/>
<path d="M41.9961 453.233L41.9961 479.576L-97.4679 479.576L-97.4679 453.233L41.9961 453.233Z" fill="#53A6EA"/>
<path d="M153.955 416.43L153.955 440.061L-115.288 440.061L-115.288 416.43L153.955 416.43Z" fill="#53A6EA"/>
<path d="M212.064 436.575L212.064 472.216L-114.901 472.216L-114.901 436.575L212.064 436.575Z" fill="#53A6EA"/>
<path d="M217.877 426.502L217.877 442.385L138.073 442.386L138.073 426.502L217.877 426.502Z" fill="#53A6EA"/>
<path d="M272.5 449.359L272.5 468.342L189.209 468.342L189.209 449.359L272.5 449.359Z" fill="#53A6EA"/>
<path d="M298.842 431.538L298.842 451.296L196.568 451.296L196.568 431.538L298.842 431.538Z" fill="#53A6EA"/>
<path d="M318.988 443.935L318.988 462.918L249.644 462.918L249.644 443.935L318.988 443.935Z" fill="#53A6EA"/>
<path d="M380.584 438.899L380.584 453.62L287.995 453.62L287.995 438.899L380.584 438.899Z" fill="#53A6EA"/>
<path d="M420.486 447.809L420.486 457.494L307.366 457.494L307.366 447.809L420.486 447.809Z" fill="#53A6EA"/>
<path d="M443.344 443.935L443.344 451.296L371.675 451.296L371.675 443.935L443.344 443.935Z" fill="#53A6EA"/>
<path d="M503.777 449.358L503.777 452.458L407.315 452.458L407.315 449.359L503.777 449.358Z" fill="#53A6EA"/>
<path d="M36.186 456.719L36.186 476.089L31.149 476.089L31.149 456.719L36.186 456.719Z" fill="#196C9B"/>
<path d="M24.9512 456.719L24.9512 476.089L19.9152 476.089L19.9152 456.719L24.9512 456.719Z" fill="#196C9B"/>
<path d="M13.7168 456.719L13.7168 476.089L8.68085 476.089L8.68085 456.719L13.7168 456.719Z" fill="#196C9B"/>
<path d="M2.09375 456.719L2.09375 476.089L-2.94226 476.089L-2.94226 456.719L2.09375 456.719Z" fill="#196C9B"/>
<path d="M146.594 421.853L146.594 441.223L141.558 441.223L141.558 421.853L146.594 421.853Z" fill="#196C9B"/>
<path d="M135.359 421.853L135.359 441.223L130.323 441.223L130.323 421.853L135.359 421.853Z" fill="#196C9B"/>
<path d="M123.736 421.853L123.736 441.223L118.7 441.223L118.7 421.853L123.736 421.853Z" fill="#196C9B"/>
<path d="M112.502 421.853L112.502 441.223L107.466 441.223L107.466 421.853L112.502 421.853Z" fill="#196C9B"/>
<path d="M101.268 421.853L101.268 441.223L96.231 441.223L96.231 421.853L101.268 421.853Z" fill="#196C9B"/>
<path d="M89.646 421.853L89.646 441.223L84.61 441.223L84.61 421.853L89.646 421.853Z" fill="#196C9B"/>
<path d="M78.4121 421.853L78.4121 441.223L73.3761 441.223L73.3761 421.853L78.4121 421.853Z" fill="#196C9B"/>
<path d="M67.1777 421.853L67.1777 441.223L62.1418 441.223L62.1418 421.853L67.1777 421.853Z" fill="#196C9B"/>
<path d="M55.5552 421.853L55.5552 441.223L50.5182 441.223L50.5182 421.853L55.5552 421.853Z" fill="#196C9B"/>
<path d="M44.3198 421.853L44.3198 441.223L39.2838 441.223L39.2838 421.853L44.3198 421.853Z" fill="#196C9B"/>
<path d="M207.803 447.034L207.803 466.404L202.767 466.404L202.767 447.034L207.803 447.034Z" fill="#196C9B"/>
<path d="M196.182 447.034L196.182 466.404L191.145 466.404L191.145 447.034L196.182 447.034Z" fill="#196C9B"/>
<path d="M184.945 447.034L184.945 466.404L179.909 466.404L179.909 447.034L184.945 447.034Z" fill="#196C9B"/>
<path d="M173.324 447.034L173.324 466.404L168.288 466.404L168.288 447.034L173.324 447.034Z" fill="#196C9B"/>
<path d="M162.09 447.034L162.09 466.404L157.054 466.404L157.054 447.034L162.09 447.034Z" fill="#196C9B"/>
<path d="M150.855 447.034L150.855 466.404L145.819 466.404L145.819 447.034L150.855 447.034Z" fill="#196C9B"/>
<path d="M139.232 447.034L139.232 466.404L134.196 466.404L134.196 447.034L139.232 447.034Z" fill="#196C9B"/>
<path d="M127.998 447.034L127.998 466.404L122.962 466.404L122.962 447.034L127.998 447.034Z" fill="#196C9B"/>
<path d="M116.764 447.034L116.764 466.404L111.728 466.404L111.728 447.034L116.764 447.034Z" fill="#196C9B"/>
<path d="M105.143 447.034L105.143 466.404L100.106 466.404L100.106 447.034L105.143 447.034Z" fill="#196C9B"/>
<path d="M313.176 447.809L313.176 459.044L308.527 459.044L308.527 447.809L313.176 447.809Z" fill="#196C9B"/>
<path d="M302.717 447.809L302.717 459.044L298.068 459.044L298.068 447.809L302.717 447.809Z" fill="#196C9B"/>
<path d="M292.256 447.809L292.256 459.044L287.607 459.044L287.607 447.809L292.256 447.809Z" fill="#196C9B"/>
<path d="M281.797 447.809L281.797 459.044L277.148 459.044L277.148 447.809L281.797 447.809Z" fill="#196C9B"/>
<path d="M271.336 447.809L271.336 459.044L266.687 459.044L266.687 447.809L271.336 447.809Z" fill="#196C9B"/>
<path d="M260.49 447.809L260.49 459.044L255.841 459.044L255.841 447.809L260.49 447.809Z" fill="#196C9B"/>
<path d="M250.029 447.809L250.029 459.044L245.381 459.044L245.381 447.809L250.029 447.809Z" fill="#196C9B"/>
<path d="M239.57 447.809L239.57 459.044L234.921 459.044L234.921 447.809L239.57 447.809Z" fill="#196C9B"/>
<path d="M90.0352 167.332L44.3222 127.817L-307.437 127.817L-307.437 163.07L90.0352 167.332Z" fill="#31779E"/>
<path d="M0.931822 167.332L44.3198 127.817L-307.439 127.817L-307.439 163.07L0.931822 167.332Z" fill="#196C9B"/>
<path d="M265.914 163.07L-307.438 163.07L-307.438 246.749L177.199 246.749L265.914 163.07Z" fill="#53A6EA"/>
<path d="M185.722 224.667L185.722 175.08L238.021 175.08L185.722 224.667Z" fill="#196C9B"/>
<path d="M168.289 175.08L168.289 233.964L117.927 233.964L117.927 175.08L168.289 175.08Z" fill="#196C9B"/>
<path d="M108.242 175.08L108.242 233.964L101.269 233.964L101.269 175.08L108.242 175.08Z" fill="#196C9B"/>
<path d="M97.7832 175.08L97.7832 233.964L90.8102 233.964L90.8102 175.08L97.7832 175.08Z" fill="#196C9B"/>
<path d="M87.3218 175.08L87.3218 233.964L80.3488 233.964L80.3488 175.08L87.3218 175.08Z" fill="#196C9B"/>
<path d="M77.25 175.08L77.25 233.964L70.277 233.964L70.277 175.08L77.25 175.08Z" fill="#196C9B"/>
<path d="M66.791 175.08L66.791 233.964L59.818 233.964L59.818 175.08L66.791 175.08Z" fill="#196C9B"/>
<path d="M56.7188 175.08L56.7187 233.964L49.7457 233.964L49.7457 175.08L56.7188 175.08Z" fill="#196C9B"/>
<path d="M46.2578 175.08L46.2578 233.964L39.2848 233.964L39.2848 175.08L46.2578 175.08Z" fill="#196C9B"/>
<path d="M36.186 175.08L36.186 233.964L29.212 233.964L29.212 175.08L36.186 175.08Z" fill="#196C9B"/>
<path d="M25.7271 175.08L25.727 233.964L18.753 233.964L18.7531 175.08L25.7271 175.08Z" fill="#196C9B"/>
<path d="M1.70703 175.08L1.70703 233.964L-5.26593 233.964L-5.26593 175.08L1.70703 175.08Z" fill="#196C9B"/>
<path d="M250.805 163.071L396.08 163.071L396.08 166.557L248.868 166.557L250.805 163.071Z" fill="#53A6EA"/>
</g>
<defs>
<clipPath id="clip0_4036_3115">
<rect width="1165" height="595" fill="white" transform="translate(595) rotate(90)"/>
</clipPath>
</defs>
</svg>
