<svg width="208" height="42" fill="none" xmlns="http://www.w3.org/2000/svg"><path d="M66.377 14.67h6.307c.892 0 1.606.019 2.142.059.555.04 1.14.13 1.755.269.635.14 1.14.349 1.517.628.397.279.734.657 1.012 1.136.258.458.387 1.036.387 1.734v4.036c0 1.614-.625 2.78-1.875 3.497-1.23.698-3.054 1.047-5.474 1.047h-2.885v6.995h-2.886V14.67zm6.158 10.582c1.25 0 2.251-.23 3.005-.688.754-.458 1.13-1.185 1.13-2.182v-3.528c0-.538-.138-.976-.416-1.315-.278-.359-.674-.608-1.19-.747-.496-.12-.912-.2-1.25-.24-.337-.04-.783-.06-1.338-.06h-3.243v8.76h3.302zM83.344 14.67h2.885v19.4h-2.885v-19.4zm7.873 0h3.48L105.2 30.692V14.669h2.529v19.402h-3.481L93.746 17.778v16.293h-2.53V14.67zm27.122 0h3.331l7.497 19.401h-3.004l-2.202-5.89h-8.27l-2.172 5.89h-2.856l7.676-19.402zm4.908 11.509l-3.272-8.76h-.268l-3.272 8.76h6.812zm17.176 8.191c-.912 0-1.725-.04-2.439-.12a13.978 13.978 0 01-2.202-.448c-.873-.24-1.606-.538-2.201-.897a4.469 4.469 0 01-1.458-1.524c-.397-.678-.595-1.435-.595-2.273v-9.177c0-1.116.287-2.073.863-2.87.575-.797 1.368-1.376 2.38-1.734a16.204 16.204 0 012.766-.718c.893-.16 1.855-.239 2.886-.239 2.459 0 4.681.16 6.664.478v2.243c-.754-.18-1.834-.34-3.243-.479-1.388-.16-2.509-.239-3.361-.239-4.066 0-6.099 1.176-6.099 3.528v9.148c0 .637.188 1.196.565 1.674.397.478.932.827 1.607 1.046.634.24 1.269.409 1.904.508.634.08 1.348.12 2.142.12 1.328 0 2.747-.18 4.254-.538v-6.786h-4.522V23.04h7.199v10.433c-2.578.598-4.948.897-7.11.897zm19.07 0c-5.394 0-8.092-1.754-8.092-5.261V19.93c0-3.707 2.698-5.56 8.092-5.56 5.454 0 8.181 1.843 8.181 5.53v9.207c0 1.874-.753 3.22-2.261 4.036-1.507.818-3.48 1.226-5.92 1.226zm.06-1.943c3.55 0 5.325-1.116 5.325-3.348V19.84c0-2.392-1.785-3.588-5.355-3.588-1.726 0-3.054.27-3.987.808-.912.538-1.368 1.465-1.368 2.78v9.238c0 2.232 1.795 3.348 5.385 3.348zm12.575-17.757h6.783c1.706 0 3.035.109 3.987.328.972.2 1.676.568 2.112 1.106.456.538.684 1.325.684 2.362v3.348c0 1.156-.476 2.053-1.428 2.69-.932.618-2.122.927-3.57.927l6.188 8.64h-3.54l-5.533-8.28h-2.797v8.28h-2.886V14.67zm6.664 9.207c1.428 0 2.45-.17 3.064-.508.635-.36.952-.997.952-1.914v-2.69c0-1.455-1.249-2.183-3.748-2.183h-4.046v7.295h3.778zm17.756-9.207h3.332l7.497 19.401h-3.005l-2.201-5.89H193.9l-2.171 5.89h-2.856l7.675-19.402zm4.909 11.509l-3.273-8.76h-.267l-3.273 8.76h6.813z" fill="#08496E"/><g clip-path="url(#clip0_4018_345)"><g opacity=".8" stroke-width="2" stroke-linecap="round" stroke-linejoin="round"><path d="M30.69 3.11l-12.327 7.18c-1.032.6-1.548.901-1.955 1.305-.361.36-.659.778-.88 1.237-.248.517-.362 1.105-.59 2.277l-2.277 11.74c-.477 2.458-.716 3.687-.42 4.722.262.907.8 1.708 1.547 2.288.844.66 2.074.899 4.528 1.375L39.4 39.325c2.454.476 3.68.714 4.711.417.908-.26 1.71-.8 2.292-1.543.661-.847.9-2.074 1.375-4.528l2.28-11.748c.227-1.172.34-1.758.304-2.332a4.466 4.466 0 00-.352-1.474c-.227-.53-.59-1.003-1.326-1.945L39.938 4.909c-1.36-1.751-2.041-2.629-2.91-3.08a4.457 4.457 0 00-2.492-.483c-.971.093-1.923.647-3.825 1.752m-.02.012l.02-.012m-.02.012l.02-.012" stroke="url(#paint0_linear_4018_345)"/><path d="M30.69 3.11l-12.327 7.18c-1.032.6-1.548.901-1.955 1.305-.361.36-.659.778-.88 1.237-.248.517-.362 1.105-.59 2.277l-2.277 11.74c-.477 2.458-.716 3.687-.42 4.722.262.907.8 1.708 1.547 2.288.844.66 2.074.899 4.528 1.375L39.4 39.325c2.454.476 3.68.714 4.711.417.908-.26 1.71-.8 2.292-1.543.661-.847.9-2.074 1.375-4.528l2.28-11.748c.227-1.172.34-1.758.304-2.332a4.466 4.466 0 00-.352-1.474c-.227-.53-.59-1.003-1.326-1.945L39.938 4.909c-1.36-1.751-2.041-2.629-2.91-3.08a4.457 4.457 0 00-2.492-.483c-.971.093-1.923.647-3.825 1.752m-.02.012l.02-.012m-.02.012l.02-.012" stroke="#3698F3"/><path d="M30.69 3.11l-12.327 7.18c-1.032.6-1.548.901-1.955 1.305-.361.36-.659.778-.88 1.237-.248.517-.362 1.105-.59 2.277l-2.277 11.74c-.477 2.458-.716 3.687-.42 4.722.262.907.8 1.708 1.547 2.288.844.66 2.074.899 4.528 1.375L39.4 39.325c2.454.476 3.68.714 4.711.417.908-.26 1.71-.8 2.292-1.543.661-.847.9-2.074 1.375-4.528l2.28-11.748c.227-1.172.34-1.758.304-2.332a4.466 4.466 0 00-.352-1.474c-.227-.53-.59-1.003-1.326-1.945L39.938 4.909c-1.36-1.751-2.041-2.629-2.91-3.08a4.457 4.457 0 00-2.492-.483c-.971.093-1.923.647-3.825 1.752m-.02.012l.02-.012m-.02.012l.02-.012" stroke="#3698F3"/></g><g opacity=".8"><path d="M14.939 15.11L12.66 26.848c-.477 2.458-.716 3.687-.42 4.722.262.907.8 1.708 1.547 2.288.844.66 2.074.899 4.528 1.375L39.4 39.325c2.454.476 3.68.714 4.711.417.908-.26 1.71-.8 2.292-1.543.661-.847.9-2.074 1.375-4.528l2.28-11.748c.227-1.172.34-1.758.304-2.332a4.466 4.466 0 00-.352-1.474c-.227-.53-.59-1.003-1.326-1.945L39.938 4.909c-1.36-1.751-2.041-2.629-2.91-3.08a4.457 4.457 0 00-2.492-.483c-.971.093-1.923.647-3.825 1.752l-.02.012-12.328 7.18c-1.032.6-1.548.901-1.955 1.305-.361.36-.659.778-.88 1.237-.248.517-.362 1.105-.59 2.277z" fill="url(#paint1_linear_4018_345)"/><path d="M14.939 15.11L12.66 26.848c-.477 2.458-.716 3.687-.42 4.722.262.907.8 1.708 1.547 2.288.844.66 2.074.899 4.528 1.375L39.4 39.325c2.454.476 3.68.714 4.711.417.908-.26 1.71-.8 2.292-1.543.661-.847.9-2.074 1.375-4.528l2.28-11.748c.227-1.172.34-1.758.304-2.332a4.466 4.466 0 00-.352-1.474c-.227-.53-.59-1.003-1.326-1.945L39.938 4.909c-1.36-1.751-2.041-2.629-2.91-3.08a4.457 4.457 0 00-2.492-.483c-.971.093-1.923.647-3.825 1.752l-.02.012-12.328 7.18c-1.032.6-1.548.901-1.955 1.305-.361.36-.659.778-.88 1.237-.248.517-.362 1.105-.59 2.277z" fill="#3698F3"/><path d="M14.939 15.11L12.66 26.848c-.477 2.458-.716 3.687-.42 4.722.262.907.8 1.708 1.547 2.288.844.66 2.074.899 4.528 1.375L39.4 39.325c2.454.476 3.68.714 4.711.417.908-.26 1.71-.8 2.292-1.543.661-.847.9-2.074 1.375-4.528l2.28-11.748c.227-1.172.34-1.758.304-2.332a4.466 4.466 0 00-.352-1.474c-.227-.53-.59-1.003-1.326-1.945L39.938 4.909c-1.36-1.751-2.041-2.629-2.91-3.08a4.457 4.457 0 00-2.492-.483c-.971.093-1.923.647-3.825 1.752l-.02.012-12.328 7.18c-1.032.6-1.548.901-1.955 1.305-.361.36-.659.778-.88 1.237-.248.517-.362 1.105-.59 2.277z" fill="#3698F3"/></g><g opacity=".8" filter="url(#filter0_if_4018_345)"><path d="M18.624 16.765l-1.76 9.067c-.367 1.899-.552 2.848-.323 3.647.202.7.618 1.32 1.194 1.768.652.51 1.602.694 3.497 1.062l16.285 3.159c1.896.368 2.843.552 3.639.322a3.454 3.454 0 001.77-1.192c.51-.654.695-1.601 1.062-3.497l1.76-9.073c.176-.905.264-1.358.236-1.802a3.453 3.453 0 00-.272-1.138c-.176-.409-.456-.774-1.024-1.502l-6.756-8.7c-1.05-1.352-1.577-2.029-2.248-2.377a3.442 3.442 0 00-1.924-.374c-.75.072-1.485.5-2.954 1.353l-.016.01-9.521 5.544c-.797.465-1.196.697-1.51 1.01-.28.277-.51.6-.68.955-.191.399-.28.853-.455 1.758z" fill="url(#paint2_linear_4018_345)"/><path d="M18.624 16.765l-1.76 9.067c-.367 1.899-.552 2.848-.323 3.647.202.7.618 1.32 1.194 1.768.652.51 1.602.694 3.497 1.062l16.285 3.159c1.896.368 2.843.552 3.639.322a3.454 3.454 0 001.77-1.192c.51-.654.695-1.601 1.062-3.497l1.76-9.073c.176-.905.264-1.358.236-1.802a3.453 3.453 0 00-.272-1.138c-.176-.409-.456-.774-1.024-1.502l-6.756-8.7c-1.05-1.352-1.577-2.029-2.248-2.377a3.442 3.442 0 00-1.924-.374c-.75.072-1.485.5-2.954 1.353l-.016.01-9.521 5.544c-.797.465-1.196.697-1.51 1.01-.28.277-.51.6-.68.955-.191.399-.28.853-.455 1.758z" fill="#3698F3"/><path d="M18.624 16.765l-1.76 9.067c-.367 1.899-.552 2.848-.323 3.647.202.7.618 1.32 1.194 1.768.652.51 1.602.694 3.497 1.062l16.285 3.159c1.896.368 2.843.552 3.639.322a3.454 3.454 0 001.77-1.192c.51-.654.695-1.601 1.062-3.497l1.76-9.073c.176-.905.264-1.358.236-1.802a3.453 3.453 0 00-.272-1.138c-.176-.409-.456-.774-1.024-1.502l-6.756-8.7c-1.05-1.352-1.577-2.029-2.248-2.377a3.442 3.442 0 00-1.924-.374c-.75.072-1.485.5-2.954 1.353l-.016.01-9.521 5.544c-.797.465-1.196.697-1.51 1.01-.28.277-.51.6-.68.955-.191.399-.28.853-.455 1.758z" fill="#3698F3"/></g><path d="M.206 20.862v13.096c0 2.743 0 4.114.533 5.165a4.88 4.88 0 002.14 2.138c1.046.533 2.417.533 5.155.533h23.522c2.738 0 4.107 0 5.153-.533a4.897 4.897 0 002.142-2.138c.534-1.048.534-2.417.534-5.155V20.862c0-1.307 0-1.961-.16-2.57a4.894 4.894 0 00-.685-1.512c-.355-.521-.845-.955-1.831-1.814L24.955 4.68c-1.827-1.6-2.743-2.4-3.771-2.704a4.88 4.88 0 00-2.78 0c-1.024.303-1.932 1.097-3.746 2.682l-.02.017-11.756 10.29c-.984.862-1.477 1.293-1.83 1.812a4.898 4.898 0 00-.687 1.513c-.16.607-.16 1.264-.16 2.571z" fill="#8DBBED" fill-opacity=".4" opacity=".8"/></g><defs><linearGradient id="paint0_linear_4018_345" x1="35.818" y1="1.407" x2="28.858" y2="37.279" gradientUnits="userSpaceOnUse"><stop stop-color="#64A7FE"/><stop offset="1" stop-color="#0A8ED9"/></linearGradient><linearGradient id="paint1_linear_4018_345" x1="35.818" y1="1.407" x2="28.858" y2="37.279" gradientUnits="userSpaceOnUse"><stop stop-color="#64A7FE"/><stop offset="1" stop-color="#0A8ED9"/></linearGradient><linearGradient id="paint2_linear_4018_345" x1="34.75" y1="6.182" x2="29.375" y2="33.888" gradientUnits="userSpaceOnUse"><stop stop-color="#64A7FE"/><stop offset="1" stop-color="#0A8ED9"/></linearGradient><clipPath id="clip0_4018_345"><path fill="#fff" d="M0 0h52v42H0z"/></clipPath><filter id="filter0_if_4018_345" x="15.44" y="5.119" width="36.549" height="34.773" filterUnits="userSpaceOnUse" color-interpolation-filters="sRGB"><feFlood flood-opacity="0" result="BackgroundImageFix"/><feBlend in="SourceGraphic" in2="BackgroundImageFix" result="shape"/><feColorMatrix in="SourceAlpha" values="0 0 0 0 0 0 0 0 0 0 0 0 0 0 0 0 0 0 127 0" result="hardAlpha"/><feOffset dx="6" dy="4"/><feGaussianBlur stdDeviation="12"/><feComposite in2="hardAlpha" operator="arithmetic" k2="-1" k3="1"/><feColorMatrix values="0 0 0 0 0 0 0 0 0 0 0 0 0 0 0 0 0 0 0.06 0"/><feBlend in2="shape" result="effect1_innerShadow_4018_345"/><feGaussianBlur stdDeviation=".5" result="effect2_foregroundBlur_4018_345"/></filter></defs></svg>