<svg width="52" height="42" viewBox="0 0 52 42" fill="none" xmlns="http://www.w3.org/2000/svg">
<g clip-path="url(#clip0_4020_494)">
<g opacity="0.8">
<path d="M30.6909 3.11005L18.3632 10.2891C17.3309 10.8906 16.8147 11.1913 16.4084 11.5953C16.0467 11.9545 15.7491 12.3728 15.5284 12.8322C15.2801 13.3489 15.166 13.9372 14.9386 15.1093L12.661 26.8485C12.184 29.3069 11.9455 30.5362 12.2413 31.5707C12.5027 32.4778 13.0418 33.2794 13.788 33.8592C14.6324 34.5195 15.8616 34.758 18.3156 35.2341L39.4008 39.325C41.8549 39.8011 43.0819 40.0391 44.112 39.7424C45.0199 39.4829 45.8224 38.9425 46.4044 38.1988C47.0652 37.3521 47.3032 36.1251 47.7794 33.671L50.0586 21.9231C50.286 20.751 50.3997 20.1649 50.3631 19.5906C50.3306 19.083 50.2116 18.5846 50.0113 18.1171C49.7837 17.5878 49.4201 17.1141 48.685 16.172L39.9376 4.9086C38.5782 3.15754 37.8966 2.28048 37.0275 1.82943C36.2622 1.43041 35.3973 1.26262 34.5361 1.34608C33.5649 1.43907 32.6129 1.99259 30.7114 3.09813M30.6909 3.11005L30.7114 3.09813M30.6909 3.11005C30.6978 3.10607 30.7046 3.10209 30.7114 3.09813" stroke="url(#paint0_linear_4020_494)" stroke-width="2" stroke-linecap="round" stroke-linejoin="round"/>
<g style="mix-blend-mode:luminosity">
<path d="M30.6909 3.11005L18.3632 10.2891C17.3309 10.8906 16.8147 11.1913 16.4084 11.5953C16.0467 11.9545 15.7491 12.3728 15.5284 12.8322C15.2801 13.3489 15.166 13.9372 14.9386 15.1093L12.661 26.8485C12.184 29.3069 11.9455 30.5362 12.2413 31.5707C12.5027 32.4778 13.0418 33.2794 13.788 33.8592C14.6324 34.5195 15.8616 34.758 18.3156 35.2341L39.4008 39.325C41.8549 39.8011 43.0819 40.0391 44.112 39.7424C45.0199 39.4829 45.8224 38.9425 46.4044 38.1988C47.0652 37.3521 47.3032 36.1251 47.7794 33.671L50.0586 21.9231C50.286 20.751 50.3997 20.1649 50.3631 19.5906C50.3306 19.083 50.2116 18.5846 50.0113 18.1171C49.7837 17.5878 49.4201 17.1141 48.685 16.172L39.9376 4.9086C38.5782 3.15754 37.8966 2.28048 37.0275 1.82943C36.2622 1.43041 35.3973 1.26262 34.5361 1.34608C33.5649 1.43907 32.6129 1.99259 30.7114 3.09813M30.6909 3.11005L30.7114 3.09813M30.6909 3.11005C30.6978 3.10607 30.7046 3.10209 30.7114 3.09813" stroke="#3698F3" stroke-width="2" stroke-linecap="round" stroke-linejoin="round"/>
</g>
<g style="mix-blend-mode:darken">
<path d="M30.6909 3.11005L18.3632 10.2891C17.3309 10.8906 16.8147 11.1913 16.4084 11.5953C16.0467 11.9545 15.7491 12.3728 15.5284 12.8322C15.2801 13.3489 15.166 13.9372 14.9386 15.1093L12.661 26.8485C12.184 29.3069 11.9455 30.5362 12.2413 31.5707C12.5027 32.4778 13.0418 33.2794 13.788 33.8592C14.6324 34.5195 15.8616 34.758 18.3156 35.2341L39.4008 39.325C41.8549 39.8011 43.0819 40.0391 44.112 39.7424C45.0199 39.4829 45.8224 38.9425 46.4044 38.1988C47.0652 37.3521 47.3032 36.1251 47.7794 33.671L50.0586 21.9231C50.286 20.751 50.3997 20.1649 50.3631 19.5906C50.3306 19.083 50.2116 18.5846 50.0113 18.1171C49.7837 17.5878 49.4201 17.1141 48.685 16.172L39.9376 4.9086C38.5782 3.15754 37.8966 2.28048 37.0275 1.82943C36.2622 1.43041 35.3973 1.26262 34.5361 1.34608C33.5649 1.43907 32.6129 1.99259 30.7114 3.09813M30.6909 3.11005L30.7114 3.09813M30.6909 3.11005C30.6978 3.10607 30.7046 3.10209 30.7114 3.09813" stroke="#3698F3" stroke-width="2" stroke-linecap="round" stroke-linejoin="round"/>
</g>
</g>
<g opacity="0.8">
<path d="M14.9386 15.1093L12.661 26.8485C12.184 29.3069 11.9455 30.5362 12.2413 31.5707C12.5027 32.4778 13.0418 33.2794 13.788 33.8592C14.6324 34.5195 15.8616 34.758 18.3156 35.2341L39.4008 39.325C41.8549 39.8011 43.0819 40.0391 44.112 39.7424C45.0199 39.4829 45.8224 38.9425 46.4044 38.1988C47.0652 37.3521 47.3032 36.1251 47.7794 33.671L50.0586 21.9231C50.286 20.751 50.3997 20.1649 50.3631 19.5906C50.3306 19.083 50.2116 18.5846 50.0113 18.1171C49.7837 17.5878 49.4201 17.1141 48.685 16.172L39.9376 4.9086C38.5782 3.15754 37.8966 2.28048 37.0275 1.82943C36.2622 1.43041 35.3973 1.26262 34.5361 1.34608C33.5649 1.43907 32.6129 1.99259 30.7114 3.09813L30.6909 3.11005L18.3632 10.2891C17.3309 10.8906 16.8147 11.1913 16.4084 11.5953C16.0467 11.9545 15.7491 12.3728 15.5284 12.8322C15.2801 13.3489 15.166 13.9372 14.9386 15.1093Z" fill="url(#paint1_linear_4020_494)"/>
<g style="mix-blend-mode:luminosity">
<path d="M14.9386 15.1093L12.661 26.8485C12.184 29.3069 11.9455 30.5362 12.2413 31.5707C12.5027 32.4778 13.0418 33.2794 13.788 33.8592C14.6324 34.5195 15.8616 34.758 18.3156 35.2341L39.4008 39.325C41.8549 39.8011 43.0819 40.0391 44.112 39.7424C45.0199 39.4829 45.8224 38.9425 46.4044 38.1988C47.0652 37.3521 47.3032 36.1251 47.7794 33.671L50.0586 21.9231C50.286 20.751 50.3997 20.1649 50.3631 19.5906C50.3306 19.083 50.2116 18.5846 50.0113 18.1171C49.7837 17.5878 49.4201 17.1141 48.685 16.172L39.9376 4.9086C38.5782 3.15754 37.8966 2.28048 37.0275 1.82943C36.2622 1.43041 35.3973 1.26262 34.5361 1.34608C33.5649 1.43907 32.6129 1.99259 30.7114 3.09813L30.6909 3.11005L18.3632 10.2891C17.3309 10.8906 16.8147 11.1913 16.4084 11.5953C16.0467 11.9545 15.7491 12.3728 15.5284 12.8322C15.2801 13.3489 15.166 13.9372 14.9386 15.1093Z" fill="#3698F3"/>
</g>
<g style="mix-blend-mode:darken">
<path d="M14.9386 15.1093L12.661 26.8485C12.184 29.3069 11.9455 30.5362 12.2413 31.5707C12.5027 32.4778 13.0418 33.2794 13.788 33.8592C14.6324 34.5195 15.8616 34.758 18.3156 35.2341L39.4008 39.325C41.8549 39.8011 43.0819 40.0391 44.112 39.7424C45.0199 39.4829 45.8224 38.9425 46.4044 38.1988C47.0652 37.3521 47.3032 36.1251 47.7794 33.671L50.0586 21.9231C50.286 20.751 50.3997 20.1649 50.3631 19.5906C50.3306 19.083 50.2116 18.5846 50.0113 18.1171C49.7837 17.5878 49.4201 17.1141 48.685 16.172L39.9376 4.9086C38.5782 3.15754 37.8966 2.28048 37.0275 1.82943C36.2622 1.43041 35.3973 1.26262 34.5361 1.34608C33.5649 1.43907 32.6129 1.99259 30.7114 3.09813L30.6909 3.11005L18.3632 10.2891C17.3309 10.8906 16.8147 11.1913 16.4084 11.5953C16.0467 11.9545 15.7491 12.3728 15.5284 12.8322C15.2801 13.3489 15.166 13.9372 14.9386 15.1093Z" fill="#3698F3"/>
</g>
</g>
<g opacity="0.8" filter="url(#filter0_if_4020_494)">
<path d="M18.6239 16.7652L16.8649 25.8319C16.4965 27.7307 16.3123 28.6801 16.5408 29.4791C16.7426 30.1797 17.159 30.7988 17.7353 31.2466C18.3875 31.7566 19.3369 31.9408 21.2322 32.3085L37.5173 35.468C39.4126 35.8358 40.3603 36.0196 41.1559 35.7905C41.8572 35.59 42.4769 35.1726 42.9264 34.5983C43.4368 33.9444 43.6207 32.9967 43.9884 31.1013L45.7488 22.0278C45.9244 21.1225 46.0122 20.6698 45.984 20.2263C45.9588 19.8343 45.8669 19.4493 45.7122 19.0882C45.5365 18.6794 45.2556 18.3136 44.6879 17.5859L37.9319 8.88674C36.882 7.53434 36.3555 6.85695 35.6842 6.50858C35.0931 6.2004 34.4252 6.07081 33.7601 6.13527C33.0099 6.20709 32.2746 6.6346 30.8061 7.48845L30.7902 7.49766L21.2689 13.0423C20.4716 13.5069 20.073 13.7391 19.7591 14.0512C19.4798 14.3286 19.2499 14.6516 19.0795 15.0065C18.8877 15.4055 18.7996 15.8599 18.6239 16.7652Z" fill="url(#paint2_linear_4020_494)"/>
<g style="mix-blend-mode:luminosity">
<path d="M18.6239 16.7652L16.8649 25.8319C16.4965 27.7307 16.3123 28.6801 16.5408 29.4791C16.7426 30.1797 17.159 30.7988 17.7353 31.2466C18.3875 31.7566 19.3369 31.9408 21.2322 32.3085L37.5173 35.468C39.4126 35.8358 40.3603 36.0196 41.1559 35.7905C41.8572 35.59 42.4769 35.1726 42.9264 34.5983C43.4368 33.9444 43.6207 32.9967 43.9884 31.1013L45.7488 22.0278C45.9244 21.1225 46.0122 20.6698 45.984 20.2263C45.9588 19.8343 45.8669 19.4493 45.7122 19.0882C45.5365 18.6794 45.2556 18.3136 44.6879 17.5859L37.9319 8.88674C36.882 7.53434 36.3555 6.85695 35.6842 6.50858C35.0931 6.2004 34.4252 6.07081 33.7601 6.13527C33.0099 6.20709 32.2746 6.6346 30.8061 7.48845L30.7902 7.49766L21.2689 13.0423C20.4716 13.5069 20.073 13.7391 19.7591 14.0512C19.4798 14.3286 19.2499 14.6516 19.0795 15.0065C18.8877 15.4055 18.7996 15.8599 18.6239 16.7652Z" fill="#3698F3"/>
</g>
<g style="mix-blend-mode:darken">
<path d="M18.6239 16.7652L16.8649 25.8319C16.4965 27.7307 16.3123 28.6801 16.5408 29.4791C16.7426 30.1797 17.159 30.7988 17.7353 31.2466C18.3875 31.7566 19.3369 31.9408 21.2322 32.3085L37.5173 35.468C39.4126 35.8358 40.3603 36.0196 41.1559 35.7905C41.8572 35.59 42.4769 35.1726 42.9264 34.5983C43.4368 33.9444 43.6207 32.9967 43.9884 31.1013L45.7488 22.0278C45.9244 21.1225 46.0122 20.6698 45.984 20.2263C45.9588 19.8343 45.8669 19.4493 45.7122 19.0882C45.5365 18.6794 45.2556 18.3136 44.6879 17.5859L37.9319 8.88674C36.882 7.53434 36.3555 6.85695 35.6842 6.50858C35.0931 6.2004 34.4252 6.07081 33.7601 6.13527C33.0099 6.20709 32.2746 6.6346 30.8061 7.48845L30.7902 7.49766L21.2689 13.0423C20.4716 13.5069 20.073 13.7391 19.7591 14.0512C19.4798 14.3286 19.2499 14.6516 19.0795 15.0065C18.8877 15.4055 18.7996 15.8599 18.6239 16.7652Z" fill="#3698F3"/>
</g>
</g>
<g opacity="0.8">
<g style="mix-blend-mode:darken">
<path d="M0.205566 20.8623V33.9584C0.205566 36.701 0.205566 38.0723 0.739386 39.1228C1.20954 40.0436 1.9564 40.7929 2.87956 41.2606C3.92517 41.7944 5.29645 41.7944 8.03412 41.7944H31.5565C34.2942 41.7944 35.663 41.7944 36.7086 41.2606C37.6306 40.7921 38.3806 40.0438 38.8512 39.1228C39.385 38.0747 39.385 36.7059 39.385 33.9682V20.8623C39.385 19.5547 39.385 18.9009 39.2259 18.2911C39.085 17.7521 38.8531 17.2412 38.5402 16.7802C38.1852 16.2586 37.6954 15.8252 36.7086 14.9657L24.9548 4.68086C23.128 3.08181 22.2122 2.28106 21.1837 1.97741C20.2777 1.70805 19.3129 1.70805 18.4044 1.97741C17.3796 2.27998 16.4716 3.07366 14.6579 4.65886L14.6383 4.67596L2.88201 14.9657C1.89763 15.8277 1.40544 16.2586 1.05282 16.7778C0.738896 17.2393 0.506181 17.7512 0.364733 18.2911C0.205566 18.8984 0.205566 19.5547 0.205566 20.8623Z" fill="#8DBBED" fill-opacity="0.4"/>
</g>
</g>
</g>
<defs>
<filter id="filter0_if_4020_494" x="15.4404" y="5.11914" width="36.5488" height="34.7725" filterUnits="userSpaceOnUse" color-interpolation-filters="sRGB">
<feFlood flood-opacity="0" result="BackgroundImageFix"/>
<feBlend mode="normal" in="SourceGraphic" in2="BackgroundImageFix" result="shape"/>
<feColorMatrix in="SourceAlpha" type="matrix" values="0 0 0 0 0 0 0 0 0 0 0 0 0 0 0 0 0 0 127 0" result="hardAlpha"/>
<feOffset dx="6" dy="4"/>
<feGaussianBlur stdDeviation="12"/>
<feComposite in2="hardAlpha" operator="arithmetic" k2="-1" k3="1"/>
<feColorMatrix type="matrix" values="0 0 0 0 0 0 0 0 0 0 0 0 0 0 0 0 0 0 0.06 0"/>
<feBlend mode="normal" in2="shape" result="effect1_innerShadow_4020_494"/>
<feGaussianBlur stdDeviation="0.5" result="effect2_foregroundBlur_4020_494"/>
</filter>
<linearGradient id="paint0_linear_4020_494" x1="35.818" y1="1.40688" x2="28.8582" y2="37.2795" gradientUnits="userSpaceOnUse">
<stop stop-color="#64A7FE"/>
<stop offset="1" stop-color="#0A8ED9"/>
</linearGradient>
<linearGradient id="paint1_linear_4020_494" x1="35.818" y1="1.40688" x2="28.8582" y2="37.2795" gradientUnits="userSpaceOnUse">
<stop stop-color="#64A7FE"/>
<stop offset="1" stop-color="#0A8ED9"/>
</linearGradient>
<linearGradient id="paint2_linear_4020_494" x1="34.7501" y1="6.18223" x2="29.3747" y2="33.8883" gradientUnits="userSpaceOnUse">
<stop stop-color="#64A7FE"/>
<stop offset="1" stop-color="#0A8ED9"/>
</linearGradient>
<clipPath id="clip0_4020_494">
<rect width="52" height="42" fill="white"/>
</clipPath>
</defs>
</svg>
