<svg width="97" height="99" fill="none" xmlns="http://www.w3.org/2000/svg"><g opacity=".8" stroke-width="2" stroke-linecap="round" stroke-linejoin="round"><path d="M36.002 7.969L7.778 32.68c-2.363 2.07-3.545 3.105-4.391 4.351a11.758 11.758 0 00-1.651 3.634c-.382 1.458-.382 3.033-.381 6.172l.005 31.437c.002 6.583.002 9.875 1.285 12.396a11.715 11.715 0 005.14 5.13c2.51 1.28 5.803 1.279 12.376 1.276l56.48-.023c6.573-.003 9.86-.004 12.37-1.287a11.76 11.76 0 005.144-5.133c1.281-2.517 1.281-5.803 1.28-12.375l-.007-31.46c0-3.139 0-4.708-.383-6.172A11.719 11.719 0 0093.398 37c-.853-1.25-2.028-2.29-4.398-4.353L60.773 7.97c-4.387-3.836-6.587-5.758-9.056-6.485a11.721 11.721 0 00-6.673.002c-2.461.728-4.641 2.634-8.995 6.44m-.047.042l.047-.041m-.047.04l.047-.04" stroke="url(#paint0_linear_4011_3005)"/><path d="M36.002 7.969L7.778 32.68c-2.363 2.07-3.545 3.105-4.391 4.351a11.758 11.758 0 00-1.651 3.634c-.382 1.458-.382 3.033-.381 6.172l.005 31.437c.002 6.583.002 9.875 1.285 12.396a11.715 11.715 0 005.14 5.13c2.51 1.28 5.803 1.279 12.376 1.276l56.48-.023c6.573-.003 9.86-.004 12.37-1.287a11.76 11.76 0 005.144-5.133c1.281-2.517 1.281-5.803 1.28-12.375l-.007-31.46c0-3.139 0-4.708-.383-6.172A11.719 11.719 0 0093.398 37c-.853-1.25-2.028-2.29-4.398-4.353L60.773 7.97c-4.387-3.836-6.587-5.758-9.056-6.485a11.721 11.721 0 00-6.673.002c-2.461.728-4.641 2.634-8.995 6.44m-.047.042l.047-.041m-.047.04l.047-.04" stroke="#3698F3"/><path d="M36.002 7.969L7.778 32.68c-2.363 2.07-3.545 3.105-4.391 4.351a11.758 11.758 0 00-1.651 3.634c-.382 1.458-.382 3.033-.381 6.172l.005 31.437c.002 6.583.002 9.875 1.285 12.396a11.715 11.715 0 005.14 5.13c2.51 1.28 5.803 1.279 12.376 1.276l56.48-.023c6.573-.003 9.86-.004 12.37-1.287a11.76 11.76 0 005.144-5.133c1.281-2.517 1.281-5.803 1.28-12.375l-.007-31.46c0-3.139 0-4.708-.383-6.172A11.719 11.719 0 0093.398 37c-.853-1.25-2.028-2.29-4.398-4.353L60.773 7.97c-4.387-3.836-6.587-5.758-9.056-6.485a11.721 11.721 0 00-6.673.002c-2.461.728-4.641 2.634-8.995 6.44m-.047.042l.047-.041m-.047.04l.047-.04" stroke="#3698F3"/></g><g opacity=".8"><path d="M1.355 46.838l.005 31.437c.002 6.583.002 9.875 1.285 12.396a11.715 11.715 0 005.14 5.13c2.51 1.28 5.803 1.279 12.376 1.276l56.48-.023c6.573-.003 9.86-.004 12.37-1.287a11.76 11.76 0 005.144-5.133c1.281-2.517 1.281-5.803 1.28-12.375l-.007-31.46c0-3.139 0-4.708-.383-6.172a11.719 11.719 0 00-1.647-3.626C92.545 35.75 91.37 34.71 89 32.647L60.773 7.97c-4.387-3.836-6.587-5.758-9.056-6.485a11.721 11.721 0 00-6.673.002c-2.461.728-4.641 2.634-8.995 6.44l-.047.042L7.778 32.68c-2.363 2.07-3.545 3.105-4.391 4.351a11.758 11.758 0 00-1.651 3.634c-.382 1.458-.382 3.033-.381 6.172z" fill="url(#paint1_linear_4011_3005)"/><path d="M1.355 46.838l.005 31.437c.002 6.583.002 9.875 1.285 12.396a11.715 11.715 0 005.14 5.13c2.51 1.28 5.803 1.279 12.376 1.276l56.48-.023c6.573-.003 9.86-.004 12.37-1.287a11.76 11.76 0 005.144-5.133c1.281-2.517 1.281-5.803 1.28-12.375l-.007-31.46c0-3.139 0-4.708-.383-6.172a11.719 11.719 0 00-1.647-3.626C92.545 35.75 91.37 34.71 89 32.647L60.773 7.97c-4.387-3.836-6.587-5.758-9.056-6.485a11.721 11.721 0 00-6.673.002c-2.461.728-4.641 2.634-8.995 6.44l-.047.042L7.778 32.68c-2.363 2.07-3.545 3.105-4.391 4.351a11.758 11.758 0 00-1.651 3.634c-.382 1.458-.382 3.033-.381 6.172z" fill="#3698F3"/><path d="M1.355 46.838l.005 31.437c.002 6.583.002 9.875 1.285 12.396a11.715 11.715 0 005.14 5.13c2.51 1.28 5.803 1.279 12.376 1.276l56.48-.023c6.573-.003 9.86-.004 12.37-1.287a11.76 11.76 0 005.144-5.133c1.281-2.517 1.281-5.803 1.28-12.375l-.007-31.46c0-3.139 0-4.708-.383-6.172a11.719 11.719 0 00-1.647-3.626C92.545 35.75 91.37 34.71 89 32.647L60.773 7.97c-4.387-3.836-6.587-5.758-9.056-6.485a11.721 11.721 0 00-6.673.002c-2.461.728-4.641 2.634-8.995 6.44l-.047.042L7.778 32.68c-2.363 2.07-3.545 3.105-4.391 4.351a11.758 11.758 0 00-1.651 3.634c-.382 1.458-.382 3.033-.381 6.172z" fill="#3698F3"/></g><g opacity=".8" filter="url(#filter0_if_4011_3005)"><path d="M11.698 49.262l.004 24.28c.001 5.085.002 7.627.992 9.574a9.044 9.044 0 003.97 3.962c1.94.989 4.482.988 9.56.986l43.621-.018c5.077-.002 7.615-.003 9.554-.994a9.08 9.08 0 003.973-3.965c.99-1.943.989-4.481.988-9.557l-.004-24.298c-.001-2.424-.001-3.636-.296-4.767a9.086 9.086 0 00-1.272-2.8c-.66-.967-1.567-1.77-3.398-3.363l-21.8-19.06c-3.389-2.963-5.088-4.447-6.995-5.009a9.053 9.053 0 00-5.154.002c-1.9.562-3.584 2.034-6.947 4.975l-.036.031-21.799 19.087c-1.825 1.598-2.738 2.398-3.391 3.36a9.08 9.08 0 00-1.276 2.807c-.295 1.126-.295 2.343-.294 4.767z" fill="url(#paint2_linear_4011_3005)"/><path d="M11.698 49.262l.004 24.28c.001 5.085.002 7.627.992 9.574a9.044 9.044 0 003.97 3.962c1.94.989 4.482.988 9.56.986l43.621-.018c5.077-.002 7.615-.003 9.554-.994a9.08 9.08 0 003.973-3.965c.99-1.943.989-4.481.988-9.557l-.004-24.298c-.001-2.424-.001-3.636-.296-4.767a9.086 9.086 0 00-1.272-2.8c-.66-.967-1.567-1.77-3.398-3.363l-21.8-19.06c-3.389-2.963-5.088-4.447-6.995-5.009a9.053 9.053 0 00-5.154.002c-1.9.562-3.584 2.034-6.947 4.975l-.036.031-21.799 19.087c-1.825 1.598-2.738 2.398-3.391 3.36a9.08 9.08 0 00-1.276 2.807c-.295 1.126-.295 2.343-.294 4.767z" fill="#3698F3"/><path d="M11.698 49.262l.004 24.28c.001 5.085.002 7.627.992 9.574a9.044 9.044 0 003.97 3.962c1.94.989 4.482.988 9.56.986l43.621-.018c5.077-.002 7.615-.003 9.554-.994a9.08 9.08 0 003.973-3.965c.99-1.943.989-4.481.988-9.557l-.004-24.298c-.001-2.424-.001-3.636-.296-4.767a9.086 9.086 0 00-1.272-2.8c-.66-.967-1.567-1.77-3.398-3.363l-21.8-19.06c-3.389-2.963-5.088-4.447-6.995-5.009a9.053 9.053 0 00-5.154.002c-1.9.562-3.584 2.034-6.947 4.975l-.036.031-21.799 19.087c-1.825 1.598-2.738 2.398-3.391 3.36a9.08 9.08 0 00-1.276 2.807c-.295 1.126-.295 2.343-.294 4.767z" fill="#3698F3"/></g><defs><linearGradient id="paint0_linear_4011_3005" x1="48.383" y1="1.001" x2="48.422" y2="97.066" gradientUnits="userSpaceOnUse"><stop stop-color="#64A7FE"/><stop offset="1" stop-color="#0A8ED9"/></linearGradient><linearGradient id="paint1_linear_4011_3005" x1="48.383" y1="1.001" x2="48.422" y2="97.066" gradientUnits="userSpaceOnUse"><stop stop-color="#64A7FE"/><stop offset="1" stop-color="#0A8ED9"/></linearGradient><linearGradient id="paint2_linear_4011_3005" x1="48.02" y1="13.86" x2="48.051" y2="88.055" gradientUnits="userSpaceOnUse"><stop stop-color="#64A7FE"/><stop offset="1" stop-color="#0A8ED9"/></linearGradient><filter id="filter0_if_4011_3005" x="10.698" y="12.86" width="79.662" height="79.204" filterUnits="userSpaceOnUse" color-interpolation-filters="sRGB"><feFlood flood-opacity="0" result="BackgroundImageFix"/><feBlend in="SourceGraphic" in2="BackgroundImageFix" result="shape"/><feColorMatrix in="SourceAlpha" values="0 0 0 0 0 0 0 0 0 0 0 0 0 0 0 0 0 0 127 0" result="hardAlpha"/><feOffset dx="6" dy="4"/><feGaussianBlur stdDeviation="12"/><feComposite in2="hardAlpha" operator="arithmetic" k2="-1" k3="1"/><feColorMatrix values="0 0 0 0 0 0 0 0 0 0 0 0 0 0 0 0 0 0 0.06 0"/><feBlend in2="shape" result="effect1_innerShadow_4011_3005"/><feGaussianBlur stdDeviation=".5" result="effect2_foregroundBlur_4011_3005"/></filter></defs></svg>