<svg width="214" height="217" fill="none" xmlns="http://www.w3.org/2000/svg"><g opacity=".8" filter="url(#filter0_b_4009_2981)"><path d="M1.973 103.743l.007 70.766c.002 14.82.002 22.23 2.888 27.907a26.389 26.389 0 0011.57 11.552c5.652 2.884 13.065 2.884 27.863 2.884h127.148c14.799 0 22.198 0 27.849-2.884a26.463 26.463 0 0011.581-11.552c2.885-5.663 2.884-13.06 2.883-27.854l-.007-70.819c0-7.066-.001-10.599-.861-13.893a26.456 26.456 0 00-3.707-8.165c-1.92-2.818-4.567-5.16-9.902-9.805l-63.54-55.575c-9.875-8.64-14.826-12.968-20.385-14.608a26.392 26.392 0 00-15.024 0c-5.539 1.635-10.447 5.923-20.25 14.49l-.106.091L16.438 71.88c-5.32 4.658-7.981 6.987-9.887 9.792a26.459 26.459 0 00-3.718 8.178c-.86 3.281-.86 6.828-.86 13.893z" fill="#8DBBED" fill-opacity=".4" style="mix-blend-mode:darken"/></g><defs><filter id="filter0_b_4009_2981" x="-289.138" y="-289.395" width="792.9" height="796.248" filterUnits="userSpaceOnUse" color-interpolation-filters="sRGB"><feFlood flood-opacity="0" result="BackgroundImageFix"/><feGaussianBlur in="BackgroundImageFix" stdDeviation="145"/><feComposite in2="SourceAlpha" operator="in" result="effect1_backgroundBlur_4009_2981"/><feBlend in="SourceGraphic" in2="effect1_backgroundBlur_4009_2981" result="shape"/></filter></defs></svg>