<svg width="97" height="99" viewBox="0 0 97 99" fill="none" xmlns="http://www.w3.org/2000/svg">
<g opacity="0.8">
<path d="M36.0018 7.96878L7.77834 32.6806C5.41514 34.7507 4.23344 35.7857 3.38704 37.0322C2.63344 38.1405 2.07494 39.3693 1.73554 40.6656C1.35364 42.1236 1.35394 43.6989 1.35454 46.8379L1.36044 78.2745C1.36164 84.8578 1.36224 88.1498 2.64454 90.6708C3.77384 92.8808 5.56744 94.6788 7.78424 95.8008C10.2951 97.0808 13.5877 97.0798 20.1611 97.0768L76.6409 97.0538C83.2142 97.0508 86.5012 97.0498 89.0112 95.7668C91.2252 94.6418 93.0252 92.8448 94.1552 90.6338C95.4362 88.1168 95.4362 84.8308 95.4342 78.2594L95.4282 46.7993C95.4282 43.6603 95.4282 42.0908 95.0452 40.6273C94.7072 39.3336 94.1502 38.1073 93.3982 37.0011C92.5452 35.7494 91.3692 34.7095 88.9992 32.6472L60.7727 7.97038C56.3858 4.13368 54.1864 2.21238 51.7168 1.48458C49.5413 0.838878 47.2247 0.839777 45.0435 1.48728C42.583 2.21458 40.4029 4.12068 36.0488 7.92768M36.0018 7.96878L36.0488 7.92768M36.0018 7.96878C36.0175 7.95508 36.0331 7.94138 36.0488 7.92768" stroke="url(#paint0_linear_4011_3005)" stroke-width="2" stroke-linecap="round" stroke-linejoin="round"/>
<g style="mix-blend-mode:luminosity">
<path d="M36.0018 7.96878L7.77834 32.6806C5.41514 34.7507 4.23344 35.7857 3.38704 37.0322C2.63344 38.1405 2.07494 39.3693 1.73554 40.6656C1.35364 42.1236 1.35394 43.6989 1.35454 46.8379L1.36044 78.2745C1.36164 84.8578 1.36224 88.1498 2.64454 90.6708C3.77384 92.8808 5.56744 94.6788 7.78424 95.8008C10.2951 97.0808 13.5877 97.0798 20.1611 97.0768L76.6409 97.0538C83.2142 97.0508 86.5012 97.0498 89.0112 95.7668C91.2252 94.6418 93.0252 92.8448 94.1552 90.6338C95.4362 88.1168 95.4362 84.8308 95.4342 78.2594L95.4282 46.7993C95.4282 43.6603 95.4282 42.0908 95.0452 40.6273C94.7072 39.3336 94.1502 38.1073 93.3982 37.0011C92.5452 35.7494 91.3692 34.7095 88.9992 32.6472L60.7727 7.97038C56.3858 4.13368 54.1864 2.21238 51.7168 1.48458C49.5413 0.838878 47.2247 0.839777 45.0435 1.48728C42.583 2.21458 40.4029 4.12068 36.0488 7.92768M36.0018 7.96878L36.0488 7.92768M36.0018 7.96878C36.0175 7.95508 36.0331 7.94138 36.0488 7.92768" stroke="#3698F3" stroke-width="2" stroke-linecap="round" stroke-linejoin="round"/>
</g>
<g style="mix-blend-mode:darken">
<path d="M36.0018 7.96878L7.77834 32.6806C5.41514 34.7507 4.23344 35.7857 3.38704 37.0322C2.63344 38.1405 2.07494 39.3693 1.73554 40.6656C1.35364 42.1236 1.35394 43.6989 1.35454 46.8379L1.36044 78.2745C1.36164 84.8578 1.36224 88.1498 2.64454 90.6708C3.77384 92.8808 5.56744 94.6788 7.78424 95.8008C10.2951 97.0808 13.5877 97.0798 20.1611 97.0768L76.6409 97.0538C83.2142 97.0508 86.5012 97.0498 89.0112 95.7668C91.2252 94.6418 93.0252 92.8448 94.1552 90.6338C95.4362 88.1168 95.4362 84.8308 95.4342 78.2594L95.4282 46.7993C95.4282 43.6603 95.4282 42.0908 95.0452 40.6273C94.7072 39.3336 94.1502 38.1073 93.3982 37.0011C92.5452 35.7494 91.3692 34.7095 88.9992 32.6472L60.7727 7.97038C56.3858 4.13368 54.1864 2.21238 51.7168 1.48458C49.5413 0.838878 47.2247 0.839777 45.0435 1.48728C42.583 2.21458 40.4029 4.12068 36.0488 7.92768M36.0018 7.96878L36.0488 7.92768M36.0018 7.96878C36.0175 7.95508 36.0331 7.94138 36.0488 7.92768" stroke="#3698F3" stroke-width="2" stroke-linecap="round" stroke-linejoin="round"/>
</g>
</g>
<g opacity="0.8">
<path d="M1.35454 46.8379L1.36044 78.2745C1.36164 84.8578 1.36224 88.1498 2.64454 90.6708C3.77384 92.8808 5.56744 94.6788 7.78424 95.8008C10.2951 97.0808 13.5877 97.0798 20.1611 97.0768L76.6409 97.0538C83.2142 97.0508 86.5012 97.0498 89.0112 95.7668C91.2252 94.6418 93.0252 92.8448 94.1552 90.6338C95.4362 88.1168 95.4362 84.8308 95.4342 78.2594L95.4282 46.7993C95.4282 43.6603 95.4282 42.0908 95.0452 40.6273C94.7072 39.3336 94.1502 38.1073 93.3982 37.0011C92.5452 35.7494 91.3692 34.7095 88.9992 32.6472L60.7727 7.97038C56.3858 4.13368 54.1864 2.21238 51.7168 1.48458C49.5413 0.838878 47.2247 0.839777 45.0435 1.48728C42.583 2.21458 40.4029 4.12068 36.0488 7.92768L36.0018 7.96878L7.77834 32.6806C5.41514 34.7507 4.23344 35.7857 3.38704 37.0322C2.63344 38.1405 2.07494 39.3693 1.73554 40.6656C1.35364 42.1236 1.35394 43.6989 1.35454 46.8379Z" fill="url(#paint1_linear_4011_3005)"/>
<g style="mix-blend-mode:luminosity">
<path d="M1.35454 46.8379L1.36044 78.2745C1.36164 84.8578 1.36224 88.1498 2.64454 90.6708C3.77384 92.8808 5.56744 94.6788 7.78424 95.8008C10.2951 97.0808 13.5877 97.0798 20.1611 97.0768L76.6409 97.0538C83.2142 97.0508 86.5012 97.0498 89.0112 95.7668C91.2252 94.6418 93.0252 92.8448 94.1552 90.6338C95.4362 88.1168 95.4362 84.8308 95.4342 78.2594L95.4282 46.7993C95.4282 43.6603 95.4282 42.0908 95.0452 40.6273C94.7072 39.3336 94.1502 38.1073 93.3982 37.0011C92.5452 35.7494 91.3692 34.7095 88.9992 32.6472L60.7727 7.97038C56.3858 4.13368 54.1864 2.21238 51.7168 1.48458C49.5413 0.838878 47.2247 0.839777 45.0435 1.48728C42.583 2.21458 40.4029 4.12068 36.0488 7.92768L36.0018 7.96878L7.77834 32.6806C5.41514 34.7507 4.23344 35.7857 3.38704 37.0322C2.63344 38.1405 2.07494 39.3693 1.73554 40.6656C1.35364 42.1236 1.35394 43.6989 1.35454 46.8379Z" fill="#3698F3"/>
</g>
<g style="mix-blend-mode:darken">
<path d="M1.35454 46.8379L1.36044 78.2745C1.36164 84.8578 1.36224 88.1498 2.64454 90.6708C3.77384 92.8808 5.56744 94.6788 7.78424 95.8008C10.2951 97.0808 13.5877 97.0798 20.1611 97.0768L76.6409 97.0538C83.2142 97.0508 86.5012 97.0498 89.0112 95.7668C91.2252 94.6418 93.0252 92.8448 94.1552 90.6338C95.4362 88.1168 95.4362 84.8308 95.4342 78.2594L95.4282 46.7993C95.4282 43.6603 95.4282 42.0908 95.0452 40.6273C94.7072 39.3336 94.1502 38.1073 93.3982 37.0011C92.5452 35.7494 91.3692 34.7095 88.9992 32.6472L60.7727 7.97038C56.3858 4.13368 54.1864 2.21238 51.7168 1.48458C49.5413 0.838878 47.2247 0.839777 45.0435 1.48728C42.583 2.21458 40.4029 4.12068 36.0488 7.92768L36.0018 7.96878L7.77834 32.6806C5.41514 34.7507 4.23344 35.7857 3.38704 37.0322C2.63344 38.1405 2.07494 39.3693 1.73554 40.6656C1.35364 42.1236 1.35394 43.6989 1.35454 46.8379Z" fill="#3698F3"/>
</g>
</g>
<g opacity="0.8" filter="url(#filter0_if_4011_3005)">
<path d="M11.6978 49.2618L11.7024 73.5418C11.7033 78.6266 11.7038 81.169 12.6942 83.1158C13.5664 84.8228 14.9517 86.2118 16.6638 87.0778C18.6031 88.0668 21.1461 88.0658 26.2231 88.0638L69.845 88.0458C74.922 88.0438 77.4605 88.0428 79.3993 87.0518C81.109 86.1828 82.4997 84.7948 83.3718 83.0868C84.3618 81.1437 84.3608 78.6058 84.3598 73.5301L84.3558 49.232C84.3548 46.8076 84.3548 45.5955 84.0598 44.4651C83.7978 43.4659 83.3678 42.5188 82.7876 41.6645C82.1289 40.6977 81.2206 39.8945 79.3902 38.3017L57.5893 19.2427C54.201 16.2794 52.5024 14.7955 50.595 14.2334C48.9147 13.7347 47.1255 13.7354 45.4408 14.2355C43.5405 14.7972 41.8567 16.2694 38.4938 19.2097L38.4575 19.2414L16.6592 38.3275C14.834 39.9263 13.9214 40.7257 13.2676 41.6885C12.6856 42.5444 12.2542 43.4935 11.9921 44.4947C11.6972 45.6208 11.6974 46.8375 11.6978 49.2618Z" fill="url(#paint2_linear_4011_3005)"/>
<g style="mix-blend-mode:luminosity">
<path d="M11.6978 49.2618L11.7024 73.5418C11.7033 78.6266 11.7038 81.169 12.6942 83.1158C13.5664 84.8228 14.9517 86.2118 16.6638 87.0778C18.6031 88.0668 21.1461 88.0658 26.2231 88.0638L69.845 88.0458C74.922 88.0438 77.4605 88.0428 79.3993 87.0518C81.109 86.1828 82.4997 84.7948 83.3718 83.0868C84.3618 81.1437 84.3608 78.6058 84.3598 73.5301L84.3558 49.232C84.3548 46.8076 84.3548 45.5955 84.0598 44.4651C83.7978 43.4659 83.3678 42.5188 82.7876 41.6645C82.1289 40.6977 81.2206 39.8945 79.3902 38.3017L57.5893 19.2427C54.201 16.2794 52.5024 14.7955 50.595 14.2334C48.9147 13.7347 47.1255 13.7354 45.4408 14.2355C43.5405 14.7972 41.8567 16.2694 38.4938 19.2097L38.4575 19.2414L16.6592 38.3275C14.834 39.9263 13.9214 40.7257 13.2676 41.6885C12.6856 42.5444 12.2542 43.4935 11.9921 44.4947C11.6972 45.6208 11.6974 46.8375 11.6978 49.2618Z" fill="#3698F3"/>
</g>
<g style="mix-blend-mode:darken">
<path d="M11.6978 49.2618L11.7024 73.5418C11.7033 78.6266 11.7038 81.169 12.6942 83.1158C13.5664 84.8228 14.9517 86.2118 16.6638 87.0778C18.6031 88.0668 21.1461 88.0658 26.2231 88.0638L69.845 88.0458C74.922 88.0438 77.4605 88.0428 79.3993 87.0518C81.109 86.1828 82.4997 84.7948 83.3718 83.0868C84.3618 81.1437 84.3608 78.6058 84.3598 73.5301L84.3558 49.232C84.3548 46.8076 84.3548 45.5955 84.0598 44.4651C83.7978 43.4659 83.3678 42.5188 82.7876 41.6645C82.1289 40.6977 81.2206 39.8945 79.3902 38.3017L57.5893 19.2427C54.201 16.2794 52.5024 14.7955 50.595 14.2334C48.9147 13.7347 47.1255 13.7354 45.4408 14.2355C43.5405 14.7972 41.8567 16.2694 38.4938 19.2097L38.4575 19.2414L16.6592 38.3275C14.834 39.9263 13.9214 40.7257 13.2676 41.6885C12.6856 42.5444 12.2542 43.4935 11.9921 44.4947C11.6972 45.6208 11.6974 46.8375 11.6978 49.2618Z" fill="#3698F3"/>
</g>
</g>
<defs>
<filter id="filter0_if_4011_3005" x="10.6978" y="12.8599" width="79.6621" height="79.2041" filterUnits="userSpaceOnUse" color-interpolation-filters="sRGB">
<feFlood flood-opacity="0" result="BackgroundImageFix"/>
<feBlend mode="normal" in="SourceGraphic" in2="BackgroundImageFix" result="shape"/>
<feColorMatrix in="SourceAlpha" type="matrix" values="0 0 0 0 0 0 0 0 0 0 0 0 0 0 0 0 0 0 127 0" result="hardAlpha"/>
<feOffset dx="6" dy="4"/>
<feGaussianBlur stdDeviation="12"/>
<feComposite in2="hardAlpha" operator="arithmetic" k2="-1" k3="1"/>
<feColorMatrix type="matrix" values="0 0 0 0 0 0 0 0 0 0 0 0 0 0 0 0 0 0 0.06 0"/>
<feBlend mode="normal" in2="shape" result="effect1_innerShadow_4011_3005"/>
<feGaussianBlur stdDeviation="0.5" result="effect2_foregroundBlur_4011_3005"/>
</filter>
<linearGradient id="paint0_linear_4011_3005" x1="48.383" y1="1.00098" x2="48.4225" y2="97.0658" gradientUnits="userSpaceOnUse">
<stop stop-color="#64A7FE"/>
<stop offset="1" stop-color="#0A8ED9"/>
</linearGradient>
<linearGradient id="paint1_linear_4011_3005" x1="48.383" y1="1.00098" x2="48.4225" y2="97.0658" gradientUnits="userSpaceOnUse">
<stop stop-color="#64A7FE"/>
<stop offset="1" stop-color="#0A8ED9"/>
</linearGradient>
<linearGradient id="paint2_linear_4011_3005" x1="48.0201" y1="13.8599" x2="48.0506" y2="88.0548" gradientUnits="userSpaceOnUse">
<stop stop-color="#64A7FE"/>
<stop offset="1" stop-color="#0A8ED9"/>
</linearGradient>
</defs>
</svg>
